<svg width="30" height="30" viewBox="0 0 30 30" fill="none" xmlns="http://www.w3.org/2000/svg">
<g id="buildings-alt">
<path id="buildings-alt_2" d="M27.5 25.3125H26.875V13.75C26.875 12.2275 26.1725 11.3974 24.7775 11.2674C24.5625 11.2474 24.375 11.4314 24.375 11.6476V25.3125H22.5V7.5C22.5 5 21.25 3.75 18.75 3.75H11.25C8.75 3.75 7.5 5 7.5 7.5V25.3125H5.625V11.6476C5.625 11.4314 5.43747 11.2474 5.22247 11.2674C3.82747 11.3974 3.125 12.2275 3.125 13.75V25.3125H2.5C1.9875 25.3125 1.5625 25.7375 1.5625 26.25C1.5625 26.7625 1.9875 27.1875 2.5 27.1875H27.5C28.0125 27.1875 28.4375 26.7625 28.4375 26.25C28.4375 25.7375 28.0125 25.3125 27.5 25.3125ZM11.875 7.8125H13.125C13.6425 7.8125 14.0625 8.2325 14.0625 8.75C14.0625 9.2675 13.6425 9.6875 13.125 9.6875H11.875C11.3575 9.6875 10.9375 9.2675 10.9375 8.75C10.9375 8.2325 11.3575 7.8125 11.875 7.8125ZM11.875 11.5625H13.125C13.6425 11.5625 14.0625 11.9825 14.0625 12.5C14.0625 13.0175 13.6425 13.4375 13.125 13.4375H11.875C11.3575 13.4375 10.9375 13.0175 10.9375 12.5C10.9375 11.9825 11.3575 11.5625 11.875 11.5625ZM10.9375 16.25C10.9375 15.7325 11.3575 15.3125 11.875 15.3125H13.125C13.6425 15.3125 14.0625 15.7325 14.0625 16.25C14.0625 16.7675 13.6425 17.1875 13.125 17.1875H11.875C11.3575 17.1875 10.9375 16.7675 10.9375 16.25ZM17.5 25.3125H12.5V22.5C12.5 21.12 13.62 20 15 20C16.3813 20 17.5 21.12 17.5 22.5V25.3125ZM18.125 17.1875H16.875C16.3575 17.1875 15.9375 16.7675 15.9375 16.25C15.9375 15.7325 16.3575 15.3125 16.875 15.3125H18.125C18.6425 15.3125 19.0625 15.7325 19.0625 16.25C19.0625 16.7675 18.6425 17.1875 18.125 17.1875ZM18.125 13.4375H16.875C16.3575 13.4375 15.9375 13.0175 15.9375 12.5C15.9375 11.9825 16.3575 11.5625 16.875 11.5625H18.125C18.6425 11.5625 19.0625 11.9825 19.0625 12.5C19.0625 13.0175 18.6425 13.4375 18.125 13.4375ZM18.125 9.6875H16.875C16.3575 9.6875 15.9375 9.2675 15.9375 8.75C15.9375 8.2325 16.3575 7.8125 16.875 7.8125H18.125C18.6425 7.8125 19.0625 8.2325 19.0625 8.75C19.0625 9.2675 18.6425 9.6875 18.125 9.6875Z" fill="white"/>
</g>
</svg>
