<svg width="30" height="30" viewBox="0 0 30 30" fill="none" xmlns="http://www.w3.org/2000/svg">
<g id="pen-tool">
<path id="pen-tool_2" d="M25.8874 21.4L21.3999 25.8875C20.9137 26.3737 20.1237 26.3737 19.6374 25.8875L17.1774 23.4275C17.0312 23.2813 17.0312 23.0437 17.1774 22.8975L22.8974 17.1775C23.0436 17.0313 23.2812 17.0313 23.4274 17.1775L25.8874 19.6375C26.3737 20.1237 26.3737 20.9137 25.8874 21.4ZM22.1861 14.9812L20.5999 8.6375C20.2374 7.1875 19.0499 6.08752 17.5749 5.83752L5.1874 3.76251C5.1699 3.79626 5.17116 3.79499 5.15366 3.82874L12.0249 10.7C12.6499 10.5125 13.3374 10.675 13.8249 11.175C14.5624 11.9 14.5624 13.0875 13.8249 13.825C13.0999 14.5625 11.8999 14.5625 11.1749 13.825C10.6749 13.3375 10.5124 12.6375 10.6999 12.025L3.74991 5.075C3.74491 5.0775 3.7499 5.07501 3.74365 5.07751L5.83741 17.575C6.08741 19.05 7.18741 20.2375 8.63741 20.6L14.9812 22.1862C15.1087 22.2187 15.2437 22.1813 15.3374 22.0875L22.0874 15.3375C22.1799 15.245 22.2174 15.1087 22.1861 14.9812Z" fill="white"/>
</g>
</svg>
