<svg width="30" height="30" viewBox="0 0 30 30" fill="none" xmlns="http://www.w3.org/2000/svg">
<g id="globe">
<path id="globe_2" d="M8.53758 15.9375C8.72508 19.7875 10.0251 23.7125 12.2876 27.2C6.98758 26.025 2.9501 21.4875 2.5376 15.9375H8.53758ZM12.2876 2.79999C6.98758 3.97499 2.9501 8.5125 2.5376 14.0625H8.53758C8.72508 10.2125 10.0251 6.28749 12.2876 2.79999ZM15.2501 2.5H14.7501L14.3751 3.03749C12.0001 6.41249 10.6126 10.2875 10.4126 14.0625H19.5876C19.3876 10.2875 18.0001 6.41249 15.6251 3.03749L15.2501 2.5ZM10.4126 15.9375C10.6126 19.7125 12.0001 23.5875 14.3751 26.9625L14.7501 27.5H15.2501L15.6251 26.9625C18.0001 23.5875 19.3876 19.7125 19.5876 15.9375H10.4126ZM21.4626 15.9375C21.2751 19.7875 19.9751 23.7125 17.7126 27.2C23.0126 26.025 27.0501 21.4875 27.4626 15.9375H21.4626ZM27.4626 14.0625C27.0501 8.5125 23.0126 3.97499 17.7126 2.79999C19.9751 6.28749 21.2751 10.2125 21.4626 14.0625H27.4626Z" fill="white"/>
</g>
</svg>
