<svg width="30" height="30" viewBox="0 0 30 30" fill="none" xmlns="http://www.w3.org/2000/svg">
<g id="code">
<path id="code_2" d="M8.75007 21.25C8.43007 21.25 8.11007 21.1275 7.86632 20.8837L2.86632 15.8837C2.37757 15.3962 2.37757 14.6037 2.86632 14.1162L7.86632 9.11624C8.35507 8.62749 9.14507 8.62749 9.63382 9.11624C10.1226 9.60374 10.1226 10.3962 9.63382 10.8837L5.51757 15L9.63382 19.1162C10.1226 19.6037 10.1226 20.3962 9.63382 20.8837C9.39007 21.1275 9.07007 21.25 8.75007 21.25ZM22.1338 20.8837L27.1338 15.8837C27.6226 15.3962 27.6226 14.6037 27.1338 14.1162L22.1338 9.11624C21.6451 8.62749 20.8551 8.62749 20.3663 9.11624C19.8776 9.60374 19.8776 10.3962 20.3663 10.8837L24.4826 15L20.3663 19.1162C19.8776 19.6037 19.8776 20.3962 20.3663 20.8837C20.6101 21.1275 20.9301 21.25 21.2501 21.25C21.5701 21.25 21.8901 21.1275 22.1338 20.8837ZM12.4213 25.4388L19.9213 5.43876C20.1638 4.79251 19.8363 4.07123 19.1901 3.82998C18.5426 3.58748 17.8238 3.91497 17.5801 4.56122L10.0801 24.5612C9.83756 25.2075 10.1651 25.9287 10.8113 26.17C10.9563 26.225 11.1038 26.25 11.2501 26.25C11.7563 26.25 12.2326 25.94 12.4213 25.4388Z" fill="white"/>
</g>
</svg>
