<svg width="17" height="17" viewBox="0 0 17 17" fill="none" xmlns="http://www.w3.org/2000/svg">
<g id="location-pin">
<path id="location-pin_2" d="M8.50003 1.77082C5.18007 1.77082 2.4792 4.4717 2.4792 7.79165C2.4792 11.3213 5.75807 13.4873 7.9277 14.9203L8.30311 15.1697C8.36261 15.2093 8.43131 15.2291 8.49931 15.2291C8.56731 15.2291 8.63603 15.2093 8.69553 15.1697L9.07094 14.9203C11.2406 13.4873 14.5194 11.3213 14.5194 7.79165C14.5209 4.4717 11.82 1.77082 8.50003 1.77082ZM8.50003 9.56248C7.52182 9.56248 6.7292 8.76986 6.7292 7.79165C6.7292 6.81345 7.52182 6.02082 8.50003 6.02082C9.47824 6.02082 10.2709 6.81345 10.2709 7.79165C10.2709 8.76986 9.47824 9.56248 8.50003 9.56248Z" fill="#717680"/>
</g>
</svg>
