<svg width="34" height="34" viewBox="0 0 34 34" fill="none" xmlns="http://www.w3.org/2000/svg">
<g id="users">
<path id="users_2" d="M27.8049 12.3986C27.3742 13.7515 26.2694 14.8495 24.9136 15.2731C22.7206 15.9588 20.6351 15.0181 19.5925 13.362C19.5103 13.2317 19.516 13.0674 19.5911 12.9328C20.2073 11.8335 20.5573 10.5641 20.5573 9.20835C20.5573 8.73801 20.5161 8.27898 20.434 7.8299C20.4071 7.68256 20.4524 7.52956 20.5671 7.43181C21.3534 6.76456 22.3707 6.37501 23.4615 6.37501C26.4592 6.37501 28.7966 9.28053 27.8049 12.3986ZM25.6559 17.3967H22.8509C22.61 17.3967 22.4258 17.5808 22.4258 17.8216C22.4258 17.935 22.4684 18.0484 22.5534 18.1192C22.5676 18.1334 22.5816 18.1474 22.5958 18.1616C24.5791 20.0741 25.5 22.8084 25.5 25.5284C25.5 26.0526 25.4718 26.5625 25.3868 27.03C25.3726 27.0923 25.3683 27.1448 25.3683 27.2015C25.3683 27.4423 25.5566 27.625 25.7833 27.625H27.8518C30.4443 27.625 31.875 26.2084 31.875 23.6301C31.875 20.7543 30.2459 17.3967 25.6559 17.3967ZM12.7642 3.54168C9.63338 3.54168 7.09755 6.07751 7.09755 9.20835C7.09755 12.3392 9.63338 14.875 12.7642 14.875C15.8809 14.875 18.4309 12.3392 18.4309 9.20835C18.4309 6.07751 15.8809 3.54168 12.7642 3.54168ZM15.5834 17.7084H9.9167C4.16503 17.7084 2.12503 21.9159 2.12503 25.5284C2.12503 28.7584 3.8392 30.4584 7.08337 30.4584H18.4167C21.6609 30.4584 23.375 28.7584 23.375 25.5284C23.375 21.9159 21.335 17.7084 15.5834 17.7084Z" fill="#717680"/>
</g>
</svg>
