<svg width="34" height="34" viewBox="0 0 34 34" fill="none" xmlns="http://www.w3.org/2000/svg">
<g id="laptop">
<path id="laptop_2" d="M28.3334 9.91665V20.1166C28.3334 20.3518 28.1435 20.5417 27.9083 20.5417H6.0918C5.85663 20.5417 5.66673 20.3518 5.66673 20.1166V9.91665C5.66673 7.08331 7.0834 5.66665 9.91673 5.66665H24.0834C26.9167 5.66665 28.3334 7.08331 28.3334 9.91665ZM29.325 22.6667H4.67513C4.43996 22.6667 4.25006 22.8566 4.25006 23.0917V24.0833C4.25006 25.9717 5.19498 26.9167 7.0834 26.9167H26.9167C28.8052 26.9167 29.7501 25.9717 29.7501 24.0833V23.0917C29.7501 22.8566 29.5602 22.6667 29.325 22.6667Z" fill="#717680"/>
</g>
</svg>
