<svg width="17" height="17" viewBox="0 0 17 17" fill="none" xmlns="http://www.w3.org/2000/svg">
<g id="location-pin">
<path id="location-pin_2" d="M8.50004 1.77086C5.18008 1.77086 2.4792 4.47174 2.4792 7.7917C2.4792 11.3213 5.75808 13.4874 7.92771 14.9203L8.30313 15.1697C8.36263 15.2094 8.43133 15.2292 8.49933 15.2292C8.56733 15.2292 8.63604 15.2094 8.69554 15.1697L9.07096 14.9203C11.2406 13.4874 14.5195 11.3213 14.5195 7.7917C14.5209 4.47174 11.82 1.77086 8.50004 1.77086ZM8.50004 9.56253C7.52183 9.56253 6.72921 8.76991 6.72921 7.7917C6.72921 6.81349 7.52183 6.02086 8.50004 6.02086C9.47825 6.02086 10.2709 6.81349 10.2709 7.7917C10.2709 8.76991 9.47825 9.56253 8.50004 9.56253Z" fill="#717680"/>
</g>
</svg>
