<svg width="30" height="30" viewBox="0 0 30 30" fill="none" xmlns="http://www.w3.org/2000/svg">
<g id="graduation-cap">
<path id="graduation-cap_2" d="M22.5 18.0235V20.8748C22.5 21.7423 22.0412 22.5436 21.3074 23.0073C17.1024 25.6636 12.8961 25.6636 8.69113 23.0073C7.95738 22.5448 7.49881 21.7423 7.49881 20.8748V18.0235C7.49881 17.9285 7.6 17.8687 7.68374 17.9137L12.2739 20.4248C13.0989 20.8748 14.0488 21.1124 14.9988 21.1124C15.9488 21.1124 16.8987 20.8748 17.7237 20.4248L22.3139 17.9137C22.3989 17.8674 22.5 17.9285 22.5 18.0235ZM24.9213 9.88112L16.8326 5.46736C15.6914 4.84486 14.3112 4.84486 13.1687 5.46736L5.07999 9.88112C3.30749 10.8474 3.30749 13.3924 5.07999 14.3599L13.1687 18.7736C14.3099 19.3961 15.6901 19.3961 16.8326 18.7736L24.9213 14.3599L24.0625 14.8286V19.9998C24.0625 20.5173 24.4825 20.9373 25 20.9373C25.5175 20.9373 25.9375 20.5173 25.9375 19.9998V13.3386C26.5675 12.1736 26.2325 10.5961 24.9213 9.88112Z" fill="white"/>
</g>
</svg>
