<svg width="30" height="30" viewBox="0 0 30 30" fill="none" xmlns="http://www.w3.org/2000/svg">
<g id="key">
<path id="key_2" d="M18.75 3.75C14.6125 3.75 11.25 7.1125 11.25 11.25C11.25 12.0125 11.3625 12.7375 11.575 13.425L3.75 21.25V26.25H8.75V22.5H12.5L16.575 18.425C17.2625 18.6375 17.9875 18.75 18.75 18.75C22.8875 18.75 26.25 15.3875 26.25 11.25C26.25 7.1125 22.8875 3.75 18.75 3.75ZM20.025 11.5625C19.1638 11.5625 18.4561 10.8625 18.4561 10C18.4561 9.1375 19.15 8.4375 20.0125 8.4375H20.025C20.8875 8.4375 21.5875 9.1375 21.5875 10C21.5875 10.8625 20.8875 11.5625 20.025 11.5625Z" fill="white"/>
</g>
</svg>
