<svg width="30" height="30" viewBox="0 0 30 30" fill="none" xmlns="http://www.w3.org/2000/svg">
<g id="whatsapp">
<path id="whatsapp_2" d="M15 3.75C8.7875 3.75 3.75 8.7875 3.75 15C3.75 17.0875 4.32501 19.05 5.32501 20.7375L3.75 26.25L9.26247 24.675C10.95 25.675 12.9125 26.25 15 26.25C21.2125 26.25 26.25 21.2125 26.25 15C26.25 8.7875 21.2125 3.75 15 3.75ZM21.025 19.3C20.7625 20.0375 19.5125 20.7125 18.95 20.775C18.3875 20.8375 17.8625 21.0375 15.2625 20.0125C12.1375 18.7625 10.15 15.5375 10 15.3375C9.85 15.1375 8.75 13.6625 8.75 12.1375C8.75 10.6125 9.53748 9.875 9.82498 9.55C10.1125 9.2375 10.45 9.1625 10.65 9.1625C10.8625 9.1625 11.0625 9.1625 11.25 9.175C11.4625 9.175 11.7125 9.17499 11.9375 9.69999C12.2125 10.3125 12.8 11.8375 12.875 11.975C12.95 12.125 13 12.3125 12.9 12.5125C12.7875 12.7125 12.7375 12.85 12.5875 13.025C12.4375 13.2 12.2625 13.425 12.125 13.5625C11.9625 13.7125 11.8125 13.875 11.9875 14.1875C12.175 14.4875 12.7875 15.5125 13.7 16.325C14.875 17.3875 15.8625 17.7125 16.175 17.8625C16.475 18.0125 16.6625 17.9875 16.8375 17.7875C17.025 17.5875 17.6125 16.8875 17.8125 16.575C18.0125 16.275 18.2125 16.325 18.5 16.425C18.7875 16.525 20.2875 17.2875 20.6 17.4375C20.9 17.6 21.1125 17.675 21.1875 17.8C21.2625 17.925 21.2625 18.55 21.0125 19.275L21.025 19.3Z" fill="white"/>
</g>
</svg>
