<svg width="267" height="201" viewBox="0 0 267 201" fill="none" xmlns="http://www.w3.org/2000/svg">
<g id="Group 1000002707" opacity="0.2">
<path id="Vector 2" d="M2.68097 2.9387L153.533 67.3198L170.066 145.048L261.117 194.714" stroke="#1C4CD0" stroke-width="2.95531"/>
<path id="Ellipse 7" d="M2.69961 2.27718C4.19504 1.0143 6.79591 1.21134 8.48068 3.206C10.1654 5.20098 9.92464 7.79876 8.42913 9.06172C6.93357 10.3244 4.33283 10.1264 2.64817 8.13152C0.963843 6.1367 1.20443 3.54015 2.69961 2.27718Z" fill="#1C4CD0" stroke="#1C4CD0" stroke-width="2.95531"/>
<path id="Ellipse 8" d="M150.349 63.5507C151.845 62.2878 154.446 62.4848 156.13 64.4795C157.815 66.4745 157.574 69.0723 156.079 70.3352C154.583 71.5979 151.983 71.3999 150.298 69.405C148.614 67.4102 148.854 64.8136 150.349 63.5507Z" fill="#1C4CD0" stroke="#1C4CD0" stroke-width="2.95531"/>
<path id="Ellipse 9" d="M169.13 143.255C170.625 141.993 173.226 142.19 174.911 144.184C176.596 146.179 176.355 148.777 174.86 150.04C173.364 151.303 170.763 151.105 169.079 149.11C167.394 147.115 167.635 144.518 169.13 143.255Z" fill="#1C4CD0" stroke="#1C4CD0" stroke-width="2.95531"/>
<path id="Ellipse 10" d="M258.57 191.699C260.066 190.436 262.667 190.633 264.351 192.628C266.036 194.623 265.795 197.221 264.3 198.484C262.804 199.746 260.204 199.548 258.519 197.553C256.835 195.559 257.075 192.962 258.57 191.699Z" fill="#1C4CD0" stroke="#1C4CD0" stroke-width="2.95531"/>
</g>
</svg>
