<svg width="44" height="44" viewBox="0 0 44 44" fill="none" xmlns="http://www.w3.org/2000/svg">
<g id="user-circle">
<path id="user-circle_2" d="M22 3.6665C11.8745 3.6665 3.66667 11.8743 3.66667 21.9998C3.66667 32.1253 11.8745 40.3332 22 40.3332C32.1255 40.3332 40.3333 32.1253 40.3333 21.9998C40.3333 11.8743 32.1255 3.6665 22 3.6665ZM22.0148 12.8332C25.0526 12.8332 27.5148 15.2953 27.5148 18.3332C27.5148 21.371 25.0526 23.8332 22.0148 23.8332C18.9769 23.8332 16.5148 21.371 16.5148 18.3332C16.5148 15.2953 18.9769 12.8332 22.0148 12.8332ZM22 37.5832C17.9483 37.5832 14.245 36.0249 11.4767 33.4765C12.2834 30.9465 14.3734 28.5447 18.8651 28.5447H25.1349C29.6083 28.5447 31.6983 30.9649 32.5233 33.4765C29.755 36.0249 26.0517 37.5832 22 37.5832Z" fill="#717680"/>
</g>
</svg>
