<svg width="30" height="30" viewBox="0 0 30 30" fill="none" xmlns="http://www.w3.org/2000/svg">
<g id="like">
<path id="like_2" d="M8.125 14.125V25.8749C8.125 26.0824 7.95744 26.25 7.74994 26.25H5.625C4.59 26.25 3.75 25.41 3.75 24.375V15.625C3.75 14.59 4.59 13.75 5.625 13.75H7.74994C7.95619 13.75 8.125 13.9175 8.125 14.125ZM22.3724 11.25H17.4976V7.20001C17.4976 5.95001 16.8724 4.77502 15.8224 4.08752C15.4849 3.86252 15.0974 3.75 14.7224 3.75C13.9349 3.75 13.1725 4.22504 12.8725 5.03754L10.0162 13.6925C10.0037 13.73 9.99756 13.77 9.99756 13.81V25.8749C9.99756 26.0824 10.165 26.25 10.3725 26.25H19.8712C22.3837 26.25 22.9212 25.2125 23.4337 23.6875L25.9337 16.1875C26.7474 13.7625 26.1349 11.25 22.3724 11.25Z" fill="white"/>
</g>
</svg>
