<svg width="30" height="30" viewBox="0 0 30 30" fill="none" xmlns="http://www.w3.org/2000/svg">
<g id="location-pin">
<path id="location-pin_2" d="M15 3.125C9.14125 3.125 4.375 7.89125 4.375 13.75C4.375 19.9788 10.1613 23.8012 13.99 26.33L14.6525 26.77C14.7575 26.84 14.8787 26.875 14.9987 26.875C15.1187 26.875 15.24 26.84 15.345 26.77L16.0075 26.33C19.8362 23.8012 25.6225 19.9788 25.6225 13.75C25.625 7.89125 20.8587 3.125 15 3.125ZM15 16.875C13.2738 16.875 11.875 15.4762 11.875 13.75C11.875 12.0238 13.2738 10.625 15 10.625C16.7262 10.625 18.125 12.0238 18.125 13.75C18.125 15.4762 16.7262 16.875 15 16.875Z" fill="white"/>
</g>
</svg>
