<svg width="30" height="30" viewBox="0 0 30 30" fill="none" xmlns="http://www.w3.org/2000/svg">
<g id="wallet">
<path id="wallet_2" d="M16.5625 17.5C16.5625 19.7375 18.3875 21.5625 20.625 21.5625H26.25V22.5C26.25 25 25 26.25 22.5 26.25H7.5C5 26.25 3.75 25 3.75 22.5V6.25C3.75 7.625 4.875 8.75 6.25 8.75H22.5C25 8.75 26.25 10 26.25 12.5V13.4375H20.625C18.3875 13.4375 16.5625 15.2625 16.5625 17.5ZM20.625 15.3125C19.425 15.3125 18.4375 16.3 18.4375 17.5C18.4375 18.7 19.425 19.6875 20.625 19.6875H26.25V15.3125H20.625ZM21.275 18.75C20.5875 18.75 20.0125 18.1875 20.0125 17.5C20.0125 16.8125 20.575 16.25 21.2625 16.25H21.275C21.9625 16.25 22.525 16.8125 22.525 17.5C22.525 18.1875 21.9625 18.75 21.275 18.75ZM18.75 3.75H7.1875C6.325 3.75 5.625 4.45 5.625 5.3125C5.625 6.175 6.325 6.875 7.1875 6.875H22.4625C22.275 4.7875 21.0375 3.75 18.75 3.75Z" fill="white"/>
</g>
</svg>
