<svg width="30" height="30" viewBox="0 0 30 30" fill="none" xmlns="http://www.w3.org/2000/svg">
<g id="instagram">
<path id="instagram_2" d="M26.175 10.3627C26.0875 8.56268 25.675 6.96269 24.3625 5.65019C23.05 4.33769 21.45 3.9252 19.65 3.8377C17.7875 3.7377 12.225 3.7377 10.375 3.8377C8.57503 3.9252 6.98754 4.33769 5.66254 5.65019C4.33754 6.96269 3.93752 8.56268 3.85002 10.3627C3.75002 12.2252 3.75002 17.7877 3.85002 19.6502C3.93752 21.4502 4.35004 23.0502 5.66254 24.3627C6.98754 25.6752 8.57503 26.0877 10.375 26.1752C12.2375 26.2752 17.8 26.2752 19.65 26.1752C21.45 26.0877 23.05 25.6752 24.3625 24.3627C25.675 23.0502 26.0875 21.4502 26.175 19.6502C26.275 17.7877 26.275 12.2252 26.175 10.3752V10.3627ZM15 20.9377C11.725 20.9377 9.06254 18.2752 9.06254 15.0002C9.06254 11.7252 11.725 9.06269 15 9.06269C18.275 9.06269 20.9375 11.7252 20.9375 15.0002C20.9375 18.2752 18.275 20.9377 15 20.9377ZM21.9 9.37519C21.2125 9.37519 20.65 8.81269 20.65 8.12519C20.65 7.43769 21.2 6.87519 21.9 6.87519C22.5875 6.87519 23.15 7.43769 23.15 8.12519C23.15 8.81269 22.5875 9.37519 21.9 9.37519ZM19.0625 15.0002C19.0625 17.2377 17.2375 19.0627 15 19.0627C12.7625 19.0627 10.9375 17.2377 10.9375 15.0002C10.9375 12.7627 12.7625 10.9377 15 10.9377C17.2375 10.9377 19.0625 12.7627 19.0625 15.0002Z" fill="white"/>
</g>
</svg>
