<svg width="30" height="30" viewBox="0 0 30 30" fill="none" xmlns="http://www.w3.org/2000/svg">
<g id="youtube">
<path id="youtube_2" d="M26.975 8.9875C26.6875 7.9125 25.8375 7.0625 24.7625 6.775C22.8125 6.25 15 6.25 15 6.25C15 6.25 7.1875 6.25 5.2375 6.775C4.1625 7.0625 3.31252 7.9125 3.02502 8.9875C2.50002 10.9375 2.5 15.0125 2.5 15.0125C2.5 15.0125 2.50002 19.0875 3.02502 21.0375C3.31252 22.1125 4.1625 22.925 5.2375 23.2125C7.1875 23.7375 15 23.7375 15 23.7375C15 23.7375 22.8125 23.7375 24.7625 23.2125C25.8375 22.925 26.6875 22.1125 26.975 21.0375C27.5 19.0875 27.5 15.0125 27.5 15.0125C27.5 15.0125 27.5 10.9375 26.975 8.9875ZM12.5 18.75V11.25L18.75 15L12.5 18.75Z" fill="white"/>
</g>
</svg>
