<svg width="6" height="7" viewBox="0 0 6 7" fill="none" xmlns="http://www.w3.org/2000/svg">
<g id="Group">
<path id="Vector" d="M0.438557 6.99991C0.327596 6.99688 0.235344 6.90997 0.227761 6.7973L0.146367 5.56567C0.138532 5.44591 0.229016 5.34258 0.34857 5.33475C0.468125 5.32616 0.571756 5.41736 0.579591 5.53686L0.660985 6.76824C0.66882 6.888 0.578336 6.99133 0.458782 6.99916C0.451957 6.99992 0.445129 7.00017 0.438557 6.99991ZM0.279071 4.58642C0.168111 4.58338 0.0758522 4.49648 0.0685222 4.3838L0.00684458 3.44852C-0.0914782 1.95945 0.878866 0.599986 2.31428 0.216223C3.32834 -0.0551149 4.36666 -0.071032 5.39968 0.16822C5.51646 0.195253 5.58925 0.311722 5.56221 0.428695C5.53516 0.545416 5.41788 0.617925 5.30161 0.591145C4.33785 0.36781 3.3708 0.382959 2.42625 0.635601C1.19077 0.966057 0.355401 2.13705 0.439822 3.41997L0.501499 4.35501C0.509588 4.47476 0.418851 4.57809 0.299296 4.58592C0.292472 4.58668 0.285643 4.58667 0.279071 4.58642Z" fill="#BDD0FB"/>
</g>
</svg>
