<svg width="16" height="27" viewBox="0 0 16 27" fill="none" xmlns="http://www.w3.org/2000/svg">
<g id="Group">
<path id="Vector" opacity="0.39" d="M14.4441 27H0.773182C0.346112 27 0 26.654 0 26.2272V0.772828C0 0.345953 0.346112 0 0.773182 0H14.4441C14.8711 0 15.2173 0.345953 15.2173 0.772828V26.2269C15.2173 26.6538 14.8711 27 14.4441 27Z" fill="white"/>
<path id="Vector_2" opacity="0.66" d="M13.4451 17.9318H1.1661C0.941082 17.9318 0.756883 17.7477 0.756883 17.5228C0.756883 17.2979 0.941082 17.1137 1.1661 17.1137H13.4451C13.6701 17.1137 13.8543 17.2979 13.8543 17.5228C13.8546 17.7477 13.6704 17.9318 13.4451 17.9318Z" fill="white"/>
<path id="Vector_3" opacity="0.66" d="M13.4451 21.9366H1.1661C0.941082 21.9366 0.756883 21.7525 0.756883 21.5276C0.756883 21.3027 0.941082 21.1186 1.1661 21.1186H13.4451C13.6701 21.1186 13.8543 21.3027 13.8543 21.5276C13.8546 21.7525 13.6704 21.9366 13.4451 21.9366Z" fill="white"/>
<path id="Vector_4" opacity="0.66" d="M13.4451 6.88638H1.1661C0.941082 6.88638 0.756883 6.70226 0.756883 6.47735C0.756883 6.25243 0.941082 6.06833 1.1661 6.06833H13.4451C13.6701 6.06833 13.8543 6.25243 13.8543 6.47735C13.8546 6.70226 13.6704 6.88638 13.4451 6.88638Z" fill="white"/>
<path id="Vector_5" opacity="0.66" d="M13.4451 10.568H1.1661C0.941082 10.568 0.756883 10.3839 0.756883 10.159C0.756883 9.93404 0.941082 9.74993 1.1661 9.74993H13.4451C13.6701 9.74993 13.8543 9.93404 13.8543 10.159C13.8546 10.3839 13.6704 10.568 13.4451 10.568Z" fill="white"/>
<path id="Vector_6" opacity="0.66" d="M13.7481 14.2499H1.46911C1.24409 14.2499 1.05991 14.0658 1.05991 13.8408C1.05991 13.6159 1.24409 13.4318 1.46911 13.4318H13.7481C13.9732 13.4318 14.1573 13.6159 14.1573 13.8408C14.1573 14.0658 13.9732 14.2499 13.7481 14.2499Z" fill="white"/>
</g>
</svg>
