<svg width="14" height="27" viewBox="0 0 14 27" fill="none" xmlns="http://www.w3.org/2000/svg">
<g id="Group">
<path id="Vector" opacity="0.39" d="M13.2187 26.688H0.781269C0.349732 26.688 0 26.3384 0 25.9071V0.780911C0 0.349572 0.349732 0 0.781269 0H13.2187C13.6503 0 14 0.349572 14 0.780911V25.9071C14 26.3384 13.6503 26.688 13.2187 26.688Z" fill="white"/>
<path id="Vector_2" opacity="0.66" d="M12.3419 17.7244H1.10103C0.878579 17.7244 0.696452 17.5424 0.696452 17.3201C0.696452 17.0977 0.878579 16.9156 1.10103 16.9156H12.3419C12.5643 16.9156 12.7464 17.0977 12.7464 17.3201C12.7464 17.5426 12.5643 17.7244 12.3419 17.7244Z" fill="white"/>
<path id="Vector_3" opacity="0.66" d="M12.3419 21.6831H1.10103C0.878579 21.6831 0.696452 21.5011 0.696452 21.2788C0.696452 21.0564 0.878579 20.8743 1.10103 20.8743H12.3419C12.5643 20.8743 12.7464 21.0564 12.7464 21.2788C12.7464 21.5013 12.5643 21.6831 12.3419 21.6831Z" fill="white"/>
<path id="Vector_4" opacity="0.66" d="M12.3419 6.80646H1.10103C0.878579 6.80646 0.696452 6.62443 0.696452 6.40208C0.696452 6.17973 0.878579 5.99767 1.10103 5.99767H12.3419C12.5643 5.99767 12.7464 6.17973 12.7464 6.40208C12.7464 6.62466 12.5643 6.80646 12.3419 6.80646Z" fill="white"/>
<path id="Vector_5" opacity="0.66" d="M12.3419 10.4458H1.10103C0.878579 10.4458 0.696452 10.2638 0.696452 10.0415C0.696452 9.81911 0.878579 9.63707 1.10103 9.63707H12.3419C12.5643 9.63707 12.7464 9.81911 12.7464 10.0415C12.7464 10.264 12.5643 10.4458 12.3419 10.4458Z" fill="white"/>
<path id="Vector_6" opacity="0.66" d="M12.6205 14.0852H1.37967C1.15722 14.0852 0.975082 13.9031 0.975082 13.6807C0.975082 13.4584 1.15722 13.2764 1.37967 13.2764H12.6205C12.8429 13.2764 13.0251 13.4584 13.0251 13.6807C13.0248 13.9033 12.8429 14.0852 12.6205 14.0852Z" fill="white"/>
</g>
</svg>
