<svg width="16" height="27" viewBox="0 0 16 27" fill="none" xmlns="http://www.w3.org/2000/svg">
<g id="Group">
<path id="Vector" opacity="0.39" d="M14.4441 27H0.773175C0.346105 27 0 26.654 0 26.2272V0.772828C0 0.345953 0.346105 0 0.773175 0H14.4441C14.8711 0 15.2172 0.345953 15.2172 0.772828V26.2269C15.2172 26.654 14.8711 27 14.4441 27Z" fill="white"/>
<path id="Vector_2" opacity="0.66" d="M13.4451 17.9317H1.16609C0.941068 17.9317 0.756883 17.7476 0.756883 17.5227C0.756883 17.2978 0.941068 17.1137 1.16609 17.1137H13.4451C13.6701 17.1137 13.8543 17.2978 13.8543 17.5227C13.8543 17.7476 13.6701 17.9317 13.4451 17.9317Z" fill="white"/>
<path id="Vector_3" opacity="0.66" d="M13.4451 21.9369H1.16609C0.941068 21.9369 0.756883 21.7528 0.756883 21.5279C0.756883 21.303 0.941068 21.1189 1.16609 21.1189H13.4451C13.6701 21.1189 13.8543 21.303 13.8543 21.5279C13.8543 21.7528 13.6701 21.9369 13.4451 21.9369Z" fill="white"/>
<path id="Vector_4" opacity="0.66" d="M13.4451 6.88636H1.16609C0.941068 6.88636 0.756883 6.70226 0.756883 6.47735C0.756883 6.25243 0.941068 6.06833 1.16609 6.06833H13.4451C13.6701 6.06833 13.8543 6.25243 13.8543 6.47735C13.8543 6.70226 13.6701 6.88636 13.4451 6.88636Z" fill="white"/>
<path id="Vector_5" opacity="0.66" d="M13.4451 10.5682H1.16609C0.941068 10.5682 0.756883 10.3841 0.756883 10.1592C0.756883 9.93429 0.941068 9.75018 1.16609 9.75018H13.4451C13.6701 9.75018 13.8543 9.93429 13.8543 10.1592C13.8543 10.3841 13.6701 10.5682 13.4451 10.5682Z" fill="white"/>
<path id="Vector_6" opacity="0.66" d="M13.748 14.2501H1.46899C1.24397 14.2501 1.05978 14.066 1.05978 13.841C1.05978 13.6161 1.24397 13.432 1.46899 13.432H13.748C13.973 13.432 14.1572 13.6161 14.1572 13.841C14.1572 14.066 13.973 14.2501 13.748 14.2501Z" fill="white"/>
</g>
</svg>
