<svg width="19" height="30" viewBox="0 0 19 30" fill="none" xmlns="http://www.w3.org/2000/svg">
<g id="Group">
<path id="Vector" d="M0.0723583 0.525784C0.0328192 0.480978 0.00661369 0.423535 0.00109662 0.359429C-0.0126961 0.200885 0.105233 0.0609534 0.263849 0.0473968C0.5066 0.0267173 0.750497 0.0106328 0.995547 0.000293006C1.15485 -0.00682995 1.28956 0.116787 1.296 0.27602C1.3029 0.435022 1.17944 0.569669 1.02037 0.576562C0.783593 0.586902 0.547975 0.602068 0.31304 0.622288C0.21879 0.6301 0.130977 0.591729 0.0723583 0.525784Z" fill="white"/>
<path id="Vector_2" d="M15.172 27.5195C15.0834 27.4195 15.0736 27.2683 15.1566 27.1567C15.4428 26.7711 15.7147 26.369 15.9655 25.9611C16.0489 25.8256 16.2266 25.7831 16.3625 25.8662C16.4986 25.9501 16.5406 26.1273 16.4572 26.2628C16.1977 26.6847 15.9161 27.1013 15.6198 27.5004C15.5248 27.6281 15.3444 27.655 15.2163 27.5601C15.2 27.548 15.1851 27.5344 15.172 27.5195ZM16.7098 25.0191C16.6342 24.9336 16.6135 24.8075 16.6678 24.699C16.882 24.2707 17.0802 23.8272 17.2569 23.3808C17.3156 23.2328 17.4829 23.1602 17.6312 23.2188C17.7788 23.2779 17.8519 23.4449 17.7933 23.5931C17.6107 24.0547 17.4057 24.5136 17.1838 24.957C17.1126 25.0995 16.9393 25.1572 16.797 25.0859C16.7629 25.0689 16.7337 25.046 16.7098 25.0191ZM17.7896 22.2903C17.7257 22.2181 17.6992 22.1157 17.7289 22.0166C17.8654 21.5587 17.9843 21.0872 18.082 20.6159C18.1144 20.4599 18.2668 20.36 18.4229 20.3921C18.579 20.4241 18.6794 20.5769 18.6468 20.7329C18.5459 21.2205 18.4231 21.7076 18.2817 22.1814C18.2362 22.334 18.0755 22.4208 17.9227 22.3755C17.8696 22.3592 17.8241 22.3291 17.7896 22.2903ZM18.3847 19.4154C18.3321 19.3559 18.3043 19.2752 18.3144 19.1902C18.3712 18.7118 18.408 18.2275 18.4234 17.7505C18.4284 17.5914 18.5617 17.4664 18.7208 17.4717C18.8801 17.477 19.0049 17.6101 18.9999 17.7693C18.9838 18.2626 18.9461 18.7637 18.8872 19.2584C18.8684 19.4165 18.7252 19.5294 18.567 19.5105C18.4937 19.5018 18.4302 19.4666 18.3847 19.4154ZM2.26154 0.480271C2.21373 0.426274 2.18591 0.354124 2.18935 0.27646C2.19625 0.117458 2.33096 -0.00570002 2.49027 0.00119316C2.98474 0.0230216 3.48565 0.0669085 3.97874 0.131475C4.13666 0.152154 4.24792 0.29691 4.22746 0.454764C4.207 0.612618 4.06218 0.72383 3.90425 0.703151C3.42725 0.640882 2.94289 0.598601 2.46475 0.577462C2.38337 0.573786 2.31142 0.536795 2.26154 0.480271ZM18.4792 16.4835C18.4376 16.4366 18.4109 16.3759 18.4073 16.3084C18.3808 15.8286 18.333 15.3456 18.2657 14.8728C18.2431 14.7151 18.3525 14.5692 18.5105 14.5465C18.6682 14.524 18.8141 14.6336 18.8367 14.7912C18.9066 15.2804 18.9557 15.7804 18.9833 16.2765C18.9921 16.4355 18.8702 16.5715 18.7114 16.5802C18.6197 16.5855 18.5355 16.5471 18.4792 16.4835ZM5.17341 0.861232C5.11456 0.794598 5.0872 0.70177 5.10743 0.608252C5.14146 0.452696 5.29525 0.354355 5.45088 0.388132C5.93523 0.494057 6.42141 0.622497 6.89565 0.769552C7.04783 0.816885 7.13312 0.978187 7.08577 1.1303C7.03864 1.28218 6.87704 1.36742 6.72486 1.32009C6.26602 1.17786 5.79615 1.05378 5.32766 0.951302C5.26559 0.937975 5.21271 0.905348 5.17341 0.861232ZM18.064 13.5801C18.0335 13.5454 18.0105 13.5031 17.9992 13.4546C17.8905 12.9886 17.7597 12.5211 17.6103 12.0647C17.5608 11.9133 17.6434 11.7504 17.7949 11.701C17.9461 11.6518 18.1087 11.7341 18.1588 11.8855C18.3132 12.3577 18.4484 12.8416 18.5611 13.3234C18.5971 13.4785 18.5008 13.6336 18.3457 13.6699C18.2388 13.695 18.1319 13.6568 18.064 13.5801ZM7.97723 1.73299C7.90666 1.65349 7.88321 1.53768 7.92596 1.43268C7.98619 1.28539 8.15469 1.21462 8.30204 1.27505C8.76134 1.46255 9.21788 1.67302 9.6597 1.90026C9.802 1.97241 9.85717 2.14681 9.7843 2.28858C9.71142 2.43012 9.53764 2.48573 9.39604 2.41289C8.96916 2.19323 8.52755 1.99011 8.08412 1.80882C8.04159 1.79135 8.00551 1.76516 7.97723 1.73299ZM17.1521 10.792C17.1321 10.7693 17.1153 10.7431 17.1027 10.7139C16.9149 10.2739 16.7055 9.83547 16.4797 9.41177C16.4048 9.27115 16.4581 9.09652 16.5988 9.02161C16.7393 8.94693 16.9133 9.00047 16.9889 9.14063C17.2225 9.57927 17.4392 10.0324 17.6333 10.488C17.6956 10.6346 17.6275 10.804 17.4811 10.8662C17.3638 10.9159 17.2321 10.8823 17.1521 10.792ZM10.5875 3.07647C10.5047 2.98295 10.4896 2.84256 10.5597 2.73158C10.6447 2.59693 10.8227 2.55673 10.9574 2.64174C11.3776 2.90667 11.7907 3.1932 12.1856 3.49328C12.3134 3.58909 12.3371 3.77062 12.2408 3.89722C12.1442 4.02406 11.9633 4.04864 11.8367 3.95236C11.4551 3.66262 11.0558 3.38575 10.6498 3.12955C10.6259 3.11439 10.6052 3.09646 10.5875 3.07647ZM15.7733 8.20178C15.7639 8.19121 15.7552 8.17949 15.7471 8.16755C15.4853 7.76407 15.2034 7.36817 14.9097 6.99088C14.8117 6.86519 14.8343 6.68413 14.9602 6.58625C15.086 6.4886 15.268 6.51157 15.3651 6.6368C15.669 7.02695 15.9602 7.43641 16.2312 7.85368C16.3179 7.98718 16.2797 8.16594 16.1462 8.25256C16.0246 8.33114 15.8664 8.30702 15.7733 8.20178ZM12.9247 4.85239C12.8283 4.7437 12.8274 4.57781 12.9272 4.46774C13.0345 4.34964 13.2166 4.34091 13.3348 4.44798C13.7026 4.78161 14.0598 5.13501 14.397 5.49851C14.4991 5.61592 14.4984 5.79767 14.3816 5.90589C14.2646 6.01435 14.0821 6.00745 13.9738 5.89073C13.6481 5.53941 13.3026 5.19773 12.947 4.87513C12.9391 4.86778 12.9316 4.8602 12.9247 4.85239Z" fill="white"/>
<path id="Vector_3" d="M13.7453 29.2012C13.6465 29.0895 13.6488 28.9188 13.754 28.8099C13.9178 28.6403 14.0784 28.4671 14.2352 28.2906C14.3408 28.1713 14.5231 28.1605 14.6423 28.2662C14.7618 28.371 14.7724 28.5541 14.6664 28.6732C14.5042 28.8561 14.3381 29.0351 14.1687 29.2104C14.058 29.3248 13.8756 29.328 13.7609 29.2175C13.7554 29.2122 13.7501 29.2067 13.7453 29.2012Z" fill="white"/>
</g>
</svg>
