<svg width="21" height="29" viewBox="0 0 21 29" fill="none" xmlns="http://www.w3.org/2000/svg">
<g id="Group">
<path id="Vector" d="M19.3911 28.7621C19.3537 28.7199 19.3282 28.6668 19.3206 28.6067C19.2999 28.4474 19.4124 28.3013 19.5718 28.2809C19.8089 28.2503 20.0446 28.2146 20.2789 28.1745C20.4376 28.1467 20.5881 28.2533 20.6153 28.4117C20.6426 28.5701 20.5364 28.7206 20.3779 28.7479C20.1353 28.7899 19.8915 28.8268 19.6463 28.8583C19.547 28.8711 19.4528 28.8319 19.3911 28.7621Z" fill="white"/>
<path id="Vector_2" d="M4.38475 23.138C4.06809 22.7805 3.76257 22.4057 3.477 22.0243C3.38072 21.8954 3.40694 21.7133 3.53569 21.6169C3.66444 21.5204 3.84632 21.5459 3.94329 21.6753C4.21913 22.0442 4.51444 22.4064 4.82066 22.7522L4.88145 22.8203C4.88215 22.821 4.88261 22.8217 4.88331 22.8224C4.98909 22.9419 4.97911 23.1243 4.8601 23.2315C4.74086 23.3391 4.55667 23.3296 4.44902 23.2101L4.38475 23.138ZM5.50038 24.2851C5.40202 24.1741 5.40249 24.0041 5.50619 23.8935C5.61615 23.7762 5.80035 23.7704 5.91773 23.88C6.27638 24.2163 6.65475 24.5407 7.04217 24.844C7.17023 24.9414 7.1911 25.1257 7.09181 25.2525C6.99275 25.3789 6.80972 25.4012 6.68306 25.3022C6.28195 24.9882 5.89059 24.6524 5.51917 24.3048C5.51268 24.2986 5.50642 24.2919 5.50038 24.2851ZM2.64324 20.7986C2.63233 20.7863 2.62259 20.7731 2.61355 20.7587C2.34421 20.3249 2.09203 19.8752 1.86375 19.4226C1.79137 19.2791 1.84915 19.1042 1.99252 19.0319C2.13588 18.9598 2.3108 19.0182 2.38341 19.1608C2.60403 19.5981 2.84762 20.0327 3.10791 20.4521C3.19281 20.5887 3.15082 20.768 3.01394 20.8528C2.89192 20.9287 2.73534 20.9027 2.64324 20.7986ZM7.87059 26.1423C7.78592 26.0467 7.77153 25.9032 7.84461 25.791C7.9323 25.6562 8.11256 25.618 8.24734 25.7054C8.66028 25.9737 9.08993 26.2264 9.52421 26.4565C9.66595 26.5316 9.72023 26.7078 9.64483 26.85C9.56967 26.9916 9.39313 27.0459 9.25138 26.9706C8.80226 26.7322 8.35777 26.4708 7.93022 26.1933C7.90748 26.1787 7.88776 26.1615 7.87059 26.1423ZM1.28657 18.1115C1.265 18.0872 1.2469 18.0587 1.23414 18.0267C1.0453 17.5536 0.875486 17.0669 0.729798 16.5804C0.683401 16.4267 0.771093 16.2644 0.9249 16.2182C1.07871 16.1721 1.24157 16.2586 1.28727 16.4135C1.42831 16.8835 1.59234 17.3538 1.77514 17.811C1.83476 17.9601 1.76192 18.1296 1.61275 18.1892C1.49513 18.2356 1.36568 18.2008 1.28657 18.1115ZM10.5312 27.5528C10.4593 27.4716 10.4359 27.3534 10.4809 27.2467C10.5433 27.0985 10.7138 27.0292 10.8621 27.0916C11.3154 27.2824 11.7831 27.4554 12.2517 27.6057C12.4045 27.6548 12.4888 27.8188 12.4398 27.9716C12.3906 28.1248 12.2266 28.209 12.0735 28.1599C11.5886 28.0043 11.1052 27.8253 10.6361 27.6277C10.5946 27.6103 10.5593 27.5843 10.5312 27.5528ZM0.421733 15.2295C0.389023 15.1926 0.36536 15.1472 0.354689 15.0955C0.25215 14.5965 0.170484 14.0877 0.112719 13.5834C0.0943923 13.4238 0.208768 13.2796 0.368607 13.2611C0.528214 13.2427 0.672499 13.3573 0.691058 13.5171C0.746967 14.0042 0.82585 14.4958 0.925141 14.9781C0.957387 15.1356 0.856006 15.2893 0.698719 15.3218C0.592701 15.3436 0.488545 15.3049 0.421733 15.2295ZM13.3988 28.4727C13.3388 28.405 13.3112 28.3101 13.3327 28.2151C13.3685 28.0583 13.5243 27.9602 13.6812 27.9959C13.8999 28.0458 14.1208 28.091 14.3433 28.1323C14.6091 28.1817 14.8741 28.2246 15.139 28.261C15.2981 28.283 15.4092 28.4298 15.3877 28.5888C15.3659 28.7479 15.219 28.8592 15.0596 28.8374C14.7859 28.7996 14.5091 28.7551 14.237 28.7046C14.0069 28.6619 13.7784 28.6148 13.552 28.5633C13.4905 28.5494 13.4378 28.5167 13.3988 28.4727ZM0.0786235 12.2413C0.034778 12.1919 0.00762948 12.1272 0.00577359 12.056C-0.00744967 11.5491 0.00206395 11.0336 0.0340781 10.5244C0.0442856 10.3639 0.182316 10.242 0.342851 10.2522C0.503386 10.2624 0.625414 10.4004 0.615207 10.5606C0.58412 11.0529 0.575295 11.5507 0.587822 12.0407C0.591998 12.2014 0.464873 12.3349 0.304338 12.3391C0.214791 12.3419 0.133604 12.3034 0.0786235 12.2413ZM16.3827 28.8812C16.3339 28.8263 16.3059 28.753 16.3101 28.6739C16.3179 28.5135 16.4543 28.3899 16.6151 28.3978C17.1067 28.4221 17.605 28.4244 18.0961 28.405C18.2569 28.3987 18.3921 28.5239 18.3984 28.6841C18.4047 28.8448 18.2796 28.98 18.1191 28.9865C17.6108 29.0067 17.0951 29.0041 16.5863 28.9791C16.5047 28.9749 16.4328 28.9378 16.3827 28.8812ZM0.266759 9.23771C0.211546 9.17533 0.183475 9.09 0.196698 9.00142C0.226161 8.80664 0.2591 8.6114 0.29529 8.41616C0.352127 8.11123 0.417783 7.8026 0.490859 7.49837C0.528673 7.34208 0.685723 7.24585 0.842082 7.28365C0.998673 7.32121 1.09495 7.4782 1.05713 7.63448C0.986147 7.92874 0.922587 8.2274 0.867838 8.52235C0.832808 8.7111 0.800791 8.89985 0.772489 9.08814C0.748362 9.24698 0.600122 9.35643 0.441443 9.33231C0.371151 9.32188 0.310605 9.2871 0.266759 9.23771ZM0.973623 6.31184C0.90681 6.23647 0.881065 6.12842 0.915399 6.02616C1.07756 5.54385 1.26338 5.06269 1.46753 4.59661C1.53202 4.44937 1.70369 4.38236 1.85077 4.44682C1.99854 4.51059 2.06535 4.68264 2.00063 4.82989C1.80321 5.28043 1.62388 5.74512 1.46729 6.2112C1.41602 6.36378 1.25085 6.44563 1.09844 6.39462C1.04856 6.37769 1.0061 6.3487 0.973623 6.31184ZM2.18159 3.55431C2.10248 3.46504 2.08368 3.33217 2.14423 3.22156C2.38898 2.77542 2.65692 2.33462 2.94017 1.9119C3.02949 1.77834 3.21021 1.74286 3.34407 1.83213C3.4763 1.92233 3.51342 2.10227 3.42387 2.23607C3.15013 2.64464 2.89123 3.07037 2.65483 3.50167C2.57758 3.64266 2.40058 3.69414 2.25953 3.61692C2.22914 3.59999 2.20316 3.57866 2.18159 3.55431Z" fill="white"/>
<path id="Vector_3" d="M3.8683 1.03889C3.77578 0.93431 3.76951 0.775471 3.86017 0.663473C4.0153 0.471475 4.17438 0.283187 4.33693 0.0986102C4.44313 -0.0219677 4.62701 -0.0335617 4.74759 0.0726397C4.86654 0.180464 4.87999 0.362721 4.77356 0.483299C4.61634 0.661848 4.46261 0.844108 4.31281 1.02938C4.21171 1.15436 4.02852 1.17384 3.90354 1.07297C3.89079 1.06207 3.87896 1.05095 3.8683 1.03889Z" fill="white"/>
</g>
</svg>
