<svg width="16" height="29" viewBox="0 0 16 29" fill="none" xmlns="http://www.w3.org/2000/svg">
<g id="Group">
<path id="Vector" opacity="0.39" d="M14.4398 29H0.772951C0.346009 29 0 28.6542 0 28.2274V0.77259C0 0.345843 0.346009 0 0.772951 0H14.4398C14.8667 0 15.2127 0.345843 15.2127 0.77259V28.2274C15.2127 28.6539 14.8667 29 14.4398 29Z" fill="white"/>
<path id="Vector_2" opacity="0.66" d="M13.4106 19.2599H1.19598C0.954335 19.2599 0.756287 19.0622 0.756287 18.8204C0.756287 18.5787 0.954103 18.381 1.19598 18.381H13.4106C13.6524 18.381 13.8503 18.5787 13.8503 18.8204C13.8503 19.0622 13.6524 19.2599 13.4106 19.2599Z" fill="white"/>
<path id="Vector_3" opacity="0.66" d="M13.4106 23.5617H1.19598C0.954335 23.5617 0.756287 23.3639 0.756287 23.1222C0.756287 22.8804 0.954103 22.6827 1.19598 22.6827H13.4106C13.6524 22.6827 13.8503 22.8804 13.8503 23.1222C13.8503 23.3639 13.6524 23.5617 13.4106 23.5617Z" fill="white"/>
<path id="Vector_4" opacity="0.66" d="M13.4106 7.39633H1.19598C0.954335 7.39633 0.756287 7.19861 0.756287 6.95684C0.756287 6.71507 0.954103 6.51734 1.19598 6.51734H13.4106C13.6524 6.51734 13.8503 6.71507 13.8503 6.95684C13.8503 7.19861 13.6524 7.39633 13.4106 7.39633Z" fill="white"/>
<path id="Vector_5" opacity="0.66" d="M13.4106 11.3509H1.19598C0.954335 11.3509 0.756287 11.1532 0.756287 10.9114C0.756287 10.6696 0.954103 10.4719 1.19598 10.4719H13.4106C13.6524 10.4719 13.8503 10.6696 13.8503 10.9114C13.8503 11.1532 13.6524 11.3509 13.4106 11.3509Z" fill="white"/>
<path id="Vector_6" opacity="0.66" d="M13.7135 15.3054H1.49895C1.25707 15.3054 1.05922 15.1077 1.05922 14.8659C1.05922 14.6241 1.25707 14.4264 1.49895 14.4264H13.7135C13.9552 14.4264 14.153 14.6241 14.153 14.8659C14.153 15.1077 13.9552 15.3054 13.7135 15.3054Z" fill="white"/>
</g>
</svg>
