<svg width="484" height="306" viewBox="0 0 484 306" fill="none" xmlns="http://www.w3.org/2000/svg">
<path id="Vector" d="M126.4 7.92053C119.857 11.9086 108.054 21.1446 97.7576 34.9216C90.097 45.1718 87.3554 51.7417 80.243 53.3949C75.0298 54.6066 69.1586 52.4126 61.1036 47.5316C43.8696 37.0885 23.6246 44.1043 8.97253 71.9106C-5.67955 99.717 -0.153177 126.046 26.8926 157.243C46.6853 180.073 20.0684 180.324 4.6809 219.889C-10.7064 259.454 10.9948 303.84 82.3965 303.311C153.896 302.782 261.979 303.796 261.981 303.796C318.431 304.325 379.336 314.043 431.811 286.687C450.774 276.802 467.541 261.556 476.848 241.929C489.138 216.012 485.032 183.448 468.793 160.126C457.968 144.581 442.385 149.058 429.397 138.827C415.839 128.147 407.684 116.554 427.069 97.5475C446.455 78.5409 461.295 65.7347 451.495 40.5527C437.434 4.42444 403.314 -0.237242 365.827 15.0762C328.341 30.3897 283.111 53.2635 249.709 43.3014C215.534 33.1085 212.188 5.59118 170.407 0.901056C161.118 -0.142059 142.971 -2.17921 126.4 7.92053Z" fill="url(#paint0_linear_8949_13008)"/>
<defs>
<linearGradient id="paint0_linear_8949_13008" x1="-8.40963e-05" y1="152.949" x2="484" y2="152.949" gradientUnits="userSpaceOnUse">
<stop stop-color="#DAE3FE"/>
<stop offset="1" stop-color="#E9EFFD"/>
</linearGradient>
</defs>
</svg>
