<svg width="16" height="13" viewBox="0 0 16 13" fill="none" xmlns="http://www.w3.org/2000/svg">
<g id="Group">
<path id="Vector" d="M13.4358 12.8331C13.4269 12.8333 13.4183 12.8336 13.4094 12.8338L3.79925 12.9995C2.41436 13.0233 1.24571 12.1261 1.08039 10.9127L0.0151632 3.09103C-0.0481154 2.62564 0.0880187 2.16072 0.398107 1.78123C0.744621 1.35715 1.27886 1.08292 1.86401 1.02807C2.67309 0.952917 3.78664 0.830387 5.01182 0.696185C7.67979 0.40351 10.7034 0.0713954 12.4834 0.00254437C12.4967 0.00207758 12.5095 0.00136749 12.5226 0.0011341C13.7961 -0.0327079 14.9136 0.693848 15.248 1.77819C15.8 3.56855 15.8518 6.97983 15.8586 10.6149C15.8609 11.8073 14.7766 12.7976 13.4358 12.8331ZM1.9392 1.78799C1.56444 1.823 1.22678 1.99339 1.01196 2.25619C0.835665 2.47185 0.757678 2.73301 0.792937 2.99067L1.85817 10.8122C1.97071 11.6412 2.79941 12.2531 3.78571 12.2363L13.3957 12.0706C13.4017 12.0704 13.4083 12.0701 13.4146 12.0701C14.3332 12.0456 15.0762 11.3968 15.0748 10.6161C15.0682 7.03981 15.019 3.68945 14.4971 1.99689C14.2657 1.24769 13.4148 0.709257 12.5151 0.764805C10.7636 0.832489 7.6233 1.17744 5.10009 1.45402C3.86978 1.58962 2.75155 1.71214 1.9392 1.78799Z" fill="#BDD0FB"/>
</g>
</svg>
