<svg width="16" height="29" viewBox="0 0 16 29" fill="none" xmlns="http://www.w3.org/2000/svg">
<g id="Group">
<path id="Vector" opacity="0.39" d="M14.4398 29H0.772951C0.346009 29 0 28.6542 0 28.2274V0.772597C0 0.34585 0.346009 0 0.772951 0H14.4398C14.8667 0 15.2127 0.34585 15.2127 0.772597V28.2274C15.2127 28.6542 14.8667 29 14.4398 29Z" fill="white"/>
<path id="Vector_2" opacity="0.66" d="M13.4108 19.2602H1.19623C0.95435 19.2602 0.756534 19.0625 0.756534 18.8207C0.756534 18.5789 0.95435 18.3812 1.19623 18.3812H13.4108C13.6527 18.3812 13.8505 18.5789 13.8505 18.8207C13.8503 19.0625 13.6527 19.2602 13.4108 19.2602Z" fill="white"/>
<path id="Vector_3" opacity="0.66" d="M13.4108 23.5619H1.19623C0.95435 23.5619 0.756534 23.3642 0.756534 23.1224C0.756534 22.8809 0.95435 22.6832 1.19623 22.6832H13.4108C13.6527 22.6832 13.8505 22.8809 13.8505 23.1224C13.8503 23.3642 13.6527 23.5619 13.4108 23.5619Z" fill="white"/>
<path id="Vector_4" opacity="0.66" d="M13.4108 7.39658H1.19623C0.95435 7.39658 0.756534 7.19885 0.756534 6.95709C0.756534 6.71532 0.95435 6.51759 1.19623 6.51759H13.4108C13.6527 6.51759 13.8505 6.71532 13.8505 6.95709C13.8503 7.19885 13.6527 7.39658 13.4108 7.39658Z" fill="white"/>
<path id="Vector_5" opacity="0.66" d="M13.4108 11.3511H1.19623C0.95435 11.3511 0.756534 11.1534 0.756534 10.9116C0.756534 10.6699 0.95435 10.4721 1.19623 10.4721H13.4108C13.6527 10.4721 13.8505 10.6699 13.8505 10.9116C13.8503 11.1534 13.6527 11.3511 13.4108 11.3511Z" fill="white"/>
<path id="Vector_6" opacity="0.66" d="M13.7134 15.3057H1.49879C1.25691 15.3057 1.0591 15.108 1.0591 14.8662C1.0591 14.6244 1.25691 14.4267 1.49879 14.4267H13.7134C13.9553 14.4267 14.1531 14.6244 14.1531 14.8662C14.1531 15.108 13.9553 15.3057 13.7134 15.3057Z" fill="white"/>
</g>
</svg>
