<svg width="8" height="7" viewBox="0 0 8 7" fill="none" xmlns="http://www.w3.org/2000/svg">
<path id="Vector" d="M6.60441 6.77825C6.60041 6.77825 6.59641 6.77802 6.59217 6.77802L1.66623 6.60526C0.955797 6.58031 0.381706 6.0764 0.330607 5.4329L0.00281664 1.28969C-0.0167279 1.04303 0.0659331 0.801547 0.235476 0.610192C0.4248 0.396242 0.706667 0.266062 1.00808 0.253117C1.42369 0.235229 2.00955 0.200393 2.6298 0.163675C4.00404 0.081767 5.56149 -0.010949 6.47491 0.00105483C7.1366 0.010705 7.69985 0.424958 7.84255 1.01103C8.07567 1.96851 8.00715 3.76411 7.90943 5.67648C7.8774 6.30421 7.29318 6.79637 6.60441 6.77825ZM1.0255 0.656795C0.833112 0.665033 0.655334 0.745521 0.538302 0.877798C0.442228 0.986303 0.395129 1.12118 0.405961 1.25746L0.733737 5.40063C0.768352 5.83912 1.17527 6.18301 1.68013 6.20066L6.60605 6.37342C6.60888 6.37342 6.61195 6.37365 6.61478 6.37365C7.08573 6.38613 7.48416 6.06533 7.50512 5.65485C7.60119 3.77355 7.66923 2.01017 7.44906 1.10541C7.35275 0.709754 6.94844 0.416943 6.48455 0.404704C6.4796 0.404704 6.47442 0.404474 6.46924 0.404474C5.57066 0.392941 3.95318 0.488969 2.65358 0.566405C2.03192 0.604064 1.44441 0.638907 1.0255 0.656795Z" fill="white"/>
</svg>
