<svg width="329" height="201" viewBox="0 0 329 201" fill="none" xmlns="http://www.w3.org/2000/svg">
<g id="Group">
<path id="Vector" d="M324.729 195.152C324.729 198.307 322.144 200.889 318.984 200.889H8.32962C5.16993 200.889 2.58484 198.307 2.58484 195.152L0 16.7091C0 13.5538 3.71891 7.39423 10.5348 7.85716L314.141 0.00484941C318.106 -0.0976149 321.939 1.4274 324.746 4.2245C327.553 7.02136 329.089 10.8456 328.996 14.8045L324.729 195.152Z" fill="url(#paint0_linear_8949_13344)"/>
<path id="Vector_2" d="M319.058 189.649C319.058 192.636 316.612 195.081 313.623 195.081H15.8213C12.8322 195.081 10.3864 192.636 10.3864 189.649L7.94702 27.6564C8.23433 17.9081 16.7848 14.4045 21.9681 14.6115L312.956 6.80836C315.741 6.73369 318.435 7.80543 320.406 9.77293C322.378 11.7404 323.455 14.4312 323.385 17.2152L319.058 189.649Z" fill="url(#paint1_linear_8949_13344)"/>
<path id="Vector_3" opacity="0.2" d="M23.5063 180.662C23.8182 167.273 23.7022 48.7117 22.9336 38.4721C22.1649 28.2326 38.1197 26.312 62.6149 25.1598C87.11 24.0074 293.786 19.4452 299.108 19.014C311.069 18.0445 313.545 35.9151 312.348 74.7107C311.449 103.857 309.959 151.872 309.274 173.952C309.07 180.527 303.693 185.743 297.113 185.761C247.378 185.898 56.7591 186.444 44.0695 186.821C29.4665 187.256 23.3827 185.971 23.5063 180.662Z" fill="white"/>
</g>
<defs>
<linearGradient id="paint0_linear_8949_13344" x1="172.902" y1="-108.757" x2="154.994" y2="256.458" gradientUnits="userSpaceOnUse">
<stop stop-color="#09005D"/>
<stop offset="1" stop-color="#1A0F91"/>
</linearGradient>
<linearGradient id="paint1_linear_8949_13344" x1="74.5799" y1="318.776" x2="209.637" y2="-1.78786" gradientUnits="userSpaceOnUse">
<stop stop-color="#FE7062"/>
<stop offset="1" stop-color="#FF928E"/>
</linearGradient>
</defs>
</svg>
