<svg width="8" height="7" viewBox="0 0 8 7" fill="none" xmlns="http://www.w3.org/2000/svg">
<path id="Vector" d="M6.60452 6.77839C6.60051 6.77839 6.59651 6.77813 6.59227 6.77813L1.66626 6.60539C0.955812 6.58068 0.381711 6.07649 0.330612 5.43298L0.00281668 1.28971C-0.0167282 1.04304 0.0659342 0.801559 0.23548 0.610202C0.424806 0.396248 0.706678 0.266095 1.00809 0.253149C1.42395 0.235496 2.00983 0.200424 2.63008 0.163706C4.00411 0.0817967 5.56158 -0.0109494 6.47501 0.00105456C7.136 0.0116463 7.69998 0.42497 7.84244 1.01081C8.07557 1.96831 8.00704 3.7642 7.90932 5.6766C7.87729 6.30434 7.2933 6.79675 6.60452 6.77839ZM1.02528 0.657035C0.832895 0.665273 0.655344 0.745791 0.53831 0.87807C0.442234 0.986577 0.395136 1.12145 0.405968 1.25796L0.733749 5.4012C0.768364 5.8397 1.17528 6.18359 1.68015 6.20125L6.60617 6.37401C6.609 6.37401 6.61205 6.37424 6.61488 6.37424C7.08584 6.38672 7.48428 6.06591 7.50523 5.65565C7.60131 3.77432 7.66935 2.01092 7.44918 1.10614C7.35287 0.710483 6.94855 0.417668 6.48465 0.405429C6.47971 0.405193 6.47452 0.405199 6.46934 0.405199C5.57075 0.39343 3.95347 0.489695 2.65385 0.567132C2.03219 0.604086 1.44444 0.639146 1.02528 0.657035Z" fill="white"/>
</svg>
