<svg width="7" height="7" viewBox="0 0 7 7" fill="none" xmlns="http://www.w3.org/2000/svg">
<path id="Vector" d="M0.858346 5.82183C0.599878 5.52999 0.392842 5.1992 0.243476 4.8388C0.174118 4.67289 0.253088 4.48204 0.419339 4.41298C0.58533 4.34417 0.776263 4.42233 0.845361 4.58902C1.03343 5.04133 1.33866 5.44223 1.71948 5.74186C1.86261 5.85273 1.88571 6.05786 1.77479 6.1991C1.66335 6.34061 1.45841 6.36527 1.31709 6.25414C1.1524 6.1251 0.998101 5.9797 0.858346 5.82183ZM2.7536 6.85368C2.69151 6.78357 2.66009 6.6875 2.67567 6.58779C2.70295 6.40993 2.86921 6.28816 3.04741 6.31543C3.53135 6.3902 4.02881 6.33802 4.48496 6.16535C4.65329 6.10174 4.84265 6.1856 4.90526 6.35463C4.96916 6.52289 4.88447 6.71086 4.71589 6.77448C4.15427 6.98713 3.54304 7.051 2.94792 6.95935C2.86999 6.94741 2.80243 6.90872 2.7536 6.85368ZM0.0821516 3.33414C0.0224051 3.26689 -0.00928833 3.17524 0.0024012 3.07891C0.0112333 3.00673 0.0224106 2.93402 0.0359186 2.86132C0.133331 2.33657 0.342442 1.85389 0.65702 1.42651C0.763785 1.28162 0.967709 1.25073 1.11266 1.35744C1.25813 1.46416 1.28903 1.66772 1.18201 1.81286C0.926398 2.16001 0.756258 2.55286 0.677029 2.98024C0.666119 3.03944 0.657026 3.09838 0.650012 3.15706C0.628192 3.33596 0.465828 3.46319 0.287108 3.44138C0.204502 3.43151 0.133066 3.39152 0.0821516 3.33414ZM5.67027 5.75276C5.56507 5.6341 5.55961 5.45313 5.66482 5.32798C5.9781 4.95461 6.19111 4.5023 6.28047 4.01987C6.30255 3.90173 6.31709 3.78229 6.32385 3.66467C6.3345 3.485 6.48854 3.34791 6.66829 3.35855C6.84779 3.36946 6.98521 3.52342 6.97482 3.70284C6.96625 3.84773 6.94833 3.99442 6.92158 4.13905C6.81144 4.73157 6.54959 5.28748 6.16462 5.74653C6.04876 5.88467 5.84328 5.90258 5.70534 5.78704C5.69262 5.77614 5.68092 5.76471 5.67027 5.75276ZM1.92884 0.822566C1.9078 0.798678 1.88988 0.771155 1.87585 0.740776C1.80156 0.576938 1.8743 0.383759 2.03873 0.309759C2.58658 0.0620543 3.19286 -0.0402472 3.79137 0.0142789C3.97113 0.0301175 4.10284 0.189024 4.08648 0.368181C4.07037 0.547339 3.9119 0.679236 3.7324 0.663138C3.2456 0.618998 2.75282 0.702084 2.30706 0.903571C2.1738 0.96381 2.02106 0.926685 1.92884 0.822566ZM6.08694 2.32073C6.06798 2.29944 6.05161 2.27504 6.03836 2.24803C5.82353 1.81001 5.49492 1.42858 5.09358 1.15258C4.94629 1.04976 4.90786 0.847752 5.00995 0.699493C5.11204 0.551234 5.31517 0.513839 5.46349 0.615881C5.95627 0.955241 6.35969 1.42339 6.62362 1.96138C6.70284 2.12288 6.63609 2.31814 6.47452 2.39733C6.3397 2.46302 6.18176 2.42771 6.08694 2.32073Z" fill="white"/>
</svg>
