<svg width="16" height="13" viewBox="0 0 16 13" fill="none" xmlns="http://www.w3.org/2000/svg">
<g id="Group">
<path id="Vector" d="M13.4382 12.8331C13.4293 12.8334 13.4207 12.8336 13.4118 12.8338L3.79979 12.9996C2.41464 13.0234 1.24573 12.1263 1.08062 10.9126L0.0151812 3.08943C-0.0481095 2.62395 0.0878171 2.15893 0.398198 1.77936C0.744779 1.35521 1.27915 1.0807 1.86441 1.02607C2.67364 0.950674 3.78718 0.828354 5.01282 0.694127C7.6813 0.401396 10.7057 0.0692031 12.4858 0.000338973C13.7915 -0.0176357 14.913 0.680584 15.251 1.77634C15.8033 3.56728 15.8551 6.97919 15.8617 10.6148C15.8638 11.8072 14.7792 12.7974 13.4382 12.8331ZM1.93936 1.78592C1.56475 1.82093 1.22682 1.99134 1.01219 2.25419C0.835634 2.46988 0.757872 2.7311 0.792904 2.98881L1.85808 10.812C1.97088 11.6412 2.79974 12.2533 3.786 12.2364L13.3978 12.0707C13.4038 12.0705 13.4104 12.0705 13.4167 12.0702C14.3352 12.046 15.0784 11.3968 15.0772 10.6161C15.0707 7.03918 15.0214 3.6882 14.4994 1.9953C14.268 1.24573 13.4176 0.735894 12.5168 0.762973C10.7648 0.83067 7.62408 1.17569 5.1004 1.45232C3.87032 1.58724 2.75186 1.70982 1.93936 1.78592Z" fill="#BDD0FB"/>
</g>
</svg>
