<svg width="16" height="29" viewBox="0 0 16 29" fill="none" xmlns="http://www.w3.org/2000/svg">
<g id="Group">
<path id="Vector" opacity="0.39" d="M14.4398 29H0.772951C0.346009 29 0 28.6542 0 28.2274V0.772597C0 0.34585 0.346009 0 0.772951 0H14.4398C14.8667 0 15.2127 0.34585 15.2127 0.772597V28.2274C15.2129 28.6542 14.8667 29 14.4398 29Z" fill="white"/>
<path id="Vector_2" opacity="0.66" d="M13.4108 19.2602H1.19623C0.954582 19.2602 0.756534 19.0625 0.756534 18.8209C0.756534 18.5792 0.95435 18.3814 1.19623 18.3814H13.4108C13.6527 18.3814 13.8505 18.5792 13.8505 18.8209C13.8505 19.0625 13.6527 19.2602 13.4108 19.2602Z" fill="white"/>
<path id="Vector_3" opacity="0.66" d="M13.4108 23.5617H1.19623C0.954582 23.5617 0.756534 23.364 0.756534 23.1222C0.756534 22.8805 0.95435 22.6827 1.19623 22.6827H13.4108C13.6527 22.6827 13.8505 22.8805 13.8505 23.1222C13.8505 23.364 13.6527 23.5617 13.4108 23.5617Z" fill="white"/>
<path id="Vector_4" opacity="0.66" d="M13.4108 7.39664H1.19623C0.954582 7.39664 0.756534 7.19892 0.756534 6.95715C0.756534 6.71538 0.95435 6.51765 1.19623 6.51765H13.4108C13.6527 6.51765 13.8505 6.71538 13.8505 6.95715C13.8505 7.19868 13.6527 7.39664 13.4108 7.39664Z" fill="white"/>
<path id="Vector_5" opacity="0.66" d="M13.4108 11.3511H1.19623C0.954582 11.3511 0.756534 11.1534 0.756534 10.9116C0.756534 10.6699 0.95435 10.4721 1.19623 10.4721H13.4108C13.6527 10.4721 13.8505 10.6699 13.8505 10.9116C13.8505 11.1534 13.6527 11.3511 13.4108 11.3511Z" fill="white"/>
<path id="Vector_6" opacity="0.66" d="M13.7136 15.3056H1.49904C1.25716 15.3056 1.05934 15.1079 1.05934 14.8661C1.05934 14.6244 1.25716 14.4266 1.49904 14.4266H13.7136C13.9553 14.4266 14.1533 14.6244 14.1533 14.8661C14.1533 15.1079 13.9553 15.3056 13.7136 15.3056Z" fill="white"/>
</g>
</svg>
