<svg width="100" height="140" viewBox="0 0 100 140" fill="none" xmlns="http://www.w3.org/2000/svg">
<g id="Group">
<path id="Vector" d="M89.1063 8.29019L94.8986 8.58519C97.7635 8.73108 100.009 11.1001 100 13.9673L99.5779 132.978C99.5683 136.106 97.0126 138.628 93.8833 138.597L54.1155 138.211L89.1063 8.29019Z" fill="url(#paint0_linear_8949_13043)"/>
<path id="Vector_2" d="M19.6692 9.21216L93.0266 4.81167C94.5441 4.7206 95.8164 5.94304 95.7854 7.46233L92.9047 130.684C92.8432 133.705 90.33 136.097 87.3079 136.011L35.6944 134.538L19.6692 9.21216Z" fill="#7D97F4"/>
<path id="Vector_3" d="M23.6222 12.1422L88.0823 3.15821C89.7393 2.92721 91.214 4.22352 91.1968 5.89581L89.7186 130.318C89.6977 132.331 88.1027 133.975 86.0904 134.057L38.6127 135.998L23.6222 12.1422Z" fill="#BDD0FB"/>
<path id="Vector_4" d="M6.57252 5.24402L77.2975 0.0170138C80.8224 -0.243579 83.8364 2.52224 83.8775 6.0547L85.5742 133.462C85.6086 136.418 83.2392 138.842 80.2821 138.876L15.0278 139.635C11.9488 139.671 9.37954 137.293 9.17827 134.222L0.0154437 12.7801C-0.239302 8.8953 2.68753 5.53122 6.57252 5.24402Z" fill="url(#paint1_linear_8949_13043)"/>
<path id="Vector_5" d="M86.4582 57.3215L82.4906 57.3676C80.5481 57.3903 78.9549 55.8345 78.9324 53.8929L78.5081 17.4278C78.4854 15.4862 80.0418 13.8939 81.9843 13.8712L85.9522 13.8251C87.8947 13.8026 89.4876 15.3584 89.5103 17.2998L89.9347 53.7649C89.9572 55.7065 88.4007 57.2988 86.4582 57.3215Z" fill="url(#paint2_linear_8949_13043)"/>
</g>
<defs>
<linearGradient id="paint0_linear_8949_13043" x1="54.1155" y1="73.4438" x2="100" y2="73.4438" gradientUnits="userSpaceOnUse">
<stop stop-color="#4042E2"/>
<stop offset="1" stop-color="#4F52FF"/>
</linearGradient>
<linearGradient id="paint1_linear_8949_13043" x1="141.706" y1="-7.37934" x2="3.13753" y2="104.628" gradientUnits="userSpaceOnUse">
<stop stop-color="#4042E2"/>
<stop offset="1" stop-color="#4F52FF"/>
</linearGradient>
<linearGradient id="paint2_linear_8949_13043" x1="140.02" y1="-9.46513" x2="1.45154" y2="102.542" gradientUnits="userSpaceOnUse">
<stop stop-color="#4042E2"/>
<stop offset="1" stop-color="#4F52FF"/>
</linearGradient>
</defs>
</svg>
