<svg width="61" height="60" viewBox="0 0 61 60" fill="none" xmlns="http://www.w3.org/2000/svg">
<path id="Vector" d="M0 29.936C0 46.4693 13.6553 59.8722 30.5 59.8722C47.3447 59.8722 61 46.4693 61 29.936C61 13.4029 47.3447 3.02955e-09 30.5 3.02955e-09C13.6555 -0.000232678 0 13.4026 0 29.936ZM4.48044 29.936C4.48044 15.8314 16.1298 4.39743 30.5002 4.39743C44.8704 4.39743 56.5201 15.8316 56.5201 29.936C56.5201 44.0406 44.8707 55.4745 30.5002 55.4745C16.1298 55.4745 4.48044 44.0406 4.48044 29.936Z" fill="url(#paint0_linear_8949_13475)"/>
<defs>
<linearGradient id="paint0_linear_8949_13475" x1="61.0001" y1="29.9359" x2="0.000116348" y2="29.9359" gradientUnits="userSpaceOnUse">
<stop stop-color="#09005D"/>
<stop offset="1" stop-color="#1A0F91"/>
</linearGradient>
</defs>
</svg>
