<svg width="8" height="7" viewBox="0 0 8 7" fill="none" xmlns="http://www.w3.org/2000/svg">
<path id="Vector" d="M6.60421 6.77849C6.60021 6.77849 6.5962 6.77826 6.59196 6.77826L1.66618 6.6055C0.955768 6.58055 0.381694 6.07665 0.330597 5.43317L0.00281693 1.28987C-0.016727 1.04321 0.0659171 0.801717 0.235455 0.610132C0.424772 0.396189 0.706395 0.266271 1.00803 0.253327C1.42316 0.235439 2.00808 0.200605 2.62713 0.163888C3.93422 0.0859835 5.56108 -0.0109893 6.47493 0.00101411C7.13637 0.00642742 7.69984 0.425139 7.84254 1.01095C8.07542 1.96793 8.00713 3.76375 7.90941 5.67629C7.87715 6.30447 7.29296 6.79661 6.60421 6.77849ZM6.48482 0.405628C6.47988 0.405392 6.4747 0.405369 6.46952 0.405369C5.57026 0.393601 3.95164 0.489884 2.65114 0.567554C2.03021 0.604505 1.44366 0.639335 1.02546 0.657222C0.833086 0.66546 0.655779 0.745945 0.538516 0.878218C0.442444 0.98672 0.395347 1.12159 0.406179 1.25786L0.733945 5.40117C0.768559 5.83965 1.17546 6.18349 1.68031 6.20114L6.60609 6.3739C6.60892 6.3739 6.61198 6.37413 6.6148 6.37413C7.08574 6.38661 7.48416 6.06582 7.50511 5.65535C7.60118 3.77387 7.66923 2.01008 7.44906 1.10605C7.35299 0.710645 6.9487 0.417867 6.48482 0.405628Z" fill="white"/>
</svg>
