<svg width="80" height="100" viewBox="0 0 80 100" fill="none" xmlns="http://www.w3.org/2000/svg">
<g id="Group">
<path id="Vector" d="M12.1103 99.9893C12.126 99.9882 12.1419 99.987 12.1578 99.9857L76.1034 94.5101C77.1552 94.4199 78.1073 93.9246 78.7844 93.1151C79.4616 92.3059 79.7808 91.2816 79.6836 90.231L71.6472 3.56818C71.5502 2.52245 71.0515 1.57707 70.243 0.90621C69.4345 0.235354 68.4024 -0.0795427 67.3668 0.0171177L3.56774 5.95953C1.41277 6.16024 -0.180422 8.07637 0.0164492 10.231V10.2313L7.90632 96.4272C8.10088 98.5577 9.98143 100.146 12.1103 99.9893ZM1.31931 10.1125C1.18776 8.67456 2.25058 7.39606 3.68892 7.26203L67.4879 1.31937C68.1797 1.2527 68.8677 1.46495 69.4071 1.91249C69.9464 2.36004 70.2792 2.99074 70.3439 3.68882L70.7895 8.49578L1.75184 13.5738C1.7126 13.5768 1.67451 13.5835 1.63782 13.5929L1.31931 10.1125ZM9.20916 96.3084L1.75553 14.8779C1.78599 14.88 1.81669 14.8807 1.84808 14.8784L70.9105 9.7985L78.3803 90.3521C78.4454 91.053 78.2323 91.7363 77.7807 92.2763C77.3288 92.8164 76.6931 93.147 75.9913 93.2072L12.0457 98.6827C12.0351 98.6836 12.0247 98.6843 12.0141 98.6852C10.594 98.7895 9.3391 97.7297 9.20916 96.3084Z" fill="#DCE5FE"/>
</g>
</svg>
