<svg width="28" height="28" viewBox="0 0 28 28" fill="none" xmlns="http://www.w3.org/2000/svg">
<path id="Vector" d="M1.12953 20.775C1.04629 20.6811 1.0302 20.5401 1.09969 20.4278C1.1806 20.2968 1.34801 20.2518 1.48255 20.3215L2.7986 20.2917C2.96065 20.2875 3.09449 20.4154 3.09775 20.5774C3.10148 20.7389 2.97347 20.8727 2.81188 20.8764L1.47557 20.9067C1.376 20.9088 1.27923 20.8825 1.19506 20.8305C1.17011 20.8149 1.14819 20.7962 1.12953 20.775ZM6.28222 26.3453C6.18778 26.2388 6.1416 26.0967 6.15583 25.9552L6.20457 25.4646C6.22043 25.3038 6.3636 25.1865 6.52449 25.2024C6.68561 25.218 6.8029 25.3613 6.78681 25.5224L6.74343 25.9615L7.33009 26.2309C7.47653 26.2987 7.54112 26.4721 7.47373 26.6187C7.40635 26.7653 7.2324 26.8299 7.08573 26.7623L6.45219 26.4712C6.38667 26.4414 6.32979 26.3992 6.28222 26.3453ZM0.581581 19.43C0.558264 19.4037 0.539363 19.3727 0.526305 19.3377L0.0182294 17.9666C-0.0377323 17.8151 0.0394405 17.6468 0.191004 17.5909C0.3428 17.5347 0.510461 17.6121 0.567122 17.7636L1.0752 19.1347C1.13116 19.2862 1.05399 19.4545 0.902423 19.5106C0.785836 19.5535 0.659461 19.5176 0.581581 19.43ZM8.31782 27.3014C8.24344 27.2172 8.22106 27.0939 8.27096 26.9853C8.33834 26.8387 8.51206 26.7744 8.65896 26.8418L9.56599 27.2585L9.62709 27.1944C9.73855 27.0779 9.92392 27.0737 10.0405 27.1851C10.1578 27.2974 10.1615 27.4818 10.0498 27.5985L9.92206 27.7295C9.77026 27.864 9.55294 27.8962 9.3685 27.8113L8.41436 27.3729C8.37658 27.3557 8.34394 27.3307 8.31782 27.3014ZM6.42072 24.2323C6.36849 24.1734 6.34027 24.0939 6.34867 24.0095L6.4037 23.4544C6.24817 23.3301 6.09404 23.2003 5.94387 23.0675C5.82006 22.9621 5.81167 22.7754 5.9187 22.6547C6.02572 22.534 6.21063 22.5226 6.33165 22.6298C6.51375 22.7906 6.7017 22.9465 6.8901 23.0931L7.01787 23.1922L6.9309 24.0673C6.91505 24.2282 6.77164 24.3454 6.61099 24.3295C6.53451 24.3221 6.46806 24.2857 6.42072 24.2323ZM4.88783 22.0063C4.88759 22.0061 4.88736 22.0056 4.88713 22.0054C4.55836 21.6311 4.2501 21.2323 3.97099 20.8198C3.88052 20.686 3.9155 20.5042 4.04911 20.4138C4.18318 20.3233 4.36528 20.3578 4.45552 20.4921C4.72111 20.8841 5.01421 21.2633 5.32689 21.6194C5.43369 21.7406 5.42133 21.9257 5.30008 22.0322C5.17883 22.1387 4.99462 22.1268 4.88783 22.0063ZM0.579703 16.9273C0.577138 16.9245 0.574586 16.9217 0.572487 16.9187C0.469891 16.794 0.488309 16.6097 0.61329 16.5071L1.74488 15.58C1.86986 15.4777 2.05406 15.4926 2.15666 15.6208C2.25925 15.7457 2.24084 15.93 2.11586 16.0323L0.98427 16.9595C0.861854 17.0595 0.683232 17.0443 0.579703 16.9273ZM10.6304 26.5327C10.5306 26.4201 10.5323 26.2479 10.6384 26.137L11.4899 25.2467L11.648 25.2788C11.7732 25.3042 11.8982 25.3275 12.0239 25.3485C12.1834 25.3753 12.2904 25.5263 12.2638 25.6855C12.237 25.8449 12.0859 25.9524 11.9264 25.9256C11.8478 25.9123 11.769 25.8983 11.6904 25.8832L11.0609 26.5413C10.9494 26.6579 10.764 26.6621 10.6475 26.5504C10.6414 26.5448 10.6358 26.5388 10.6304 26.5327ZM1.97852 14.7071C1.93538 14.6582 1.90809 14.5948 1.9053 14.5244C1.88641 14.0252 1.89854 13.5215 1.94191 13.0269C1.95591 12.8661 2.09791 12.7468 2.2588 12.761C2.41992 12.775 2.53884 12.9169 2.52485 13.0778C2.48358 13.5483 2.47216 14.0275 2.49011 14.5023C2.49617 14.6638 2.37025 14.7994 2.20889 14.8055C2.11748 14.8092 2.03448 14.7705 1.97852 14.7071ZM13.2098 25.9827C13.1613 25.9281 13.1333 25.8554 13.1366 25.7769C13.1431 25.6154 13.2795 25.4902 13.4411 25.4967C13.9142 25.5163 14.3936 25.5058 14.866 25.4662C15.0269 25.4529 15.1687 25.5722 15.1822 25.7331C15.1957 25.8941 15.0761 26.0356 14.9152 26.0491C14.4186 26.0911 13.9145 26.1018 13.4169 26.0813C13.3341 26.0778 13.2609 26.0403 13.2098 25.9827ZM7.92329 19.3997C7.81719 19.2799 7.82722 19.0965 7.94637 18.9888C8.06622 18.8807 8.25114 18.89 8.35956 19.0098C8.67342 19.3573 9.02224 19.6761 9.39625 19.9581C9.52403 20.0577 9.55108 20.2387 9.45338 20.3679C9.35614 20.4968 9.17286 20.5224 9.04369 20.4252C8.6403 20.1208 8.26395 19.7766 7.92515 19.4018C7.92445 19.4013 7.92375 19.4004 7.92329 19.3997ZM7.05145 18.2288C7.04002 18.2157 7.02954 18.2017 7.01998 18.1866C6.75836 17.7554 6.53591 17.2967 6.35893 16.8231C6.3025 16.6719 6.37945 16.5031 6.53078 16.4467C6.68234 16.3899 6.85023 16.4675 6.90712 16.6185C7.07104 17.0578 7.27763 17.4832 7.52013 17.8829C7.60384 18.0211 7.56001 18.201 7.4215 18.2847C7.29932 18.3591 7.14332 18.3325 7.05145 18.2288ZM1.04256 10.8317C0.942765 10.7191 0.944397 10.5469 1.05049 10.4359C1.16195 10.3194 1.34732 10.3152 1.46391 10.4269L2.52135 11.4372C2.64167 11.5437 2.64236 11.7339 2.53067 11.8507C2.41921 11.9672 2.23384 11.9714 2.11702 11.8597L1.05959 10.8494C1.05376 10.8438 1.04793 10.8377 1.04256 10.8317ZM10.2452 21.1507C10.1688 21.0645 10.1478 20.9372 10.2021 20.8275C10.2735 20.6827 10.4488 20.6231 10.5938 20.6946C10.6542 20.7245 10.7153 20.7538 10.7771 20.7818C11.1423 20.9498 11.5221 21.0892 11.9071 21.1959C12.0628 21.2391 12.154 21.4003 12.1106 21.556C12.0675 21.7115 11.9064 21.8026 11.7506 21.7595C11.3358 21.6444 10.9259 21.4943 10.5327 21.3134C10.4665 21.2829 10.4003 21.2514 10.335 21.2193C10.2996 21.2018 10.2695 21.1782 10.2452 21.1507ZM0.27332 9.73232C0.198705 9.64818 0.176556 9.52488 0.226455 9.41627L0.837597 8.08756C0.904985 7.94096 1.07893 7.8764 1.2256 7.94399C1.37227 8.01181 1.43663 8.18521 1.36924 8.33205L0.758084 9.66076C0.690697 9.80736 0.516749 9.87192 0.370082 9.80433C0.331842 9.78662 0.299436 9.76191 0.27332 9.73232ZM16.6983 27.7957C16.6958 27.7929 16.6934 27.7901 16.6911 27.7871L15.7635 26.6562C15.6609 26.5313 15.6794 26.347 15.8043 26.2446C15.9293 26.1423 16.1173 26.1568 16.2159 26.2854L17.1435 27.4163C17.246 27.5412 17.2276 27.7256 17.1026 27.8279C16.9807 27.9281 16.8021 27.9129 16.6983 27.7957ZM6.03365 15.5052C5.99867 15.4658 5.9742 15.4164 5.96464 15.3609C5.87929 14.8624 5.84105 14.354 5.85108 13.8504C5.85434 13.6889 5.98795 13.5607 6.14931 13.5637C6.31066 13.5672 6.43891 13.7007 6.43588 13.862C6.42655 14.3291 6.46223 14.7999 6.54104 15.2623C6.56832 15.4215 6.46129 15.5725 6.30203 15.5998C6.19873 15.6175 6.09847 15.5783 6.03365 15.5052ZM17.9922 27.7025C17.9689 27.6761 17.95 27.6452 17.9369 27.6102C17.881 27.4587 17.9582 27.2904 18.1097 27.2345L19.4817 26.7266C19.6333 26.6707 19.8016 26.7481 19.8578 26.8993C19.9138 27.0508 19.8366 27.2191 19.6851 27.275L18.313 27.7829C18.1965 27.8262 18.0699 27.7904 17.9922 27.7025ZM13.0477 21.9262C12.9967 21.8686 12.9685 21.7914 12.975 21.7089C12.9881 21.5479 13.1291 21.4279 13.2903 21.4409C13.7561 21.4784 14.229 21.4714 14.6954 21.4204C14.8558 21.4029 15.0006 21.5185 15.0181 21.6793C15.0358 21.8399 14.9199 21.9842 14.7593 22.0019C14.2561 22.0571 13.7459 22.0646 13.2434 22.024C13.1648 22.0175 13.0963 21.9807 13.0477 21.9262ZM6.09171 12.5997C6.03225 12.5326 6.0045 12.4392 6.02432 12.345C6.12925 11.8525 6.28198 11.3666 6.47877 10.8997C6.54126 10.7511 6.71288 10.6811 6.86188 10.7436C7.01111 10.8061 7.08059 10.9778 7.0181 11.1268C6.83576 11.5596 6.694 12.0105 6.597 12.4667C6.56342 12.6247 6.40789 12.7254 6.2498 12.692C6.18614 12.6783 6.13182 12.6449 6.09171 12.5997ZM1.49538 7.07488C1.42099 6.99075 1.39861 6.86745 1.44851 6.75884L1.51637 6.61131C1.54598 6.54652 1.58842 6.48918 1.64205 6.44187C1.74838 6.34771 1.89084 6.30156 2.03214 6.31555L3.05555 6.4167C3.21668 6.43232 3.33396 6.57565 3.31787 6.73647C3.30179 6.89728 3.15861 7.01475 2.99796 6.99867L2.02632 6.90265L1.98016 7.0031C1.91277 7.14993 1.73929 7.21402 1.59215 7.14667C1.55415 7.12919 1.52149 7.10448 1.49538 7.07488ZM20.2325 26.3048C20.1882 26.2549 20.1607 26.1896 20.1591 26.1176L20.126 24.6558C20.1223 24.4943 20.2503 24.3605 20.4119 24.3568C20.5739 24.3528 20.7077 24.4808 20.711 24.6425L20.7441 26.1046C20.7479 26.2659 20.6198 26.3999 20.4583 26.4036C20.3687 26.4055 20.2876 26.367 20.2325 26.3048ZM4.26339 7.04598C4.21116 6.98701 4.18271 6.90754 4.19134 6.82317C4.20743 6.66235 4.35059 6.54512 4.51148 6.5612L4.53457 6.56353C4.7738 6.26451 5.0289 5.97551 5.29472 5.70212C5.40734 5.58628 5.59249 5.58349 5.70838 5.69606C5.82566 5.8091 5.82705 5.99368 5.71443 6.10952C5.42622 6.40621 5.15086 6.72272 4.896 7.04994L4.79689 7.1772L4.45366 7.14317C4.37718 7.13571 4.31049 7.09935 4.26339 7.04598ZM7.21864 9.9197C7.13307 9.82297 7.11907 9.67731 7.19392 9.5645C7.4735 9.14312 7.79458 8.74667 8.14784 8.38635C8.26093 8.27098 8.4463 8.26912 8.56148 8.38239C8.67994 8.49076 8.67877 8.68048 8.56568 8.79585C8.23807 9.1296 7.94077 9.49691 7.68172 9.88753C7.59241 10.0222 7.41078 10.0588 7.27624 9.96957C7.25432 9.95535 7.2352 9.93858 7.21864 9.9197ZM20.7194 23.6604C20.714 23.6541 20.7087 23.6478 20.7038 23.6411C20.607 23.5117 20.6338 23.3285 20.7635 23.2318C21.0186 23.0418 21.2681 22.8391 21.5054 22.6291C21.6225 22.5256 21.7374 22.4193 21.8508 22.3107C21.9671 22.1986 22.1525 22.2021 22.2644 22.3186C22.3796 22.4314 22.3729 22.6202 22.2565 22.7321C22.1373 22.8468 22.0161 22.9584 21.8932 23.0672C21.6437 23.288 21.3812 23.5012 21.1132 23.7012C20.9904 23.7923 20.8192 23.773 20.7194 23.6604ZM6.36802 5.11782C6.36476 5.11409 6.36149 5.11036 6.35846 5.10663C6.25773 4.98031 6.27801 4.79642 6.40416 4.6955C6.64129 4.50602 6.888 4.32376 7.1403 4.15199L7.13469 3.90074C7.13096 3.73923 7.25897 3.60544 7.42056 3.60172C7.58239 3.59799 7.71623 3.72594 7.71973 3.88745L7.73255 4.4601L7.59778 4.54937C7.31331 4.73745 7.03466 4.94045 6.76954 5.15231C6.64713 5.2502 6.47062 5.23365 6.36802 5.11782ZM9.25519 7.84424C9.24749 7.83561 9.24026 7.82652 9.2335 7.81673C9.14139 7.68389 9.17474 7.50163 9.30764 7.4098C9.72269 7.12266 10.1674 6.87328 10.6295 6.66864C10.7771 6.60315 10.9501 6.67004 11.0156 6.81758C11.0812 6.96511 11.0145 7.13804 10.8666 7.20354C10.4378 7.39325 10.0256 7.62445 9.64061 7.89085C9.5175 7.97592 9.35219 7.95354 9.25519 7.84424ZM19.8655 18.8567C19.7753 18.7548 19.766 18.6008 19.8508 18.4875C20.1141 18.1362 20.3487 17.7575 20.5476 17.3615C20.6203 17.217 20.7961 17.1588 20.9405 17.2312C21.085 17.3037 21.1429 17.4797 21.0706 17.6237C20.8558 18.0507 20.6031 18.4595 20.3188 18.8382C20.2218 18.9676 20.0385 18.9937 19.9094 18.8967C19.893 18.8849 19.8784 18.8711 19.8655 18.8567ZM22.8222 21.6376C22.7291 21.5327 22.7228 21.3728 22.8138 21.2603C22.8564 21.2074 22.8991 21.1538 22.9409 21.0999L23.04 20.9722L24.4472 21.1116C24.6083 21.1272 24.7256 21.2705 24.7095 21.4313C24.6936 21.5922 24.5502 21.7094 24.3896 21.6935L23.303 21.5859C23.2918 21.5999 23.2806 21.6136 23.2694 21.6276C23.1677 21.7532 22.9835 21.7728 22.8579 21.6714C22.8448 21.6609 22.8329 21.6495 22.8222 21.6376ZM7.17526 2.62586C7.13096 2.57575 7.10345 2.51073 7.10181 2.43871L7.08363 1.63743C7.07989 1.48687 7.1431 1.3426 7.25619 1.24238C7.30375 1.20042 7.35808 1.1678 7.41777 1.14566L7.78245 1.01071C7.93425 0.954542 8.10214 1.03239 8.15857 1.18341C8.21453 1.33491 8.13734 1.50318 7.98578 1.55935L7.66959 1.67635L7.68661 2.42543C7.69034 2.58694 7.56234 2.72072 7.40075 2.72445C7.31121 2.72655 7.23029 2.68809 7.17526 2.62586ZM11.9138 6.66561C11.8828 6.63042 11.8595 6.58754 11.8481 6.53836C11.8115 6.38104 11.9092 6.22372 12.0666 6.18713C12.5592 6.07223 13.0643 6.00347 13.5682 5.98296C13.7293 5.97667 13.866 6.10183 13.8725 6.26311C13.879 6.42439 13.7536 6.5605 13.592 6.56726C13.1249 6.58637 12.6563 6.65 12.1995 6.75674C12.0913 6.78215 11.9828 6.74369 11.9138 6.66561ZM25.6548 21.7369C25.6147 21.6917 25.5881 21.6336 25.5825 21.5686C25.5699 21.4225 25.6667 21.2922 25.8049 21.2589L26.303 20.1753C26.3704 20.0287 26.5443 19.9642 26.691 20.0318C26.8377 20.0996 26.902 20.2732 26.8346 20.4198L26.3205 21.5381C26.2909 21.6029 26.2484 21.66 26.1946 21.7075C26.1132 21.7798 26.008 21.825 25.8994 21.8343C25.8033 21.8429 25.7142 21.8038 25.6548 21.7369ZM21.1214 16.3272C21.0573 16.2549 21.0305 16.1524 21.0589 16.0529C21.1879 15.6021 21.2741 15.1378 21.3156 14.6722C21.3299 14.5113 21.4719 14.3925 21.633 14.4067C21.7939 14.4212 21.9128 14.5631 21.8986 14.7239C21.854 15.2264 21.7608 15.7277 21.6218 16.2139C21.5773 16.3691 21.4154 16.4591 21.2599 16.4146C21.2044 16.3983 21.1571 16.3673 21.1214 16.3272ZM9.03715 0.971087C9.01384 0.94475 8.99495 0.913753 8.98189 0.878793C8.92593 0.727299 9.00312 0.559025 9.15468 0.503089L10.4285 0.0318266C10.5059 0.00339241 10.5887 -0.0061622 10.6694 0.00385968C10.8296 0.0239034 10.9436 0.170037 10.9233 0.330387C10.904 0.484211 10.7685 0.595151 10.616 0.586061L9.35801 1.0515C9.24119 1.09461 9.1148 1.05872 9.03715 0.971087ZM14.8189 6.54815C14.7634 6.48569 14.7352 6.39992 14.7488 6.31065C14.7725 6.151 14.9218 6.041 15.0815 6.065C15.5805 6.13982 16.0755 6.26311 16.5526 6.43115C16.7053 6.48475 16.7848 6.6521 16.7312 6.80429C16.6776 6.95648 16.5106 7.03643 16.3581 6.98282C15.916 6.8269 15.4574 6.7127 14.9948 6.64348C14.9239 6.63299 14.863 6.59779 14.8189 6.54815ZM21.3788 13.4318C21.3396 13.3875 21.3133 13.3311 21.3068 13.2679C21.2594 12.8025 21.1676 12.3389 21.034 11.8896C20.9878 11.7348 21.0759 11.5719 21.2308 11.526C21.3856 11.4798 21.5483 11.5679 21.5945 11.7229C21.7388 12.207 21.8379 12.7069 21.889 13.2085C21.9053 13.3691 21.7883 13.5127 21.6274 13.5292C21.5302 13.539 21.4392 13.4998 21.3788 13.4318ZM12.3489 2.75172L11.3712 1.55912C11.2686 1.43443 11.2871 1.25007 11.412 1.14752C11.5373 1.04497 11.7222 1.06245 11.8238 1.18854L12.6075 2.14411C12.7306 2.16719 12.8295 2.26787 12.8447 2.39839C12.8631 2.55874 12.7481 2.70394 12.5875 2.72235L12.3489 2.75172ZM26.9613 19.1629C26.8869 19.0788 26.8645 18.9555 26.9144 18.8466L27.1081 18.425L26.0882 17.4503C25.9675 17.3424 25.9672 17.1536 26.0789 17.0369C26.1904 16.9203 26.3757 16.9161 26.4923 17.0278L27.5794 18.0691C27.7139 18.2208 27.7461 18.4378 27.6617 18.6222L27.4462 19.0911C27.3789 19.2377 27.2049 19.3023 27.0582 19.2347C27.02 19.217 26.9874 19.1923 26.9613 19.1629ZM25.243 16.3498C25.1856 16.285 25.1574 16.1955 25.1742 16.1037C25.2586 15.6378 25.3141 15.1618 25.3393 14.689C25.3479 14.5277 25.4857 14.4037 25.6471 14.4123C25.8082 14.4212 25.932 14.5587 25.9236 14.7199C25.8968 15.2175 25.8385 15.7184 25.7497 16.2083C25.721 16.3673 25.5687 16.4726 25.4097 16.4439C25.3425 16.4314 25.285 16.3971 25.243 16.3498ZM17.5627 7.51211C17.4816 7.42029 17.4638 7.28371 17.5287 7.1716C17.6098 7.03176 17.7886 6.98422 17.9285 7.06533C18.3664 7.3189 18.7815 7.61513 19.1625 7.94562C19.2861 8.05073 19.2978 8.23625 19.1919 8.35838C19.086 8.48027 18.9011 8.49333 18.7792 8.38751C18.4259 8.08126 18.0409 7.80695 17.635 7.57155C17.6072 7.555 17.583 7.53495 17.5627 7.51211ZM20.5492 10.6464C20.5336 10.6287 20.5196 10.6086 20.5081 10.5867C20.2927 10.1702 20.0367 9.77263 19.748 9.40485C19.6482 9.27783 19.6704 9.09394 19.7972 8.99442C19.9243 8.89467 20.1066 8.91937 20.2081 9.04383C20.5196 9.44051 20.7954 9.86912 21.0279 10.3182C21.1023 10.4616 21.0461 10.6382 20.9027 10.7124C20.781 10.7748 20.6357 10.7443 20.5492 10.6464ZM13.7948 2.54476C13.7487 2.49255 13.7209 2.4238 13.7214 2.34875C13.7226 2.18723 13.8548 2.05718 14.0164 2.05835C14.5151 2.06208 15.0181 2.0975 15.5112 2.16346C15.6719 2.18444 15.784 2.33197 15.7626 2.49208C15.7411 2.6522 15.594 2.76454 15.4338 2.7431C14.9647 2.6804 14.4862 2.64684 14.0119 2.64311C13.9254 2.64288 13.8478 2.60489 13.7948 2.54476ZM25.3983 13.4367C25.3572 13.3903 25.3304 13.3306 25.3255 13.2642C25.3111 13.0642 25.2915 12.8647 25.2665 12.6664L25.2462 12.506L26.0258 11.8674C26.151 11.7649 26.3452 11.7758 26.4373 11.9082C26.5399 12.0332 26.5215 12.2175 26.3965 12.3198L25.866 12.7545C25.8833 12.9097 25.8975 13.0656 25.9089 13.2218C25.9206 13.3828 25.7993 13.5229 25.6384 13.5346C25.5442 13.5413 25.4568 13.5024 25.3983 13.4367ZM16.4957 2.28861C16.3959 2.17604 16.3975 2.00381 16.5036 1.89287L17.5144 0.835911C17.6259 0.719377 17.8113 0.715182 17.9279 0.826821C18.0456 0.937528 18.0489 1.12351 17.9372 1.24028L16.9264 2.29724C16.8149 2.41401 16.6295 2.41797 16.513 2.30633C16.5069 2.30074 16.5013 2.29467 16.4957 2.28861ZM21.1804 5.23808C21.0864 5.13203 21.0811 4.97052 21.1743 4.85818C21.2774 4.73372 21.4618 4.71624 21.5864 4.81926C21.9704 5.13693 22.3379 5.4821 22.6788 5.84452C22.7879 5.96222 22.7835 6.14751 22.6657 6.25798C22.548 6.36846 22.3628 6.36286 22.2521 6.24516C21.9282 5.89999 21.5784 5.57183 21.213 5.26978C21.2014 5.25999 21.1904 5.2495 21.1804 5.23808ZM23.5373 7.89178L23.4482 7.75707C23.3554 7.617 23.2594 7.47879 23.1605 7.34221C23.0658 7.21146 23.095 7.02873 23.2258 6.93387C23.3566 6.83902 23.5394 6.86955 23.6343 6.99914C23.7061 7.09842 23.7766 7.19864 23.8456 7.29956L24.6309 7.28185C24.7927 7.27812 24.9266 7.4063 24.9301 7.56759C24.9338 7.7291 24.8058 7.86288 24.6442 7.86661L23.5373 7.89178ZM27.1242 11.3605C27.1217 11.3577 27.1193 11.3549 27.117 11.3519C27.0144 11.2272 27.0328 11.0426 27.1578 10.9403L27.4012 10.7408L27.1329 10.0169C27.0769 9.86539 27.1541 9.69712 27.3056 9.64095C27.4572 9.58501 27.6253 9.66239 27.6817 9.81365L27.9681 10.5863C28.0422 10.7851 27.9849 11.0079 27.821 11.1529L27.5288 11.3924C27.4066 11.4927 27.2278 11.4775 27.1242 11.3605ZM21.0169 3.91286C20.9647 3.8539 20.9365 3.77442 20.9449 3.69005L21.089 2.23501C21.1048 2.07419 21.2483 1.95696 21.4089 1.97281C21.57 1.98843 21.6871 2.13176 21.6712 2.29258L21.5269 3.74762C21.511 3.90843 21.3676 4.0259 21.207 4.00982C21.1307 4.00259 21.064 3.96623 21.0169 3.91286ZM18.723 1.07154C18.6486 0.987401 18.6262 0.864112 18.6761 0.755502C18.7435 0.60867 18.9172 0.544341 19.0641 0.61193L20.3934 1.22233C20.5401 1.29016 20.6045 1.46356 20.5371 1.61016C20.4697 1.75699 20.296 1.82132 20.1491 1.75373L18.8197 1.14333C18.7817 1.12585 18.7491 1.10114 18.723 1.07154ZM26.6803 8.73758C26.657 8.71125 26.6378 8.68025 26.625 8.64552L26.3226 7.82885L26.1071 7.83375C25.9453 7.83771 25.8119 7.70929 25.808 7.54801C25.8045 7.38649 25.9325 7.25271 26.0938 7.24922L26.3615 7.24316C26.576 7.23826 26.7789 7.37577 26.8535 7.57714L27.1741 8.44252C27.2301 8.59401 27.1529 8.76229 27.0014 8.81846C26.8845 8.86134 26.7579 8.82545 26.6803 8.73758Z" fill="white"/>
</svg>
