<svg width="14" height="25" viewBox="0 0 14 25" fill="none" xmlns="http://www.w3.org/2000/svg">
<g id="Group">
<path id="Vector" opacity="0.39" d="M13.2187 24.8398H0.781269C0.349732 24.8398 0 24.4903 0 24.0589V0.780911C0 0.349572 0.349732 0 0.781269 0H13.2187C13.6503 0 14 0.349572 14 0.780911V24.0589C14.0002 24.49 13.6503 24.8398 13.2187 24.8398Z" fill="white"/>
<path id="Vector_2" opacity="0.66" d="M12.3703 16.497H1.0734C0.866187 16.497 0.696951 16.3276 0.696951 16.1207C0.696951 15.9136 0.866421 15.7444 1.0734 15.7444H12.3703C12.5772 15.7444 12.7467 15.9138 12.7467 16.1207C12.7467 16.3276 12.5772 16.497 12.3703 16.497Z" fill="white"/>
<path id="Vector_3" opacity="0.66" d="M12.3703 20.1815H1.0734C0.866187 20.1815 0.696951 20.0121 0.696951 19.8052C0.696951 19.5983 0.866421 19.4289 1.0734 19.4289H12.3703C12.5772 19.4289 12.7467 19.5983 12.7467 19.8052C12.7467 20.0123 12.5772 20.1815 12.3703 20.1815Z" fill="white"/>
<path id="Vector_4" opacity="0.66" d="M12.3703 6.33509H1.0734C0.866187 6.33509 0.696951 6.16571 0.696951 5.95882C0.696951 5.75171 0.866421 5.58253 1.0734 5.58253H12.3703C12.5772 5.58253 12.7467 5.75194 12.7467 5.95882C12.7467 6.16571 12.5772 6.33509 12.3703 6.33509Z" fill="white"/>
<path id="Vector_5" opacity="0.66" d="M12.3703 9.7225H1.0734C0.866187 9.7225 0.696951 9.55311 0.696951 9.34623C0.696951 9.13911 0.866421 8.96993 1.0734 8.96993H12.3703C12.5772 8.96993 12.7467 9.13935 12.7467 9.34623C12.7467 9.55311 12.5772 9.7225 12.3703 9.7225Z" fill="white"/>
<path id="Vector_6" opacity="0.66" d="M12.6486 13.1097H1.35179C1.14458 13.1097 0.975332 12.9403 0.975332 12.7335C0.975332 12.5266 1.14481 12.3572 1.35179 12.3572H12.6486C12.8556 12.3572 13.0251 12.5266 13.0251 12.7335C13.0253 12.9403 12.8559 13.1097 12.6486 13.1097Z" fill="white"/>
</g>
</svg>
