<svg width="114" height="154" viewBox="0 0 114 154" fill="none" xmlns="http://www.w3.org/2000/svg">
<g id="Group">
<path id="Vector" d="M0.000194121 146.094L1.01133 6.86119C1.03903 3.04419 4.15715 -0.0275038 7.9759 0.000185742L102.233 0.684115C108.641 0.730495 113.798 5.96081 113.752 12.3659L112.813 141.578C112.763 148.488 107.118 154.05 100.204 154L7.12959 153.324C3.16333 153.296 -0.0286624 150.059 0.000194121 146.094Z" fill="url(#paint0_linear_8949_13403)"/>
<path id="Vector_2" opacity="0.72" d="M109.233 84.355C108.998 84.355 108.805 84.1658 108.801 83.9293L108.587 69.4565C108.584 69.2181 108.774 69.0217 109.013 69.0183C109.015 69.0183 109.017 69.0183 109.019 69.0183C109.255 69.0183 109.447 69.2075 109.451 69.444L109.665 83.9169C109.669 84.1552 109.478 84.3516 109.24 84.355C109.238 84.355 109.235 84.355 109.233 84.355Z" fill="white"/>
<path id="Vector_3" opacity="0.72" d="M108.957 65.644C108.721 65.644 108.528 65.4548 108.525 65.2183L108.105 36.8796C108.101 36.6413 108.292 36.4449 108.531 36.4414C108.774 36.4375 108.966 36.6286 108.969 36.8672L109.389 65.2058C109.392 65.4442 109.202 65.6405 108.963 65.644C108.961 65.644 108.959 65.644 108.957 65.644Z" fill="white"/>
<path id="Vector_4" opacity="0.72" d="M108.384 26.9746C108.148 26.9746 107.955 26.7854 107.952 26.5489L107.708 10.102C107.675 7.82502 105.474 5.95344 102.803 5.92968L87.7885 5.79768C87.5498 5.79538 87.3582 5.60063 87.3602 5.36181C87.3623 5.1246 87.5553 4.93377 87.7922 4.93377C87.7935 4.93377 87.7947 4.93377 87.7961 4.93377L102.811 5.06576C105.947 5.09368 108.532 7.34714 108.573 10.0893L108.816 26.5362C108.82 26.7746 108.629 26.971 108.39 26.9744C108.388 26.9746 108.386 26.9746 108.384 26.9746Z" fill="white"/>
</g>
<defs>
<linearGradient id="paint0_linear_8949_13403" x1="8.69223" y1="152.064" x2="127.745" y2="-38.3698" gradientUnits="userSpaceOnUse">
<stop stop-color="#4042E2"/>
<stop offset="1" stop-color="#4F52FF"/>
</linearGradient>
</defs>
</svg>
