<svg width="16" height="29" viewBox="0 0 16 29" fill="none" xmlns="http://www.w3.org/2000/svg">
<g id="Group">
<path id="Vector" opacity="0.39" d="M14.4398 29H0.772951C0.346009 29 0 28.6542 0 28.2274V0.772597C0 0.34585 0.346009 0 0.772951 0H14.4398C14.8667 0 15.2127 0.34585 15.2127 0.772597V28.2274C15.2129 28.6542 14.8667 29 14.4398 29Z" fill="white"/>
<path id="Vector_2" opacity="0.66" d="M13.4113 19.2603H1.19672C0.954844 19.2603 0.757027 19.0625 0.757027 18.8208C0.757027 18.579 0.954844 18.3813 1.19672 18.3813H13.4113C13.6532 18.3813 13.851 18.579 13.851 18.8208C13.8508 19.0625 13.653 19.2603 13.4113 19.2603Z" fill="white"/>
<path id="Vector_3" opacity="0.66" d="M13.4113 23.5618H1.19672C0.954844 23.5618 0.757027 23.3641 0.757027 23.1223C0.757027 22.8805 0.954844 22.6828 1.19672 22.6828H13.4113C13.6532 22.6828 13.851 22.8805 13.851 23.1223C13.8508 23.3641 13.653 23.5618 13.4113 23.5618Z" fill="white"/>
<path id="Vector_4" opacity="0.66" d="M13.4113 7.39634H1.19672C0.954844 7.39634 0.757027 7.19861 0.757027 6.95684C0.757027 6.71507 0.954844 6.51734 1.19672 6.51734H13.4113C13.6532 6.51734 13.851 6.71507 13.851 6.95684C13.8508 7.19861 13.653 7.39634 13.4113 7.39634Z" fill="white"/>
<path id="Vector_5" opacity="0.66" d="M13.4113 11.3511H1.19672C0.954844 11.3511 0.757027 11.1534 0.757027 10.9116C0.757027 10.6699 0.954844 10.4721 1.19672 10.4721H13.4113C13.6532 10.4721 13.851 10.6699 13.851 10.9116C13.8508 11.1534 13.653 11.3511 13.4113 11.3511Z" fill="white"/>
<path id="Vector_6" opacity="0.66" d="M13.7139 15.3057H1.49929C1.25741 15.3057 1.05959 15.108 1.05959 14.8662C1.05959 14.6244 1.25741 14.4267 1.49929 14.4267H13.7139C13.9558 14.4267 14.1536 14.6244 14.1536 14.8662C14.1536 15.108 13.9558 15.3057 13.7139 15.3057Z" fill="white"/>
</g>
</svg>
