<svg width="80" height="100" viewBox="0 0 80 100" fill="none" xmlns="http://www.w3.org/2000/svg">
<g id="Group">
<path id="Vector" d="M12.1103 99.9893C12.126 99.9882 12.1419 99.987 12.1578 99.9857L76.1034 94.5102C77.1552 94.42 78.1073 93.9247 78.7844 93.1152C79.4616 92.3059 79.7808 91.2816 79.6836 90.231L71.6472 3.56818C71.5502 2.52245 71.0515 1.57707 70.243 0.90621C69.4345 0.235354 68.4024 -0.0795427 67.3668 0.0171177L3.56774 5.95977C1.41277 6.16048 -0.180422 8.07661 0.0164492 10.2313V10.2315L7.90632 96.4275C8.10088 98.5577 9.98143 100.146 12.1103 99.9893ZM1.31931 10.1127C1.18776 8.6748 2.25058 7.3963 3.68892 7.26227L67.4879 1.31961C68.1797 1.25294 68.8677 1.46519 69.4071 1.91273C69.9464 2.36028 70.2792 2.99098 70.3436 3.68906L70.7893 8.49602L1.75161 13.574C1.71237 13.577 1.67452 13.5837 1.63759 13.5932L1.31931 10.1127ZM9.20916 96.3084L1.75553 14.8779C1.78599 14.88 1.81669 14.8807 1.84808 14.8784L70.9105 9.79851L78.3803 90.3521C78.4454 91.053 78.2323 91.7363 77.7807 92.2764C77.3288 92.8164 76.6931 93.147 75.9915 93.2072L12.0459 98.6827C12.0353 98.6836 12.0249 98.6843 12.0143 98.6853C10.594 98.7895 9.3391 97.7297 9.20916 96.3084Z" fill="#91B3FA"/>
</g>
</svg>
