<svg width="44" height="32" viewBox="0 0 44 32" fill="none" xmlns="http://www.w3.org/2000/svg">
<g id="Group">
<path id="Vector" d="M43.64 31.7499C43.6328 31.7499 43.6254 31.7494 43.6182 31.7485C43.5243 31.7364 43.4578 31.6507 43.47 31.5568C43.5594 30.8582 43.6223 30.1452 43.6573 29.4377C43.6619 29.3432 43.7442 29.2687 43.8369 29.2752C43.9315 29.2798 44.0044 29.3604 43.9998 29.4547C43.9643 30.1708 43.9005 30.8927 43.8101 31.6004C43.7989 31.6868 43.7251 31.7499 43.64 31.7499ZM43.4304 23.3722C43.3488 23.3722 43.2766 23.314 43.2617 23.2311C42.9209 21.3304 42.3743 19.4612 41.6374 17.6747C41.6374 17.6747 41.6372 17.6737 41.6369 17.6732C37.2943 7.14554 27.0101 0.34255 15.4362 0.34255C10.0386 0.34255 4.79157 1.84129 0.262315 4.67668C0.181939 4.72675 0.0763924 4.70254 0.0260699 4.62243C-0.0240196 4.54209 0.000217259 4.43636 0.0803604 4.38629C4.66436 1.5169 9.97431 0 15.4362 0C27.1501 0 37.5592 6.88636 41.9545 17.544L41.9547 17.5445C42.7007 19.3532 43.254 21.2459 43.5993 23.1703C43.616 23.2635 43.5538 23.3524 43.4609 23.3692C43.4506 23.3715 43.4404 23.3722 43.4304 23.3722Z" fill="#91B3FA"/>
</g>
</svg>
