<svg width="14" height="27" viewBox="0 0 14 27" fill="none" xmlns="http://www.w3.org/2000/svg">
<g id="Group">
<path id="Vector" opacity="0.39" d="M13.226 26.6881H0.773974C0.346467 26.6881 0 26.3418 0 25.9145V0.77362C0 0.346308 0.346467 0 0.773974 0H13.226C13.6535 0 14 0.346308 14 0.77362V25.9145C14 26.3418 13.6535 26.6881 13.226 26.6881Z" fill="white"/>
<path id="Vector_2" opacity="0.66" d="M12.3415 17.7247H1.10065C0.878184 17.7247 0.696126 17.5427 0.696126 17.3204C0.696126 17.098 0.878184 16.916 1.10065 16.916H12.3415C12.5639 16.916 12.746 17.098 12.746 17.3204C12.746 17.5427 12.5639 17.7247 12.3415 17.7247Z" fill="white"/>
<path id="Vector_3" opacity="0.66" d="M12.3415 21.6836H1.10065C0.878184 21.6836 0.696126 21.5017 0.696126 21.2793C0.696126 21.0569 0.878184 20.875 1.10065 20.875H12.3415C12.5639 20.875 12.746 21.0569 12.746 21.2793C12.746 21.5017 12.5639 21.6836 12.3415 21.6836Z" fill="white"/>
<path id="Vector_4" opacity="0.66" d="M12.3415 6.80678H1.10065C0.878184 6.80678 0.696126 6.62482 0.696126 6.40246C0.696126 6.1801 0.878184 5.99813 1.10065 5.99813H12.3415C12.5639 5.99813 12.746 6.1801 12.746 6.40246C12.746 6.62482 12.5639 6.80678 12.3415 6.80678Z" fill="white"/>
<path id="Vector_5" opacity="0.66" d="M12.3415 10.446H1.10065C0.878184 10.446 0.696126 10.264 0.696126 10.0417C0.696126 9.81932 0.878184 9.63735 1.10065 9.63735H12.3415C12.5639 9.63735 12.746 9.81932 12.746 10.0417C12.746 10.264 12.5639 10.446 12.3415 10.446Z" fill="white"/>
<path id="Vector_6" opacity="0.66" d="M12.6202 14.0855H1.37939C1.15693 14.0855 0.974874 13.9035 0.974874 13.6811C0.974874 13.4588 1.15693 13.2768 1.37939 13.2768H12.6202C12.8427 13.2768 13.0247 13.4588 13.0247 13.6811C13.0247 13.9035 12.8427 14.0855 12.6202 14.0855Z" fill="white"/>
</g>
</svg>
