<svg width="16" height="13" viewBox="0 0 16 13" fill="none" xmlns="http://www.w3.org/2000/svg">
<g id="Group">
<path id="Vector" d="M13.4362 12.8336C13.4278 12.8338 13.4194 12.834 13.4107 12.8343L3.79946 12.9995C2.41465 13.0238 1.2456 12.1266 1.08026 10.9128L0.0151674 3.09064C-0.0481184 2.62521 0.0880083 2.15999 0.397899 1.78045C0.744453 1.35633 1.27878 1.08206 1.864 1.02674C2.67247 0.951574 3.78497 0.829514 5.00889 0.695297C7.54616 0.416827 10.7039 0.0704211 12.4848 0.00156218C13.7489 -0.0381192 14.9116 0.681522 15.2495 1.77743C15.8016 3.56823 15.8534 6.97965 15.8602 10.6149C15.8625 11.8072 14.7773 12.7979 13.4362 12.8336ZM1.9392 1.78675C1.56486 1.82176 1.22669 1.9924 1.01185 2.25547C0.835535 2.47161 0.75754 2.73234 0.792802 2.99003L1.85793 10.8122C1.97072 11.6413 2.79949 12.2538 3.78544 12.2363L13.397 12.071C14.3023 12.0313 15.0774 11.402 15.0762 10.6161C15.0697 7.03941 15.0204 3.68891 14.4985 1.99615C14.2671 1.24663 13.4166 0.727263 12.5161 0.76391C10.7635 0.831368 7.62161 1.17613 5.09695 1.4532C3.86813 1.58812 2.75094 1.71065 1.9392 1.78675Z" fill="#BDD0FB"/>
</g>
</svg>
