<svg width="16" height="27" viewBox="0 0 16 27" fill="none" xmlns="http://www.w3.org/2000/svg">
<g id="Group">
<path id="Vector" opacity="0.39" d="M14.4442 27H0.773189C0.346115 27 0 26.654 0 26.2272V0.772835C0 0.345957 0.346115 0 0.773189 0H14.4442C14.8713 0 15.2174 0.345957 15.2174 0.772835V26.2272C15.2174 26.654 14.8713 27 14.4442 27Z" fill="white"/>
<path id="Vector_2" opacity="0.66" d="M13.4456 17.9317H1.16648C0.941461 17.9317 0.75726 17.7476 0.75726 17.5227C0.75726 17.2978 0.941461 17.1136 1.16648 17.1136H13.4456C13.6706 17.1136 13.8548 17.2978 13.8548 17.5227C13.8551 17.7478 13.6706 17.9317 13.4456 17.9317Z" fill="white"/>
<path id="Vector_3" opacity="0.66" d="M13.4456 21.9368H1.16648C0.941461 21.9368 0.75726 21.7527 0.75726 21.5278C0.75726 21.3029 0.941461 21.1187 1.16648 21.1187H13.4456C13.6706 21.1187 13.8548 21.3029 13.8548 21.5278C13.8551 21.7527 13.6706 21.9368 13.4456 21.9368Z" fill="white"/>
<path id="Vector_4" opacity="0.66" d="M13.4456 6.88619H1.16648C0.941461 6.88619 0.75726 6.70209 0.75726 6.47717C0.75726 6.25226 0.941461 6.06814 1.16648 6.06814H13.4456C13.6706 6.06814 13.8548 6.25226 13.8548 6.47717C13.8551 6.70209 13.6706 6.88619 13.4456 6.88619Z" fill="white"/>
<path id="Vector_5" opacity="0.66" d="M13.4456 10.5681H1.16648C0.941461 10.5681 0.75726 10.384 0.75726 10.159C0.75726 9.93412 0.941461 9.75002 1.16648 9.75002H13.4456C13.6706 9.75002 13.8548 9.93412 13.8548 10.159C13.8551 10.384 13.6706 10.5681 13.4456 10.5681Z" fill="white"/>
<path id="Vector_6" opacity="0.66" d="M13.7484 14.2499H1.46926C1.24424 14.2499 1.06004 14.0658 1.06004 13.8409C1.06004 13.616 1.24424 13.4319 1.46926 13.4319H13.7484C13.9734 13.4319 14.1576 13.616 14.1576 13.8409C14.1576 14.0658 13.9734 14.2499 13.7484 14.2499Z" fill="white"/>
</g>
</svg>
