<svg width="89" height="124" viewBox="0 0 89 124" fill="none" xmlns="http://www.w3.org/2000/svg">
<g id="Group">
<path id="Vector" d="M79.1287 7.36165L84.2724 7.62369C86.8164 7.75333 88.8103 9.85696 88.8025 12.403L88.4276 118.087C88.4191 120.865 86.1495 123.104 83.3707 123.078L48.0559 122.735L79.1287 7.36165Z" fill="#7D97F4"/>
<path id="Vector_2" d="M17.4668 8.18041L82.6099 4.27282C83.9575 4.19205 85.0873 5.2776 85.06 6.62656L82.5018 116.05C82.4472 118.733 80.2152 120.858 77.5317 120.781L31.6973 119.473L17.4668 8.18041Z" fill="#91B3FA"/>
<path id="Vector_3" d="M20.977 10.7824L78.2192 2.80429C79.6907 2.59916 81.0003 3.75033 80.9849 5.23535L79.6723 115.726C79.6537 117.513 78.2373 118.973 76.4502 119.046L34.2888 120.77L20.977 10.7824Z" fill="#BDD0FB"/>
<path id="Vector_4" d="M5.83647 4.6567L68.6422 0.0150946C71.7723 -0.216194 74.4489 2.23964 74.4854 5.37673L75.992 118.518C76.0225 121.143 73.9184 123.295 71.2925 123.326L13.3449 124C10.6108 124.032 8.32924 121.92 8.15041 119.193L0.0137291 11.3494C-0.212615 7.8991 2.38644 4.91162 5.83647 4.6567Z" fill="#7D97F4"/>
<path id="Vector_5" d="M75.9631 50.9121L74.0681 50.9341C71.8935 50.9594 70.1101 49.2178 70.0846 47.0442L69.7267 16.2897C69.7015 14.1161 71.4438 12.3335 73.6184 12.3082L75.5134 12.2862C77.6881 12.2609 79.4715 14.0025 79.4967 16.1763L79.8546 46.9306C79.8801 49.1042 78.1378 50.8868 75.9631 50.9121Z" fill="#7D97F4"/>
</g>
</svg>
