<svg width="16" height="13" viewBox="0 0 16 13" fill="none" xmlns="http://www.w3.org/2000/svg">
<g id="Group">
<path id="Vector" d="M13.4356 12.8331C13.4267 12.8333 13.4179 12.8336 13.4092 12.8338L3.7991 12.9995C2.41418 13.0233 1.24525 12.1262 1.08016 10.913L0.015166 3.09157C-0.0481138 2.62571 0.0879998 2.16078 0.397861 1.78128C0.744382 1.35696 1.27866 1.0827 1.86382 1.02809C2.67291 0.952936 3.78648 0.830402 5.01192 0.696199C7.67971 0.403518 10.7036 0.071411 12.4836 0.00255863C12.4967 0.00232524 12.5098 0.00136748 12.5228 0.00113409C13.7966 -0.0327086 14.9139 0.693879 15.2483 1.77871C15.8003 3.56887 15.8521 6.98044 15.8587 10.6154C15.8608 11.8073 14.7762 12.7974 13.4356 12.8331ZM1.93876 1.7878C1.56422 1.82258 1.22634 1.99319 1.01175 2.25599C0.835222 2.47165 0.757473 2.73283 0.792498 2.99097L1.85752 10.8124C1.9703 11.6414 2.79901 12.2533 3.7851 12.2363L13.3952 12.0706C13.4013 12.0704 13.4078 12.0704 13.4141 12.0701C14.3325 12.0459 15.0755 11.3968 15.0743 10.6163C15.0678 7.03996 15.0185 3.68952 14.4969 1.99715C14.2655 1.24724 13.4148 0.718598 12.5147 0.764577C10.7629 0.832262 7.62274 1.17699 5.09925 1.4538C3.86915 1.58917 2.75089 1.71171 1.93876 1.7878Z" fill="#BDD0FB"/>
</g>
</svg>
