<svg width="14" height="25" viewBox="0 0 14 25" fill="none" xmlns="http://www.w3.org/2000/svg">
<g id="Group">
<path id="Vector" opacity="0.39" d="M13.226 24.84H0.773974C0.346467 24.84 0 24.4937 0 24.0664V0.77362C0 0.346308 0.346467 0 0.773974 0H13.226C13.6535 0 14 0.346308 14 0.77362V24.0662C14 24.4937 13.6535 24.84 13.226 24.84Z" fill="white"/>
<path id="Vector_2" opacity="0.66" d="M12.3697 16.4973H1.0729C0.865762 16.4973 0.69625 16.3279 0.69625 16.1208C0.69625 15.9138 0.865762 15.7443 1.0729 15.7443H12.3697C12.5768 15.7443 12.7463 15.9138 12.7463 16.1208C12.7463 16.3279 12.5768 16.4973 12.3697 16.4973Z" fill="white"/>
<path id="Vector_3" opacity="0.66" d="M12.3697 20.182H1.0729C0.865762 20.182 0.69625 20.0126 0.69625 19.8056C0.69625 19.5985 0.865762 19.4291 1.0729 19.4291H12.3697C12.5768 19.4291 12.7463 19.5985 12.7463 19.8056C12.7463 20.0126 12.5768 20.182 12.3697 20.182Z" fill="white"/>
<path id="Vector_4" opacity="0.66" d="M12.3697 6.33539H1.0729C0.865762 6.33539 0.69625 6.16595 0.69625 5.95891C0.69625 5.75187 0.865762 5.58266 1.0729 5.58266H12.3697C12.5768 5.58266 12.7463 5.7521 12.7463 5.95891C12.7463 6.16618 12.5768 6.33539 12.3697 6.33539Z" fill="white"/>
<path id="Vector_5" opacity="0.66" d="M12.3697 9.7228H1.0729C0.865762 9.7228 0.69625 9.55336 0.69625 9.34655C0.69625 9.13951 0.865762 8.97007 1.0729 8.97007H12.3697C12.5768 8.97007 12.7463 9.13951 12.7463 9.34655C12.7463 9.55336 12.5768 9.7228 12.3697 9.7228Z" fill="white"/>
<path id="Vector_6" opacity="0.66" d="M12.6483 13.1099H1.35153C1.14439 13.1099 0.974874 12.9405 0.974874 12.7337C0.974874 12.5266 1.14439 12.3572 1.35153 12.3572H12.6483C12.8555 12.3572 13.025 12.5266 13.025 12.7337C13.025 12.9407 12.8555 13.1099 12.6483 13.1099Z" fill="white"/>
</g>
</svg>
