<svg width="30" height="30" viewBox="0 0 30 30" fill="none" xmlns="http://www.w3.org/2000/svg">
<g id="file-list">
<path id="file-list_2" d="M24.0625 10.3125H21.25C19.275 10.3125 18.4375 9.475 18.4375 7.5V4.6875L24.0625 10.3125ZM25 12.1875V22.5C25 25 23.75 26.25 21.25 26.25H10C7.5 26.25 6.25 25 6.25 22.5V7.5C6.25 5 7.5 3.75 10 3.75H16.5625V7.5C16.5625 10.525 18.225 12.1875 21.25 12.1875H25ZM12.1875 20C12.1875 19.4825 11.7675 19.0625 11.25 19.0625C10.7325 19.0625 10.3125 19.4825 10.3125 20C10.3125 20.5175 10.7325 20.9375 11.25 20.9375C11.7675 20.9375 12.1875 20.5175 12.1875 20ZM12.1875 15C12.1875 14.4825 11.7675 14.0625 11.25 14.0625C10.7325 14.0625 10.3125 14.4825 10.3125 15C10.3125 15.5175 10.7325 15.9375 11.25 15.9375C11.7675 15.9375 12.1875 15.5175 12.1875 15ZM20.9375 20C20.9375 19.4825 20.5175 19.0625 20 19.0625H14.375C13.8575 19.0625 13.4375 19.4825 13.4375 20C13.4375 20.5175 13.8575 20.9375 14.375 20.9375H20C20.5175 20.9375 20.9375 20.5175 20.9375 20ZM20.9375 15C20.9375 14.4825 20.5175 14.0625 20 14.0625H14.375C13.8575 14.0625 13.4375 14.4825 13.4375 15C13.4375 15.5175 13.8575 15.9375 14.375 15.9375H20C20.5175 15.9375 20.9375 15.5175 20.9375 15Z" fill="white"/>
</g>
</svg>
