<svg width="14" height="25" viewBox="0 0 14 25" fill="none" xmlns="http://www.w3.org/2000/svg">
<g id="Group">
<path id="Vector" opacity="0.39" d="M13.2187 24.8399H0.781262C0.349725 24.8399 0 24.4903 0 24.059V0.780911C0 0.349572 0.349725 0 0.781262 0H13.2187C13.6503 0 14 0.349572 14 0.780911V24.059C14.0002 24.4903 13.6503 24.8399 13.2187 24.8399Z" fill="white"/>
<path id="Vector_2" opacity="0.66" d="M12.3696 16.4971H1.07278C0.865805 16.4971 0.696327 16.3277 0.696327 16.1208C0.696327 15.9137 0.865805 15.7446 1.07278 15.7446H12.3696C12.5768 15.7446 12.7461 15.9139 12.7461 16.1208C12.7463 16.3279 12.5768 16.4971 12.3696 16.4971Z" fill="white"/>
<path id="Vector_3" opacity="0.66" d="M12.3696 20.1819H1.07278C0.865805 20.1819 0.696327 20.0125 0.696327 19.8056C0.696327 19.5987 0.865805 19.4293 1.07278 19.4293H12.3696C12.5768 19.4293 12.7461 19.5987 12.7461 19.8056C12.7463 20.0125 12.5768 20.1819 12.3696 20.1819Z" fill="white"/>
<path id="Vector_4" opacity="0.66" d="M12.3696 6.33541H1.07278C0.865805 6.33541 0.696327 6.16602 0.696327 5.95914C0.696327 5.75202 0.865805 5.58284 1.07278 5.58284H12.3696C12.5768 5.58284 12.7461 5.75225 12.7461 5.95914C12.7463 6.16602 12.5768 6.33541 12.3696 6.33541Z" fill="white"/>
<path id="Vector_5" opacity="0.66" d="M12.3696 9.72263H1.07278C0.865805 9.72263 0.696327 9.55321 0.696327 9.34633C0.696327 9.13921 0.865805 8.97006 1.07278 8.97006H12.3696C12.5768 8.97006 12.7461 9.13944 12.7461 9.34633C12.7463 9.55321 12.5768 9.72263 12.3696 9.72263Z" fill="white"/>
<path id="Vector_6" opacity="0.66" d="M12.6484 13.1098H1.35153C1.14455 13.1098 0.975082 12.9404 0.975082 12.7335C0.975082 12.5267 1.14455 12.3573 1.35153 12.3573H12.6484C12.8556 12.3573 13.0248 12.5267 13.0248 12.7335C13.0251 12.9404 12.8556 13.1098 12.6484 13.1098Z" fill="white"/>
</g>
</svg>
