<svg width="16" height="27" viewBox="0 0 16 27" fill="none" xmlns="http://www.w3.org/2000/svg">
<g id="Group">
<path id="Vector" opacity="0.39" d="M14.4441 27H0.773182C0.346112 27 0 26.654 0 26.2272V0.772828C0 0.345953 0.346112 0 0.773182 0H14.4441C14.8711 0 15.2173 0.345953 15.2173 0.772828V26.2269C15.2173 26.6538 14.8711 27 14.4441 27Z" fill="white"/>
<path id="Vector_2" opacity="0.66" d="M13.445 17.9318H1.16597C0.940951 17.9318 0.75676 17.7477 0.75676 17.5228C0.75676 17.2979 0.940951 17.1137 1.16597 17.1137H13.445C13.67 17.1137 13.8542 17.2979 13.8542 17.5228C13.8544 17.7477 13.6702 17.9318 13.445 17.9318Z" fill="white"/>
<path id="Vector_3" opacity="0.66" d="M13.445 21.9366H1.16597C0.940951 21.9366 0.75676 21.7525 0.75676 21.5276C0.75676 21.3027 0.940951 21.1186 1.16597 21.1186H13.445C13.67 21.1186 13.8542 21.3027 13.8542 21.5276C13.8544 21.7525 13.6702 21.9366 13.445 21.9366Z" fill="white"/>
<path id="Vector_4" opacity="0.66" d="M13.445 6.88638H1.16597C0.940951 6.88638 0.75676 6.70226 0.75676 6.47735C0.75676 6.25243 0.940951 6.06833 1.16597 6.06833H13.445C13.67 6.06833 13.8542 6.25243 13.8542 6.47735C13.8544 6.70226 13.6702 6.88638 13.445 6.88638Z" fill="white"/>
<path id="Vector_5" opacity="0.66" d="M13.445 10.568H1.16597C0.940951 10.568 0.75676 10.3839 0.75676 10.159C0.75676 9.93404 0.940951 9.74993 1.16597 9.74993H13.445C13.67 9.74993 13.8542 9.93404 13.8542 10.159C13.8544 10.3839 13.6702 10.568 13.445 10.568Z" fill="white"/>
<path id="Vector_6" opacity="0.66" d="M13.7479 14.2499H1.46887C1.24385 14.2499 1.05966 14.0658 1.05966 13.8408C1.05966 13.6159 1.24385 13.4318 1.46887 13.4318H13.7479C13.9729 13.4318 14.1571 13.6159 14.1571 13.8408C14.1571 14.0658 13.9729 14.2499 13.7479 14.2499Z" fill="white"/>
</g>
</svg>
