<svg width="14" height="27" viewBox="0 0 14 27" fill="none" xmlns="http://www.w3.org/2000/svg">
<g id="Group">
<path id="Vector" opacity="0.39" d="M13.226 26.6881H0.773974C0.346467 26.6881 0 26.3418 0 25.9145V0.77362C0 0.346308 0.346467 0 0.773974 0H13.226C13.6535 0 14 0.346308 14 0.77362V25.9145C14 26.3415 13.6535 26.6881 13.226 26.6881Z" fill="white"/>
<path id="Vector_2" opacity="0.66" d="M12.342 17.7245H1.10114C0.878678 17.7245 0.696621 17.5425 0.696621 17.3202C0.696621 17.0978 0.878678 16.9158 1.10114 16.9158H12.342C12.5644 16.9158 12.7465 17.0978 12.7465 17.3202C12.7465 17.5425 12.5644 17.7245 12.342 17.7245Z" fill="white"/>
<path id="Vector_3" opacity="0.66" d="M12.342 21.6834H1.10114C0.878678 21.6834 0.696621 21.5015 0.696621 21.2791C0.696621 21.0567 0.878678 20.8748 1.10114 20.8748H12.342C12.5644 20.8748 12.7465 21.0567 12.7465 21.2791C12.7465 21.5015 12.5644 21.6834 12.342 21.6834Z" fill="white"/>
<path id="Vector_4" opacity="0.66" d="M12.342 6.80661H1.10114C0.878678 6.80661 0.696621 6.62464 0.696621 6.40228C0.696621 6.17992 0.878678 5.99794 1.10114 5.99794H12.342C12.5644 5.99794 12.7465 6.17992 12.7465 6.40228C12.7465 6.62464 12.5644 6.80661 12.342 6.80661Z" fill="white"/>
<path id="Vector_5" opacity="0.66" d="M12.342 10.4461H1.10114C0.878678 10.4461 0.696621 10.2641 0.696621 10.0417C0.696621 9.81938 0.878678 9.63741 1.10114 9.63741H12.342C12.5644 9.63741 12.7465 9.81938 12.7465 10.0417C12.7465 10.2641 12.5644 10.4461 12.342 10.4461Z" fill="white"/>
<path id="Vector_6" opacity="0.66" d="M12.6206 14.0853H1.37976C1.15729 14.0853 0.975244 13.9033 0.975244 13.681C0.975244 13.4586 1.15729 13.2766 1.37976 13.2766H12.6206C12.8431 13.2766 13.0251 13.4586 13.0251 13.681C13.0251 13.9033 12.8431 14.0853 12.6206 14.0853Z" fill="white"/>
</g>
</svg>
