<svg width="51" height="51" viewBox="0 0 51 51" fill="none" xmlns="http://www.w3.org/2000/svg">
<g id="Group">
<path id="Vector" d="M46.3989 40.155C46.5111 40.0286 46.5306 39.8452 46.4475 39.6982L44.0839 35.5059C45.1847 33.47 45.9221 31.2985 46.3031 29.0823L50.7554 27.2431C50.9115 27.1787 51.0094 27.0224 50.9992 26.854L50.6537 21.0883C50.6435 20.9199 50.5277 20.7763 50.3649 20.731L45.7248 19.4362C45.0818 17.2813 44.0901 15.2134 42.7539 13.3236L44.5996 8.87909C44.6643 8.72329 44.6231 8.54333 44.4967 8.43149L40.1736 4.59892C40.0472 4.48685 39.8637 4.46729 39.7166 4.55036L35.5224 6.91287C33.4855 5.81262 31.3131 5.07552 29.0959 4.69465L27.2559 0.244422C27.1914 0.0883946 27.0348 -0.00940797 26.8663 0.000717697L21.098 0.346139C20.9295 0.356265 20.7858 0.472019 20.7405 0.63472L19.4454 5.27274C17.2895 5.91572 15.2206 6.90688 13.3299 8.24232L8.88339 6.39738C8.72752 6.33271 8.54771 6.37391 8.43558 6.50025L4.60126 10.8214C4.48914 10.9477 4.46957 11.1311 4.55246 11.2782L6.91604 15.4704C5.81529 17.5064 5.07784 19.6779 4.6968 21.894L0.244541 23.7332C0.0884421 23.7977 -0.00941233 23.9541 0.00071798 24.1226L0.346294 29.8882C0.356425 30.0567 0.472469 30.2003 0.635015 30.2456L5.27516 31.5401C5.91843 33.695 6.91005 35.7627 8.2461 37.6528L6.40032 42.0973C6.33562 42.2531 6.37682 42.433 6.50322 42.5449L10.8263 46.3774C10.9527 46.4895 11.1362 46.5091 11.2834 46.426L15.4775 44.0632C17.5144 45.1635 19.6869 45.9006 21.9041 46.2815L23.7441 50.7317C23.8086 50.8877 23.9651 50.9855 24.1336 50.9756L29.9019 50.6302C30.0705 50.6201 30.2141 50.5041 30.2595 50.3416L31.5546 45.7036C33.7105 45.0606 35.7791 44.0695 37.67 42.734L42.1166 44.579C42.2724 44.6436 42.4525 44.6024 42.5644 44.4761L46.3989 40.155ZM23.1386 30.0413C20.6228 28.7376 19.6406 25.6424 20.9447 23.1277C22.249 20.6131 25.3456 19.6314 27.8614 20.9348C30.3772 22.2385 31.3596 25.3338 30.0553 27.8484C28.7512 30.363 25.6544 31.345 23.1386 30.0413Z" fill="#91B3FA"/>
</g>
</svg>
