<svg width="14" height="27" viewBox="0 0 14 27" fill="none" xmlns="http://www.w3.org/2000/svg">
<g id="Group">
<path id="Vector" opacity="0.39" d="M13.2187 26.688H0.781269C0.349732 26.688 0 26.3384 0 25.9071V0.780911C0 0.349572 0.349732 0 0.781269 0H13.2187C13.6503 0 14 0.349572 14 0.780911V25.9071C14 26.3384 13.6503 26.688 13.2187 26.688Z" fill="white"/>
<path id="Vector_2" opacity="0.66" d="M12.342 17.7247H1.10116C0.878711 17.7247 0.696576 17.5426 0.696576 17.3203C0.696576 17.0979 0.878711 16.9159 1.10116 16.9159H12.342C12.5644 16.9159 12.7466 17.0979 12.7466 17.3203C12.7463 17.5426 12.5644 17.7247 12.342 17.7247Z" fill="white"/>
<path id="Vector_3" opacity="0.66" d="M12.342 21.6833H1.10116C0.878711 21.6833 0.696576 21.5013 0.696576 21.2789C0.696576 21.0566 0.878711 20.8745 1.10116 20.8745H12.342C12.5644 20.8745 12.7466 21.0566 12.7466 21.2789C12.7463 21.5013 12.5644 21.6833 12.342 21.6833Z" fill="white"/>
<path id="Vector_4" opacity="0.66" d="M12.342 6.80677H1.10116C0.878711 6.80677 0.696576 6.62471 0.696576 6.40236C0.696576 6.18001 0.878711 5.99798 1.10116 5.99798H12.342C12.5644 5.99798 12.7466 6.18001 12.7466 6.40236C12.7463 6.62471 12.5644 6.80677 12.342 6.80677Z" fill="white"/>
<path id="Vector_5" opacity="0.66" d="M12.342 10.4461H1.10116C0.878711 10.4461 0.696576 10.264 0.696576 10.0417C0.696576 9.81933 0.878711 9.63726 1.10116 9.63726H12.342C12.5644 9.63726 12.7466 9.81933 12.7466 10.0417C12.7463 10.264 12.5644 10.4461 12.342 10.4461Z" fill="white"/>
<path id="Vector_6" opacity="0.66" d="M12.6205 14.0854H1.37966C1.15721 14.0854 0.975082 13.9033 0.975082 13.681C0.975082 13.4586 1.15721 13.2766 1.37966 13.2766H12.6205C12.8429 13.2766 13.0251 13.4586 13.0251 13.681C13.0251 13.9033 12.8429 14.0854 12.6205 14.0854Z" fill="white"/>
</g>
</svg>
