<svg width="16" height="27" viewBox="0 0 16 27" fill="none" xmlns="http://www.w3.org/2000/svg">
<g id="Group">
<path id="Vector" opacity="0.39" d="M14.4441 27H0.773182C0.346112 27 0 26.654 0 26.2272V0.772828C0 0.345953 0.346112 0 0.773182 0H14.4441C14.8711 0 15.2173 0.345953 15.2173 0.772828V26.2269C15.2175 26.6538 14.8711 27 14.4441 27Z" fill="white"/>
<path id="Vector_2" opacity="0.66" d="M13.4452 17.9318H1.16621C0.941191 17.9318 0.757006 17.7477 0.757006 17.5228C0.757006 17.2978 0.941191 17.1137 1.16621 17.1137H13.4452C13.6703 17.1137 13.8544 17.2978 13.8544 17.5228C13.8544 17.7477 13.6703 17.9318 13.4452 17.9318Z" fill="white"/>
<path id="Vector_3" opacity="0.66" d="M13.4452 21.9368H1.16621C0.941191 21.9368 0.757006 21.7527 0.757006 21.5278C0.757006 21.3029 0.941191 21.1188 1.16621 21.1188H13.4452C13.6703 21.1188 13.8544 21.3029 13.8544 21.5278C13.8544 21.7527 13.6703 21.9368 13.4452 21.9368Z" fill="white"/>
<path id="Vector_4" opacity="0.66" d="M13.4452 6.88632H1.16621C0.941191 6.88632 0.757006 6.70222 0.757006 6.4773C0.757006 6.25239 0.941191 6.06827 1.16621 6.06827H13.4452C13.6703 6.06827 13.8544 6.25239 13.8544 6.4773C13.8544 6.70222 13.6703 6.88632 13.4452 6.88632Z" fill="white"/>
<path id="Vector_5" opacity="0.66" d="M13.4452 10.5683H1.16621C0.941191 10.5683 0.757006 10.3842 0.757006 10.1593C0.757006 9.93434 0.941191 9.75024 1.16621 9.75024H13.4452C13.6703 9.75024 13.8544 9.93434 13.8544 10.1593C13.8544 10.3842 13.6703 10.5683 13.4452 10.5683Z" fill="white"/>
<path id="Vector_6" opacity="0.66" d="M13.7479 14.2499H1.46886C1.24385 14.2499 1.05966 14.0658 1.05966 13.8408C1.05966 13.6159 1.24385 13.4318 1.46886 13.4318H13.7479C13.9729 13.4318 14.1571 13.6159 14.1571 13.8408C14.1571 14.0658 13.9731 14.2499 13.7479 14.2499Z" fill="white"/>
</g>
</svg>
