<svg width="8" height="7" viewBox="0 0 8 7" fill="none" xmlns="http://www.w3.org/2000/svg">
<path id="Vector" d="M6.60441 6.77866C6.60041 6.77866 6.59641 6.77843 6.59217 6.77843L1.66623 6.60567C0.955797 6.58072 0.381705 6.07654 0.330607 5.43328L0.00281657 1.28985C-0.016728 1.04294 0.0659275 0.801706 0.235706 0.610116C0.425265 0.396166 0.706897 0.266244 1.00831 0.253299C1.42322 0.235411 2.0079 0.200575 2.62697 0.163858C3.93433 0.0859507 5.56125 -0.0107898 6.47514 0.000978611C7.13188 0.00968726 7.70009 0.424652 7.84255 1.01072C8.07544 1.96773 8.00715 3.7636 7.90943 5.6762C7.8774 6.3044 7.29318 6.79679 6.60441 6.77866ZM6.48525 0.405576C6.48007 0.405341 6.47513 0.405346 6.46995 0.405346C5.57066 0.393578 3.95176 0.489835 2.65123 0.567507C2.03027 0.60446 1.44393 0.63929 1.02573 0.657178C0.833342 0.665416 0.656029 0.74591 0.538762 0.877951C0.442687 0.986456 0.395589 1.12133 0.406421 1.25784L0.734212 5.40127C0.768827 5.83977 1.17573 6.18365 1.68059 6.2013L6.60653 6.37407C6.60935 6.37407 6.61241 6.3743 6.61524 6.3743C7.08619 6.38677 7.48462 6.06597 7.50558 5.65572C7.60165 3.77418 7.66971 2.01033 7.44954 1.10628C7.35323 0.710626 6.94914 0.417815 6.48525 0.405576Z" fill="white"/>
</svg>
