<svg width="16" height="29" viewBox="0 0 16 29" fill="none" xmlns="http://www.w3.org/2000/svg">
<g id="Group">
<path id="Vector" opacity="0.39" d="M14.4398 29H0.772951C0.346009 29 0 28.6542 0 28.2274V0.772597C0 0.34585 0.346009 0 0.772951 0H14.4398C14.8667 0 15.2127 0.34585 15.2127 0.772597V28.2274C15.2127 28.6542 14.8667 29 14.4398 29Z" fill="white"/>
<path id="Vector_2" opacity="0.66" d="M13.4107 19.2602H1.19611C0.954234 19.2602 0.75641 19.0625 0.75641 18.8207C0.75641 18.5789 0.954234 18.3812 1.19611 18.3812H13.4107C13.6526 18.3812 13.8504 18.5789 13.8504 18.8207C13.8504 19.0625 13.6526 19.2602 13.4107 19.2602Z" fill="white"/>
<path id="Vector_3" opacity="0.66" d="M13.4107 23.5619H1.19611C0.954234 23.5619 0.75641 23.3642 0.75641 23.1224C0.75641 22.8809 0.954234 22.6832 1.19611 22.6832H13.4107C13.6526 22.6832 13.8504 22.8809 13.8504 23.1224C13.8504 23.3642 13.6526 23.5619 13.4107 23.5619Z" fill="white"/>
<path id="Vector_4" opacity="0.66" d="M13.4107 7.39658H1.19611C0.954234 7.39658 0.75641 7.19885 0.75641 6.95709C0.75641 6.71532 0.954234 6.51759 1.19611 6.51759H13.4107C13.6526 6.51759 13.8504 6.71532 13.8504 6.95709C13.8504 7.19885 13.6526 7.39658 13.4107 7.39658Z" fill="white"/>
<path id="Vector_5" opacity="0.66" d="M13.4107 11.3511H1.19611C0.954234 11.3511 0.75641 11.1534 0.75641 10.9116C0.75641 10.6699 0.954234 10.4721 1.19611 10.4721H13.4107C13.6526 10.4721 13.8504 10.6699 13.8504 10.9116C13.8504 11.1534 13.6526 11.3511 13.4107 11.3511Z" fill="white"/>
<path id="Vector_6" opacity="0.66" d="M13.7134 15.3057H1.49881C1.25717 15.3057 1.05934 15.108 1.05934 14.8662C1.05934 14.6244 1.25717 14.4267 1.49881 14.4267H13.7134C13.9553 14.4267 14.1531 14.6244 14.1531 14.8662C14.1529 15.108 13.9551 15.3057 13.7134 15.3057Z" fill="white"/>
</g>
</svg>
