<svg width="16" height="27" viewBox="0 0 16 27" fill="none" xmlns="http://www.w3.org/2000/svg">
<g id="Group">
<path id="Vector" opacity="0.39" d="M14.4442 27H0.773189C0.346115 27 0 26.654 0 26.2272V0.772835C0 0.345957 0.346115 0 0.773189 0H14.4442C14.8713 0 15.2174 0.345957 15.2174 0.772835V26.2272C15.2174 26.654 14.8713 27 14.4442 27Z" fill="white"/>
<path id="Vector_2" opacity="0.66" d="M13.4451 17.9317H1.16599C0.940967 17.9317 0.756767 17.7476 0.756767 17.5227C0.756767 17.2978 0.940967 17.1136 1.16599 17.1136H13.4451C13.6701 17.1136 13.8543 17.2978 13.8543 17.5227C13.8543 17.7478 13.6701 17.9317 13.4451 17.9317Z" fill="white"/>
<path id="Vector_3" opacity="0.66" d="M13.4451 21.9368H1.16599C0.940967 21.9368 0.756767 21.7527 0.756767 21.5278C0.756767 21.3029 0.940967 21.1187 1.16599 21.1187H13.4451C13.6701 21.1187 13.8543 21.3029 13.8543 21.5278C13.8543 21.7527 13.6701 21.9368 13.4451 21.9368Z" fill="white"/>
<path id="Vector_4" opacity="0.66" d="M13.4451 6.88619H1.16599C0.940967 6.88619 0.756767 6.70209 0.756767 6.47717C0.756767 6.25226 0.940967 6.06814 1.16599 6.06814H13.4451C13.6701 6.06814 13.8543 6.25226 13.8543 6.47717C13.8543 6.70209 13.6701 6.88619 13.4451 6.88619Z" fill="white"/>
<path id="Vector_5" opacity="0.66" d="M13.4451 10.5681H1.16599C0.940967 10.5681 0.756767 10.384 0.756767 10.159C0.756767 9.93412 0.940967 9.75002 1.16599 9.75002H13.4451C13.6701 9.75002 13.8543 9.93412 13.8543 10.159C13.8543 10.384 13.6701 10.5681 13.4451 10.5681Z" fill="white"/>
<path id="Vector_6" opacity="0.66" d="M13.7482 14.2499H1.46901C1.24399 14.2499 1.05979 14.0658 1.05979 13.8409C1.05979 13.616 1.24399 13.4319 1.46901 13.4319H13.7482C13.9732 13.4319 14.1573 13.616 14.1573 13.8409C14.1573 14.0658 13.9732 14.2499 13.7482 14.2499Z" fill="white"/>
</g>
</svg>
