<svg width="16" height="27" viewBox="0 0 16 27" fill="none" xmlns="http://www.w3.org/2000/svg">
<g id="Group">
<path id="Vector" opacity="0.39" d="M14.4441 27H0.773168C0.346098 27 0 26.654 0 26.2272V0.772828C0 0.345953 0.346098 0 0.773168 0H14.4441C14.8711 0 15.2172 0.345953 15.2172 0.772828V26.2269C15.2175 26.654 14.8711 27 14.4441 27Z" fill="white"/>
<path id="Vector_2" opacity="0.66" d="M13.4452 17.9318H1.16621C0.941191 17.9318 0.757006 17.7477 0.757006 17.5228C0.757006 17.2979 0.941191 17.1137 1.16621 17.1137H13.4452C13.6703 17.1137 13.8545 17.2979 13.8545 17.5228C13.8545 17.7477 13.6703 17.9318 13.4452 17.9318Z" fill="white"/>
<path id="Vector_3" opacity="0.66" d="M13.4452 21.9369H1.16621C0.941191 21.9369 0.757006 21.7528 0.757006 21.5279C0.757006 21.303 0.941191 21.1189 1.16621 21.1189H13.4452C13.6703 21.1189 13.8545 21.303 13.8545 21.5279C13.8545 21.7528 13.6703 21.9369 13.4452 21.9369Z" fill="white"/>
<path id="Vector_4" opacity="0.66" d="M13.4452 6.88638H1.16621C0.941191 6.88638 0.757006 6.70228 0.757006 6.47736C0.757006 6.25245 0.941191 6.06833 1.16621 6.06833H13.4452C13.6703 6.06833 13.8545 6.25245 13.8545 6.47736C13.8545 6.70228 13.6703 6.88638 13.4452 6.88638Z" fill="white"/>
<path id="Vector_5" opacity="0.66" d="M13.4452 10.5682H1.16621C0.941191 10.5682 0.757006 10.3841 0.757006 10.1592C0.757006 9.93428 0.941191 9.75018 1.16621 9.75018H13.4452C13.6703 9.75018 13.8545 9.93428 13.8545 10.1592C13.8545 10.3841 13.6703 10.5682 13.4452 10.5682Z" fill="white"/>
<path id="Vector_6" opacity="0.66" d="M13.7479 14.2499H1.46886C1.24385 14.2499 1.05966 14.0658 1.05966 13.8408C1.05966 13.6159 1.24385 13.4318 1.46886 13.4318H13.7479C13.9729 13.4318 14.1571 13.6159 14.1571 13.8408C14.1573 14.066 13.9731 14.2499 13.7479 14.2499Z" fill="white"/>
</g>
</svg>
