<svg width="16" height="29" viewBox="0 0 16 29" fill="none" xmlns="http://www.w3.org/2000/svg">
<g id="Group">
<path id="Vector" opacity="0.39" d="M14.4398 29H0.772951C0.346009 29 0 28.6542 0 28.2274V0.772597C0 0.34585 0.346009 0 0.772951 0H14.4398C14.8667 0 15.2127 0.34585 15.2127 0.772597V28.2274C15.2127 28.6542 14.8665 29 14.4398 29Z" fill="white"/>
<path id="Vector_2" opacity="0.66" d="M13.4107 19.2602H1.19611C0.954227 19.2602 0.75641 19.0625 0.75641 18.8209C0.75641 18.5792 0.954227 18.3814 1.19611 18.3814H13.4107C13.6524 18.3814 13.8504 18.5792 13.8504 18.8209C13.8502 19.0625 13.6524 19.2602 13.4107 19.2602Z" fill="white"/>
<path id="Vector_3" opacity="0.66" d="M13.4107 23.5617H1.19611C0.954227 23.5617 0.75641 23.364 0.75641 23.1222C0.75641 22.8805 0.954227 22.6827 1.19611 22.6827H13.4107C13.6524 22.6827 13.8504 22.8805 13.8504 23.1222C13.8502 23.364 13.6524 23.5617 13.4107 23.5617Z" fill="white"/>
<path id="Vector_4" opacity="0.66" d="M13.4107 7.39664H1.19611C0.954227 7.39664 0.75641 7.19892 0.75641 6.95715C0.75641 6.71538 0.954227 6.51765 1.19611 6.51765H13.4107C13.6524 6.51765 13.8504 6.71538 13.8504 6.95715C13.8502 7.19868 13.6524 7.39664 13.4107 7.39664Z" fill="white"/>
<path id="Vector_5" opacity="0.66" d="M13.4107 11.3511H1.19611C0.954227 11.3511 0.75641 11.1534 0.75641 10.9116C0.75641 10.6699 0.954227 10.4721 1.19611 10.4721H13.4107C13.6524 10.4721 13.8504 10.6699 13.8504 10.9116C13.8502 11.1534 13.6524 11.3511 13.4107 11.3511Z" fill="white"/>
<path id="Vector_6" opacity="0.66" d="M13.7132 15.3056H1.49867C1.25702 15.3056 1.05897 15.1079 1.05897 14.8661C1.05897 14.6244 1.25679 14.4266 1.49867 14.4266H13.7132C13.9551 14.4266 14.1529 14.6244 14.1529 14.8661C14.1529 15.1079 13.9551 15.3056 13.7132 15.3056Z" fill="white"/>
</g>
</svg>
