<svg width="16" height="29" viewBox="0 0 16 29" fill="none" xmlns="http://www.w3.org/2000/svg">
<g id="Group">
<path id="Vector" opacity="0.39" d="M14.4397 29H0.772937C0.345994 29 0 28.6542 0 28.2274V0.772597C0 0.34585 0.345994 0 0.772937 0H14.4397C14.8667 0 15.2127 0.34585 15.2127 0.772597V28.2274C15.2129 28.6539 14.8667 29 14.4397 29Z" fill="white"/>
<path id="Vector_2" opacity="0.66" d="M13.4108 19.2599H1.19623C0.95435 19.2599 0.756534 19.0622 0.756534 18.8204C0.756534 18.5787 0.95435 18.381 1.19623 18.381H13.4108C13.6525 18.381 13.8505 18.5787 13.8505 18.8204C13.8503 19.0622 13.6525 19.2599 13.4108 19.2599Z" fill="white"/>
<path id="Vector_3" opacity="0.66" d="M13.4108 23.5617H1.19623C0.95435 23.5617 0.756534 23.364 0.756534 23.1222C0.756534 22.8805 0.95435 22.6827 1.19623 22.6827H13.4108C13.6525 22.6827 13.8505 22.8805 13.8505 23.1222C13.8503 23.364 13.6525 23.5617 13.4108 23.5617Z" fill="white"/>
<path id="Vector_4" opacity="0.66" d="M13.4108 7.39634H1.19623C0.95435 7.39634 0.756534 7.19861 0.756534 6.95684C0.756534 6.71507 0.95435 6.51734 1.19623 6.51734H13.4108C13.6525 6.51734 13.8505 6.71507 13.8505 6.95684C13.8503 7.19861 13.6525 7.39634 13.4108 7.39634Z" fill="white"/>
<path id="Vector_5" opacity="0.66" d="M13.4108 11.3509H1.19623C0.95435 11.3509 0.756534 11.1532 0.756534 10.9114C0.756534 10.6696 0.95435 10.4719 1.19623 10.4719H13.4108C13.6525 10.4719 13.8505 10.6696 13.8505 10.9114C13.8503 11.1532 13.6525 11.3509 13.4108 11.3509Z" fill="white"/>
<path id="Vector_6" opacity="0.66" d="M13.7134 15.3055H1.49879C1.25715 15.3055 1.0591 15.1077 1.0591 14.866C1.0591 14.6242 1.25691 14.4265 1.49879 14.4265H13.7134C13.9553 14.4265 14.1531 14.6242 14.1531 14.866C14.1531 15.1077 13.955 15.3055 13.7134 15.3055Z" fill="white"/>
</g>
</svg>
