<svg width="16" height="27" viewBox="0 0 16 27" fill="none" xmlns="http://www.w3.org/2000/svg">
<g id="Group">
<path id="Vector" opacity="0.39" d="M14.4441 27H0.773182C0.346112 27 0 26.654 0 26.2272V0.772828C0 0.345953 0.346112 0 0.773182 0H14.4441C14.8711 0 15.2173 0.345953 15.2173 0.772828V26.2269C15.2173 26.6538 14.8711 27 14.4441 27Z" fill="white"/>
<path id="Vector_2" opacity="0.66" d="M13.4455 17.9318H1.16647C0.941452 17.9318 0.757253 17.7477 0.757253 17.5228C0.757253 17.2978 0.941452 17.1137 1.16647 17.1137H13.4455C13.6705 17.1137 13.8547 17.2978 13.8547 17.5228C13.8547 17.7477 13.6705 17.9318 13.4455 17.9318Z" fill="white"/>
<path id="Vector_3" opacity="0.66" d="M13.4455 21.9368H1.16647C0.941452 21.9368 0.757253 21.7527 0.757253 21.5278C0.757253 21.3029 0.941452 21.1188 1.16647 21.1188H13.4455C13.6705 21.1188 13.8547 21.3029 13.8547 21.5278C13.8547 21.7527 13.6705 21.9368 13.4455 21.9368Z" fill="white"/>
<path id="Vector_4" opacity="0.66" d="M13.4455 6.88632H1.16647C0.941452 6.88632 0.757253 6.70222 0.757253 6.4773C0.757253 6.25239 0.941452 6.06827 1.16647 6.06827H13.4455C13.6705 6.06827 13.8547 6.25239 13.8547 6.4773C13.8547 6.70222 13.6705 6.88632 13.4455 6.88632Z" fill="white"/>
<path id="Vector_5" opacity="0.66" d="M13.4455 10.5683H1.16647C0.941452 10.5683 0.757253 10.3842 0.757253 10.1593C0.757253 9.93434 0.941452 9.75024 1.16647 9.75024H13.4455C13.6705 9.75024 13.8547 9.93434 13.8547 10.1593C13.8547 10.3842 13.6705 10.5683 13.4455 10.5683Z" fill="white"/>
<path id="Vector_6" opacity="0.66" d="M13.7482 14.2499H1.46922C1.2442 14.2499 1.06003 14.0658 1.06003 13.8408C1.06003 13.6159 1.2442 13.4318 1.46922 13.4318H13.7482C13.9733 13.4318 14.1575 13.6159 14.1575 13.8408C14.1575 14.0658 13.9733 14.2499 13.7482 14.2499Z" fill="white"/>
</g>
</svg>
