<svg width="9" height="9" viewBox="0 0 9 9" fill="none" xmlns="http://www.w3.org/2000/svg">
<path id="Vector" d="M6.26022 8.67652C6.1895 8.67652 6.12341 8.63226 6.09906 8.5618C6.06822 8.47281 6.11554 8.37569 6.20458 8.34487C7.77941 7.8007 8.60438 6.91795 8.65632 5.72114C8.70872 4.50927 7.94239 3.38268 6.74897 2.91754L0.108598 0.329487C0.0207215 0.295418 -0.0224266 0.196456 0.0116576 0.108619C0.0459737 0.0207827 0.144981 -0.022549 0.232626 0.0117513L6.87303 2.5998C8.20232 3.11802 9.05605 4.37833 8.99715 5.73574C8.93849 7.0862 8.03654 8.07256 6.3161 8.66702C6.29755 8.67351 6.27877 8.67652 6.26022 8.67652Z" fill="#91B3FA"/>
</svg>
