<svg width="137" height="174" viewBox="0 0 137 174" fill="none" xmlns="http://www.w3.org/2000/svg">
<g id="Group">
<path id="Vector" d="M136.586 174C136.586 174 89.4555 54.5179 2.72189 0.279633C1.59099 -0.427493 0.234542 0.275721 0.170333 1.61199C-0.841364 22.7195 -1.75135 156.663 136.586 174Z" fill="#BDD0FB"/>
<path id="Vector_2" d="M17.7444 34.3814C21.0548 41.0758 24.6231 47.6755 28.4047 54.125C32.1494 60.5998 36.0728 66.9644 40.1453 73.2223C44.2393 79.4656 48.4488 85.6271 52.8636 91.6271C57.2505 97.6471 61.7898 103.549 66.541 109.257C71.2672 114.984 76.134 120.59 81.2295 125.954C81.8617 126.629 82.4854 127.314 83.1242 127.982L85.063 129.963C86.3626 131.275 87.6325 132.623 88.9567 133.907L92.9305 137.759L93.9217 138.725L94.9378 139.661L96.9699 141.532C99.6472 144.072 102.471 146.417 105.232 148.851C106.63 150.043 108.065 151.183 109.481 152.352L111.611 154.096C112.326 154.67 113.065 155.208 113.785 155.774L118.137 159.134L122.591 162.331L124.821 163.928L127.1 165.437L131.648 168.488L131.66 168.496C131.896 168.655 131.98 168.976 131.848 169.214C131.723 169.442 131.444 169.51 131.214 169.378C118.577 162.088 106.517 153.432 95.4126 143.526L93.322 141.68L92.2767 140.756L91.256 139.802L87.186 135.969C85.8318 134.688 84.5325 133.344 83.2027 132.035L81.2187 130.058C80.5649 129.391 79.9262 128.707 79.2791 128.033C74.0749 122.664 69.1561 116.997 64.351 111.237C54.7931 99.6631 46.0376 87.3839 38.0541 74.62C34.0616 68.2374 30.2884 61.7152 26.7213 55.0838C24.946 51.7635 23.2363 48.408 21.5774 45.0288C19.9153 41.6482 18.3212 38.246 16.8632 34.7575C16.7509 34.489 16.8591 34.1914 17.1049 34.0929C17.3394 33.9988 17.6146 34.1205 17.7368 34.3657L17.7444 34.3814Z" fill="#DCE5FE"/>
</g>
</svg>
