<svg width="14" height="25" viewBox="0 0 14 25" fill="none" xmlns="http://www.w3.org/2000/svg">
<g id="Group">
<path id="Vector" opacity="0.39" d="M13.226 24.84H0.773974C0.346467 24.84 0 24.4937 0 24.0664V0.773619C0 0.346308 0.346467 0 0.773974 0H13.226C13.6535 0 14 0.346308 14 0.773619V24.0664C14 24.4935 13.6535 24.84 13.226 24.84Z" fill="white"/>
<path id="Vector_2" opacity="0.66" d="M12.3697 16.4972H1.07292C0.865782 16.4972 0.696497 16.3277 0.696497 16.1209C0.696497 15.9139 0.866015 15.7445 1.07292 15.7445H12.3697C12.5768 15.7445 12.7464 15.9139 12.7464 16.1209C12.7464 16.328 12.5768 16.4972 12.3697 16.4972Z" fill="white"/>
<path id="Vector_3" opacity="0.66" d="M12.3697 20.1819H1.07292C0.865782 20.1819 0.696497 20.0125 0.696497 19.8054C0.696497 19.5984 0.866015 19.4292 1.07292 19.4292H12.3697C12.5768 19.4292 12.7464 19.5986 12.7464 19.8054C12.7464 20.0125 12.5768 20.1819 12.3697 20.1819Z" fill="white"/>
<path id="Vector_4" opacity="0.66" d="M12.3697 6.33553H1.07292C0.865782 6.33553 0.696497 6.16608 0.696497 5.95904C0.696497 5.752 0.866015 5.58279 1.07292 5.58279H12.3697C12.5768 5.58279 12.7464 5.75224 12.7464 5.95904C12.7464 6.16608 12.5768 6.33553 12.3697 6.33553Z" fill="white"/>
<path id="Vector_5" opacity="0.66" d="M12.3697 9.72271H1.07292C0.865782 9.72271 0.696497 9.55329 0.696497 9.34625C0.696497 9.1392 0.866015 8.96976 1.07292 8.96976H12.3697C12.5768 8.96976 12.7464 9.1392 12.7464 9.34625C12.7464 9.55329 12.5768 9.72271 12.3697 9.72271Z" fill="white"/>
<path id="Vector_6" opacity="0.66" d="M12.6485 13.11H1.35167C1.14453 13.11 0.975244 12.9406 0.975244 12.7335C0.975244 12.5265 1.14476 12.357 1.35167 12.357H12.6485C12.8556 12.357 13.0251 12.5265 13.0251 12.7335C13.0251 12.9406 12.8556 13.11 12.6485 13.11Z" fill="white"/>
</g>
</svg>
