<svg width="23" height="9" viewBox="0 0 23 9" fill="none" xmlns="http://www.w3.org/2000/svg">
<g id="Group">
<path id="Vector" d="M0 0.474558H1.31876L3.15676 4.5495C3.27636 4.81791 3.37775 5.05309 3.46116 5.25524C3.54435 5.45738 3.61822 5.64669 3.68299 5.82318C3.78417 5.39679 3.89172 4.97946 4.00539 4.57137C4.02042 4.51984 4.03122 4.48513 4.03736 4.46662L5.38808 0.154613L7.43332 4.5495C7.53027 4.76279 7.62299 4.97588 7.71084 5.18918C7.79868 5.40248 7.88186 5.61746 7.9604 5.83433C7.98643 5.669 8.02432 5.48704 8.07407 5.28846C8.12381 5.08989 8.18986 4.85472 8.27221 4.58274L9.53001 0.474776H10.8604L8.26055 8.86171L6.06609 4.25732C5.96956 4.05139 5.88108 3.85387 5.80043 3.66455C5.71978 3.47524 5.64759 3.29622 5.58345 3.12689C5.53498 3.34376 5.48567 3.54696 5.43529 3.73607C5.3847 3.92538 5.33178 4.1065 5.27653 4.2792L3.75389 8.86151L0 0.474558Z" fill="white"/>
<path id="Vector_2" d="M16.5561 6.10972H12.3014C12.3655 6.59858 12.5398 6.97995 12.8245 7.25383C13.1092 7.52792 13.4724 7.66465 13.9138 7.66465C14.3066 7.66465 14.6288 7.58387 14.8795 7.42211C15.1301 7.26035 15.3405 6.9993 15.51 6.63896L16.5761 7.20145C16.3132 7.72712 15.97 8.11858 15.5465 8.37584C15.1227 8.6331 14.6136 8.76184 14.0185 8.76184C13.1655 8.76184 12.4684 8.50626 11.9278 7.99531C11.3869 7.48437 11.0872 6.80241 11.0279 5.94965C10.971 5.1299 11.1852 4.45615 11.6704 3.9288C12.156 3.40144 12.8082 3.13745 13.6278 3.13745C14.4847 3.13745 15.1692 3.3783 15.6815 3.8598C16.194 4.34151 16.4801 5.01589 16.5407 5.88338L16.5561 6.10972ZM15.237 5.30449C15.1625 4.92944 14.9967 4.64378 14.7397 4.4471C14.483 4.25042 14.143 4.15197 13.7203 4.15197C13.3196 4.15197 13.0046 4.24769 12.7747 4.43869C12.5448 4.6299 12.3945 4.91829 12.3241 5.30449H15.237Z" fill="white"/>
<path id="Vector_3" d="M21.1884 0H22.4062L23 8.54681H21.7822L21.735 7.86843C21.539 8.17007 21.3008 8.3943 21.0212 8.54113C20.7416 8.68817 20.4145 8.76179 20.0403 8.76179C19.288 8.76179 18.6783 8.50895 18.211 8.00368C17.7438 7.49821 17.4796 6.80636 17.4186 5.92751C17.3608 5.09304 17.5346 4.4195 17.9404 3.90666C18.3464 3.39382 18.9048 3.13739 19.6157 3.13739C20.0498 3.13739 20.4274 3.22658 20.7488 3.40475C21.0697 3.58313 21.3127 3.83956 21.4784 4.17402L21.1884 0ZM21.633 5.91657C21.5955 5.37618 21.4382 4.95527 21.1611 4.65383C20.8836 4.3524 20.5151 4.20157 20.0547 4.20157C19.5945 4.20157 19.2431 4.35702 19.0009 4.6675C18.7588 4.97819 18.6567 5.4092 18.6951 5.96053C18.7338 6.51565 18.8904 6.94392 19.166 7.24536C19.4414 7.54679 19.8112 7.69762 20.2752 7.69762C20.7166 7.69762 21.0627 7.5348 21.3133 7.2096C21.5637 6.88418 21.6704 6.45318 21.633 5.91657Z" fill="white"/>
</g>
</svg>
