<svg width="101" height="87" viewBox="0 0 101 87" fill="none" xmlns="http://www.w3.org/2000/svg">
<path id="Vector" d="M1.5772 86.6285C1.5772 86.6285 6.41537 64.2279 26.8161 61.9907C47.2167 59.7535 59.2008 63.7618 73.6127 47.396C88.0247 31.0301 96.3958 5.05849 101 0.587156C101 0.587156 93.7589 -3.11437 81.7198 8.07021C69.6809 19.2546 61.2252 27.7384 54.2556 34.2502C47.2857 40.7622 41.6259 36.5162 34.2678 40.8095C28.1013 44.4076 20.1268 54.8056 16.6147 60.2523C15.474 62.0218 14.1213 63.6449 12.5673 65.0699C11.1538 66.3662 9.47039 67.955 8.39045 69.1245C6.231 71.4637 0 86.7086 0 86.7086L1.5772 86.6285Z" fill="#3C8F7C"/>
</svg>
