<svg width="31" height="184" viewBox="0 0 31 184" fill="none" xmlns="http://www.w3.org/2000/svg">
<path id="Vector" d="M8.78976 151.005L18.9156 122.018C18.9156 122.018 24.8648 98.7031 28.3127 79.2608C31.7607 59.8183 30.137 0 30.137 0C30.137 0 19.7356 17.6962 19.5876 29.0861C19.4395 40.476 20.6814 49.7407 15.4191 65.338C10.157 80.9353 20.6019 90.7953 17.5915 99.4069C14.5809 108.018 14.348 118.214 14.4397 125.946C14.5311 133.678 2.52567 159.266 0.698318 172.222C-0.302604 179.319 -0.0541637 182.537 0.37495 184C-1.24899 172.668 8.78976 151.005 8.78976 151.005Z" fill="#327F6B"/>
</svg>
