<svg width="143" height="114" viewBox="0 0 143 114" fill="none" xmlns="http://www.w3.org/2000/svg">
<g id="Group">
<path id="Vector" d="M121.965 30.6678L142.265 0L107.402 12.1334L102.758 25.4863L121.965 30.6678Z" fill="#F2E9DA"/>
<path id="Vector_2" d="M102.758 25.4863L107.699 26.8193L142.265 0L107.402 12.1334L102.758 25.4863Z" fill="#E0D5C3"/>
<path id="Vector_3" d="M107.402 12.1339L116.426 8.99323L111.508 17.3595L0.756144 103.291L0 95.4658L107.402 12.1339Z" fill="#E8BA70"/>
<path id="Vector_4" d="M111.508 17.3591L121.822 15.8612L117.859 25.4422L7.10701 111.373L0.756191 103.29L111.508 17.3591Z" fill="#F7CC7F"/>
<path id="Vector_5" d="M117.859 25.4421L127.219 22.7297L121.965 30.6677L14.5629 114L7.10727 111.373L117.859 25.4421Z" fill="#FAE0B2"/>
<path id="Vector_6" d="M8.90621 96.966L0.750575 103.294L7.10123 111.377L15.2569 105.049L8.90621 96.966Z" fill="#50BFA5"/>
<path id="Vector_7" d="M15.263 105.045L7.10727 111.373L14.5629 114L19.3689 110.271L15.263 105.045Z" fill="#96D9C9"/>
<path id="Vector_8" d="M4.806 91.7362L0 95.4652L0.756144 103.29L8.91187 96.9623L4.806 91.7362Z" fill="#3C8F7C"/>
<path id="Vector_9" d="M15.2652 105.051L19.3709 110.276L28.9826 102.819L24.8769 97.5934L15.2652 105.051Z" fill="#FEF8F8"/>
<path id="Vector_10" d="M4.80801 91.7415L8.91387 96.9673L18.5257 89.5097L14.4198 84.2839L4.80801 91.7415Z" fill="#EDDFCA"/>
<path id="Vector_11" d="M8.9127 96.9667L15.2635 105.05L24.8753 97.5922L18.5245 89.5092L8.9127 96.9667Z" fill="#F2E9DA"/>
<path id="Vector_12" d="M135.375 10.4081C135.445 10.3031 142.265 0 142.265 0L130.433 4.11778L134.638 5.9173L135.375 10.4081Z" fill="#E86752"/>
<path id="Vector_13" d="M134.638 5.9175L142.265 0L130.433 4.11798L134.638 5.9175Z" fill="#D85648"/>
</g>
</svg>
