<svg width="56" height="53" viewBox="0 0 56 53" fill="none" xmlns="http://www.w3.org/2000/svg">
<path id="Vector" d="M28 0C12.5608 0 0 13.6702 0 30.4731C0 32.8233 0.250148 35.1104 0.715694 37.309H5.01288C4.48047 35.128 4.1924 32.8374 4.1924 30.4731C4.1924 15.9674 14.8725 4.16592 28.0002 4.16592C41.128 4.16592 51.8081 15.9674 51.8081 30.4731C51.8081 37.8795 49.0235 44.5809 44.551 49.3663C43.7538 50.2191 43.8388 51.5584 44.7238 52.3203C44.7347 52.3294 44.7453 52.3385 44.7557 52.3478C45.5962 53.0669 46.8645 53.0025 47.6194 52.1949C52.7894 46.6628 56.0001 38.9685 56.0001 30.4731C55.9999 13.6704 43.4393 0 28 0Z" fill="#184655"/>
</svg>
