<svg width="77" height="84" viewBox="0 0 77 84" fill="none" xmlns="http://www.w3.org/2000/svg">
<g id="Group">
<path id="Vector" d="M0 83.6572C0 83.6572 42.7591 74.9372 52.0858 66.4455C61.4127 57.9536 57.2855 54.6423 57.2855 54.6423C57.2855 54.6423 73.7177 41.7784 73.4613 33.3787C73.2049 24.979 62.4991 29.2408 62.4991 29.2408C62.4991 29.2408 80.6434 6.1032 76.3397 1.70306C68.3236 -6.49315 47.3453 17.5571 47.3453 17.5571C47.3453 17.5571 53.5708 6.11656 47.0029 4.30004C37.0979 1.56037 29.8126 29.7767 29.8126 29.7767C29.8126 29.7767 31.6604 18.633 24.8332 20.1122C12.5843 22.7658 0 83.6572 0 83.6572Z" fill="#50BFA5"/>
</g>
</svg>
