<svg width="73" height="239" viewBox="0 0 73 239" fill="none" xmlns="http://www.w3.org/2000/svg">
<path id="Vector" d="M72.8375 0C72.8375 0 72.2953 13.2341 67.9994 21.0959C63.7036 28.9576 60.0033 33.7326 59.2233 42.2385C58.4434 50.7441 55.7455 72.6731 43.767 83.3787C31.7885 94.0843 30.2585 126.162 21.1403 135.866C12.0225 145.57 10.8315 152.544 12.5145 169.187C14.1973 185.83 19.9187 208.895 6.69131 239L3.70178 231.512C3.70178 231.512 13.1646 206.745 10.874 192.243C8.58314 177.74 0.611608 155.827 3.52908 145.317C6.44698 134.808 -4.40217 132.755 2.13065 116.859C8.66369 100.964 5.98062 95.4407 14.8737 81.697C14.8737 81.697 15.7858 81.0536 18.1241 69.4255C20.4627 57.7973 39.3129 36.4846 47.9997 29.2116C56.6864 21.9386 69.206 10.2828 72.8375 0Z" fill="#256653"/>
</svg>
