<svg width="18" height="9" viewBox="0 0 18 9" fill="none" xmlns="http://www.w3.org/2000/svg">
<g id="Group">
<path id="Vector" d="M3.6477 1.12956L4.13799 8.18676H2.78299L2.29269 1.12956H0.0785885L0 0H5.77163L5.85022 1.12956H3.6477Z" fill="white"/>
<path id="Vector_2" d="M6.9286 2.8855L7.13599 5.87163C7.17162 6.38616 7.30536 6.75522 7.53721 6.97878C7.76927 7.20235 8.12777 7.31434 8.61379 7.31434C9.09959 7.31434 9.44261 7.20256 9.64332 6.97878C9.84426 6.755 9.92649 6.38616 9.89086 5.87163L9.68347 2.8855H10.9187L11.1009 5.50811C11.1714 6.52226 11.0157 7.25844 10.634 7.71688C10.2521 8.17552 9.60771 8.40486 8.70094 8.40486C7.77893 8.40486 7.0952 8.17745 6.64975 7.72264C6.20474 7.26784 5.94671 6.52973 5.87587 5.50833L5.69362 2.88572H6.9286V2.8855Z" fill="white"/>
<path id="Vector_3" d="M17.9801 5.71498H13.6655C13.7303 6.21074 13.907 6.59751 14.1959 6.87526C14.4844 7.15322 14.8528 7.29188 15.3006 7.29188C15.699 7.29188 16.0255 7.20996 16.2797 7.04591C16.5339 6.88187 16.747 6.61713 16.919 6.2517L18.0001 6.82213C17.7337 7.35523 17.3855 7.75223 16.9559 8.01313C16.5264 8.27402 16.0099 8.40458 15.4064 8.40458C14.5413 8.40458 13.8344 8.14538 13.2861 7.62722C12.7376 7.10905 12.4337 6.41746 12.3738 5.55264C12.316 4.72131 12.5333 4.03804 13.0253 3.50323C13.5175 2.96843 14.1791 2.7007 15.0104 2.7007C15.8793 2.7007 16.5736 2.94496 17.0933 3.43326C17.6128 3.92177 17.9033 4.60569 17.9645 5.48544L17.9801 5.71498ZM16.6427 4.89837C16.5669 4.51801 16.3991 4.22832 16.1382 4.02886C15.8778 3.8294 15.5331 3.72956 15.1044 3.72956C14.698 3.72956 14.3786 3.82663 14.1455 4.02033C13.9123 4.21425 13.7599 4.50671 13.6884 4.89837H16.6427Z" fill="white"/>
</g>
</svg>
