<svg width="30" height="30" viewBox="0 0 30 30" fill="none" xmlns="http://www.w3.org/2000/svg">
<g id="calendar">
<path id="calendar_2" d="M25.8749 12.1875H4.12506C3.91756 12.1875 3.75 12.3551 3.75 12.5626V22.5C3.75 25 5 26.25 7.5 26.25H22.5C25 26.25 26.25 25 26.25 22.5V12.5626C26.25 12.3551 26.0824 12.1875 25.8749 12.1875ZM10.025 22.5C9.33502 22.5 8.76862 21.94 8.76862 21.25C8.76862 20.56 9.32251 20 10.0125 20H10.025C10.7163 20 11.275 20.56 11.275 21.25C11.275 21.94 10.715 22.5 10.025 22.5ZM10.025 17.5C9.33502 17.5 8.76862 16.94 8.76862 16.25C8.76862 15.56 9.32251 15 10.0125 15H10.025C10.7163 15 11.275 15.56 11.275 16.25C11.275 16.94 10.715 17.5 10.025 17.5ZM15.025 22.5C14.335 22.5 13.7686 21.94 13.7686 21.25C13.7686 20.56 14.3225 20 15.0125 20H15.025C15.7163 20 16.275 20.56 16.275 21.25C16.275 21.94 15.715 22.5 15.025 22.5ZM15.025 17.5C14.335 17.5 13.7686 16.94 13.7686 16.25C13.7686 15.56 14.3225 15 15.0125 15H15.025C15.7163 15 16.275 15.56 16.275 16.25C16.275 16.94 15.715 17.5 15.025 17.5ZM20.025 22.5C19.335 22.5 18.7686 21.94 18.7686 21.25C18.7686 20.56 19.3225 20 20.0125 20H20.025C20.7163 20 21.275 20.56 21.275 21.25C21.275 21.94 20.715 22.5 20.025 22.5ZM20.025 17.5C19.335 17.5 18.7686 16.94 18.7686 16.25C18.7686 15.56 19.3225 15 20.0125 15H20.025C20.7163 15 21.275 15.56 21.275 16.25C21.275 16.94 20.715 17.5 20.025 17.5ZM26.25 9.375V9.93744C26.25 10.1449 26.0824 10.3125 25.8749 10.3125H4.12506C3.91756 10.3125 3.75 10.1449 3.75 9.93744V9.375C3.75 6.875 5 5.625 7.5 5.625H9.0625V3.75C9.0625 3.2375 9.4875 2.8125 10 2.8125C10.5125 2.8125 10.9375 3.2375 10.9375 3.75V5.625H19.0625V3.75C19.0625 3.2375 19.4875 2.8125 20 2.8125C20.5125 2.8125 20.9375 3.2375 20.9375 3.75V5.625H22.5C25 5.625 26.25 6.875 26.25 9.375Z" fill="white"/>
</g>
</svg>
