<svg width="58" height="99" viewBox="0 0 58 99" fill="none" xmlns="http://www.w3.org/2000/svg">
<path id="Vector" d="M29.8514 12.409L32.5812 5.85351C34.6991 1.03201 40.1189 -1.27045 44.6862 0.710817C56.1964 5.7037 61.2003 19.6011 55.8628 31.7514L51.9606 40.6343C50.2511 44.5261 50.8463 48.8069 53.1517 51.8257C55.2453 54.567 55.5873 58.3791 54.1355 61.6838L52.0783 66.3668C49.8512 71.4371 45.5177 75.1923 40.3778 76.7409C37.3718 77.6464 34.7173 79.8884 33.3135 83.0843L30.4004 89.7153C27.1801 97.0464 18.9398 100.547 11.9952 97.5346L8.03312 95.8159C1.08829 92.8032 -1.93079 84.4184 1.28943 77.0873C6.49723 68.322 6.08187 61.7795 4.23682 57.3422C1.52345 50.8178 1.55486 43.3108 4.49026 36.6287L4.90168 35.6918C7.99984 28.6392 13.9824 23.3735 21.1069 21.1187C24.2519 20.1232 27.5304 17.6929 29.8514 12.409Z" fill="#50BFA5"/>
</svg>
