<svg width="19" height="21" viewBox="0 0 19 21" fill="none" xmlns="http://www.w3.org/2000/svg">
<path id="Vector" d="M0.142149 16.8405L2.92572 12.3478L0.690307 11.4471C0.20126 11.25 -0.0345567 10.6961 0.163745 10.2101C0.362047 9.72414 0.919424 9.4898 1.40868 9.68686L3.9864 10.7257L6.47504 6.69098L4.08745 5.72882C3.5984 5.53176 3.36258 4.97787 3.56088 4.49168C3.75919 4.0057 4.31657 3.77135 4.80561 3.96862L7.53551 5.06869L10.4258 0.448434C10.6712 0.0559831 11.1655 -0.103995 11.5965 0.0697328L12.0135 0.237628C12.5604 0.458226 12.7775 1.11377 12.4692 1.61391L9.78118 5.97357L13.7395 7.56879L16.6295 2.94854C16.8752 2.55588 17.3695 2.39611 17.8005 2.56984L18.2556 2.75315C18.8025 2.97374 19.0196 3.62929 18.7113 4.12943L16.0233 8.48909L18.2585 9.38981C18.7478 9.58687 18.9836 10.1408 18.7851 10.6269C18.587 11.1129 18.0296 11.3473 17.5403 11.1502L14.9626 10.1114L12.5121 14.1613L14.8997 15.1235C15.3888 15.3205 15.6246 15.8744 15.4263 16.3606C15.228 16.8466 14.6706 17.0809 14.1816 16.8837L11.4517 15.7834L8.49935 20.5482C8.25472 20.9432 7.75898 21.1046 7.32632 20.9305L6.83893 20.734C6.29119 20.5132 6.07445 19.8562 6.38428 19.3559L9.16783 14.8631L5.20956 13.2679L2.25745 18.0327C2.01282 18.4276 1.51685 18.5891 1.0844 18.4149L0.597037 18.2185C0.0490858 17.9979 -0.167672 17.3409 0.142149 16.8405ZM10.2287 13.2412L12.7171 9.2065L8.75907 7.61128L6.27043 11.646L10.2287 13.2412Z" fill="#07345A"/>
</svg>
