<svg width="22" height="9" viewBox="0 0 22 9" fill="none" xmlns="http://www.w3.org/2000/svg">
<g id="Group">
<path id="Vector" d="M7.05557 4.32912C7.03653 4.26804 7.00114 4.09919 6.94878 3.82238C6.90346 3.59224 6.86476 3.40181 6.83227 3.25085C6.81199 3.4306 6.77763 3.61035 6.72983 3.79009C6.68202 3.96963 6.61869 4.15307 6.54025 4.33981L4.73062 8.54492L2.33076 4.25364C2.2306 4.0776 2.14285 3.9069 2.06752 3.74155C1.99198 3.57641 1.92492 3.4127 1.86615 3.25105C1.8738 3.4164 1.87214 3.58978 1.86097 3.77138C1.84979 3.95277 1.82722 4.14239 1.79349 4.34003L1.2018 8.22697H0L1.32723 0L4.04394 4.98147C4.08595 5.06044 4.15095 5.19165 4.23849 5.3751C4.32603 5.55855 4.43261 5.78478 4.55762 6.0544C4.61846 5.82797 4.71945 5.54045 4.85977 5.19186C4.89702 5.09828 4.92496 5.02651 4.94359 4.97612L6.91382 0.000200839L9.42772 8.22718H8.21515L7.05557 4.32912Z" fill="white"/>
<path id="Vector_2" d="M9.81017 5.67714C9.7843 5.30345 9.8317 4.95013 9.95339 4.61779C10.0747 4.28524 10.2617 3.98971 10.5144 3.73078C10.7638 3.47576 11.0573 3.27977 11.3957 3.14322C11.7336 3.00666 12.0929 2.93837 12.4735 2.93837C12.8649 2.93837 13.2382 3.00666 13.5935 3.14322C13.9487 3.27977 14.2728 3.4809 14.5656 3.74702C14.8583 4.00945 15.0873 4.3058 15.2529 4.6367C15.4187 4.9674 15.5141 5.31415 15.5393 5.67714C15.5654 6.05452 15.5199 6.40846 15.4019 6.73916C15.284 7.06986 15.0985 7.36271 14.8456 7.61773C14.5789 7.88735 14.2767 8.09137 13.9387 8.22957C13.6006 8.36798 13.2398 8.43729 12.8555 8.43729C12.4787 8.43729 12.1117 8.36798 11.7545 8.22957C11.3973 8.09137 11.0743 7.89105 10.7854 7.62842C10.4925 7.36251 10.2632 7.06431 10.0976 6.73361C9.93187 6.40312 9.83625 6.05102 9.81017 5.67714ZM14.2833 5.68783C14.2504 5.21338 14.0669 4.81172 13.7333 4.48287C13.3992 4.15402 13.0074 3.9897 12.5575 3.9897C12.1109 3.9897 11.7429 4.15402 11.4532 4.48287C11.1632 4.81193 11.0349 5.21338 11.0679 5.68783C11.1008 6.16229 11.285 6.56394 11.6206 6.89279C11.9563 7.22164 12.347 7.38596 12.7937 7.38596C13.2399 7.38596 13.608 7.22143 13.8978 6.89279C14.1877 6.56394 14.3164 6.16229 14.2833 5.68783Z" fill="white"/>
<path id="Vector_3" d="M16.9785 8.2271L16.6236 3.11627H17.7428L17.801 3.95187C18.0142 3.59978 18.2764 3.3427 18.5872 3.18105C18.8977 3.0194 19.2834 2.93837 19.7445 2.93837C20.1324 2.93837 20.4666 2.99863 20.7476 3.11894C21.0285 3.23925 21.2543 3.41818 21.4242 3.6553C21.5254 3.79556 21.6026 3.95906 21.656 4.146C21.7092 4.33295 21.752 4.66015 21.7845 5.1272L21.9999 8.2271H20.7981L20.6158 5.60166C20.569 4.92956 20.4548 4.48288 20.2731 4.262C20.0912 4.04092 19.7882 3.93048 19.3637 3.93048C19.0858 3.93048 18.8414 3.98087 18.6307 4.08143C18.4198 4.18221 18.2586 4.32411 18.147 4.50735C18.068 4.62951 18.0175 4.78683 17.9961 4.97892C17.9746 5.17121 17.9788 5.47764 18.0079 5.89801L18.1698 8.2271H16.9785Z" fill="white"/>
</g>
</svg>
