<svg width="43" height="185" viewBox="0 0 43 185" fill="none" xmlns="http://www.w3.org/2000/svg">
<path id="Vector" d="M30.1014 0C30.1014 0 19.7124 17.6749 19.5645 29.0514C19.4166 40.4277 20.657 49.6814 15.401 65.2601C10.1451 80.8388 20.5776 90.6871 17.5708 99.2884C14.5638 107.89 14.3312 118.073 14.4227 125.796C14.5141 133.518 2.52294 159.076 0.69777 172.017C-1.1274 184.957 1.20495 185 1.20495 185C1.20495 185 3.19288 167.915 5.95219 162.266C8.7115 156.616 17.1008 137.139 19.0606 129.603C21.0203 122.067 26.3331 117.231 30.9157 104.468C35.4985 91.7062 42.0129 80.9574 41.5156 62.8481C41.0181 44.7387 48.3519 25.625 30.1014 0Z" fill="#3C8F7C"/>
</svg>
