<svg width="148" height="189" viewBox="0 0 148 189" fill="none" xmlns="http://www.w3.org/2000/svg">
<path id="Vector" d="M129.95 137.212C129.95 137.212 153.412 88.1782 145.568 77.2369C134.729 62.1166 121.251 108.515 120.594 104.437C114.386 65.9238 115.685 17.35 86.6511 9.9889C70.1466 5.80456 87.7422 46.2659 85.6926 56.6913C83.643 67.1164 56.1875 29.8967 39.2781 10.2048C22.3685 -9.48703 12.0147 1.37767 21.8167 25.2672C31.2948 48.3676 65.6308 75.4355 57.9446 77.7525C50.2586 80.0691 7.15999 47.8889 0.664421 59.7488C-7.29966 74.29 59.0923 99.9578 52.431 102.854C45.7698 105.75 14.1422 92.1358 14.1422 103.719C14.1422 115.303 57.8458 118.197 56.7092 123.206C54.8686 131.316 27.4156 110.553 25.2713 121.805C23.0782 133.314 62.5392 134.187 61.1607 143.189C60.3685 148.362 50.4297 142.947 48.6319 150.059C44.5327 166.276 106.715 189 106.715 189L129.95 137.212Z" fill="#3C8F7C"/>
</svg>
