<svg width="56" height="53" viewBox="0 0 56 53" fill="none" xmlns="http://www.w3.org/2000/svg">
<path id="Vector" d="M28.0002 0C12.5608 0 0 13.6702 0 30.4731C0 32.8233 0.250148 35.1104 0.715694 37.309H5.01268C4.48048 35.128 4.1922 32.8374 4.1922 30.4731C4.1922 15.9674 14.8723 4.16592 28.0002 4.16592C41.1278 4.16592 51.8079 15.9674 51.8079 30.4731C51.8079 37.8795 49.0236 44.5809 44.5508 49.3663C43.7538 50.2191 43.8386 51.5584 44.7239 52.3203C44.7345 52.3294 44.7451 52.3385 44.7559 52.3478C45.5964 53.0669 46.8647 53.0025 47.6194 52.1949C52.7896 46.6628 56.0001 38.9685 56.0001 30.4731C56.0001 13.6704 43.4393 0 28.0002 0Z" fill="#184655"/>
</svg>
