<svg width="39" height="37" viewBox="0 0 39 37" fill="none" xmlns="http://www.w3.org/2000/svg">
<path id="Vector" d="M38.2806 23.867C37.4935 27.6694 35.7204 31.7082 31.959 34.4046C27.1897 37.8237 20.1007 37.8687 14.7197 34.5143L14.6573 34.4773C12.4455 33.1727 5.51453 28.1554 9.18996 18.3681L11.1942 19.1112C8.1829 27.1295 13.3763 31.2497 15.749 32.6491C15.7968 32.6774 15.8328 32.6989 15.8563 32.7132C20.5188 35.6199 26.6258 35.6064 30.7073 32.6805C36.9393 28.2128 36.9132 19.2118 36.6127 15.5494C36.486 14.0043 36.2521 12.2255 35.4784 10.7455C33.8238 7.57973 29.7925 4.58181 25.6751 3.4546C21.5703 2.33087 17.8552 1.91645 14.6332 2.22343C10.9621 2.57297 7.47055 4.62499 5.73756 7.4508C5.59896 7.67673 5.45974 7.90124 5.32135 8.12513C3.39086 11.2426 1.72335 13.9349 2.22873 18.7276L0.101345 18.9491C-0.479821 13.4368 1.54316 10.1704 3.4996 7.01101C3.63655 6.78978 3.7737 6.56794 3.91086 6.34467C5.98221 2.96713 10.1107 0.518696 14.4291 0.107554C17.9116 -0.224183 21.8867 0.212336 26.2433 1.40524C30.1719 2.48088 35.138 5.4831 37.3769 9.7656C38.3255 11.5806 38.6006 13.6206 38.745 15.3767C38.9005 17.2728 38.9825 20.4762 38.2806 23.867Z" fill="#F47458"/>
</svg>
