<svg width="16" height="9" viewBox="0 0 16 9" fill="none" xmlns="http://www.w3.org/2000/svg">
<g id="Group">
<path id="Vector" d="M0.0861227 6.761L1.13763 6.26681C1.26589 6.63376 1.47413 6.91374 1.76191 7.10632C2.04969 7.29911 2.40691 7.3955 2.83394 7.3955C3.23748 7.3955 3.55088 7.28517 3.77378 7.06432C3.99646 6.84347 4.0952 6.54764 4.06955 6.17706C4.03592 5.694 3.59831 5.26365 2.75632 4.88557C2.63819 4.82944 2.54765 4.78831 2.4847 4.76196C1.53191 4.32025 0.889952 3.92053 0.558197 3.56301C0.226658 3.2057 0.0427588 2.76828 0.00675947 2.25182C-0.0398026 1.58176 0.154211 1.03893 0.588143 0.623355C1.02251 0.207781 1.61448 0 2.36529 0C2.98245 0 3.50715 0.116961 3.93872 0.350882C4.37028 0.585017 4.68108 0.920902 4.87208 1.35897L3.84619 1.89815C3.66038 1.63981 3.46337 1.45086 3.25492 1.33112C3.04647 1.21116 2.81302 1.1514 2.55391 1.1514C2.1881 1.1514 1.90374 1.24522 1.70175 1.43222C1.49934 1.61945 1.40926 1.87008 1.43104 2.18476C1.46531 2.67895 1.96973 3.13929 2.94452 3.566C3.01953 3.59985 3.07818 3.62598 3.1215 3.64462C3.9745 4.01907 4.5677 4.38494 4.90097 4.74246C5.23466 5.09999 5.41985 5.54641 5.45714 6.08173C5.51125 6.86039 5.30453 7.47904 4.83718 7.93767C4.36984 8.3963 3.71127 8.62551 2.86173 8.62551C2.14886 8.62551 1.55391 8.46464 1.07622 8.14246C0.598524 7.8205 0.268275 7.36016 0.0861227 6.761Z" fill="white"/>
<path id="Vector_2" d="M12.1004 8.40623H10.8601L10.812 7.7154C10.6124 8.02258 10.3699 8.25093 10.0849 8.40045C9.80038 8.55019 9.46732 8.62516 9.08621 8.62516C8.32009 8.62516 7.69924 8.36768 7.22327 7.85314C6.74752 7.33838 6.47851 6.63384 6.41643 5.73885C6.35758 4.88907 6.53458 4.20316 6.94782 3.68091C7.36127 3.15865 7.92989 2.89752 8.65376 2.89752C9.09588 2.89752 9.48046 2.98834 9.80747 3.16978C10.1345 3.35144 10.3822 3.61257 10.5507 3.95317L10.4904 3.08281H11.7306L12.1004 8.40623ZM10.7081 5.72771C10.6699 5.1774 10.5098 4.74876 10.2276 4.44179C9.945 4.13482 9.56974 3.98123 9.1011 3.98123C8.63225 3.98123 8.27441 4.13954 8.0278 4.45572C7.78098 4.77211 7.67728 5.21103 7.71629 5.77248C7.75574 6.33779 7.91544 6.77392 8.19589 7.08089C8.47634 7.38786 8.85272 7.54145 9.32545 7.54145C9.77124 7.54145 10.1224 7.37479 10.3796 7.04169C10.6365 6.70859 10.746 6.27053 10.7081 5.72771Z" fill="white"/>
<path id="Vector_3" d="M14.1067 8.40626L13.8112 4.14984H12.8623L12.7881 3.08284H13.737L13.5969 1.06689H14.8373L14.9772 3.08284H15.9259L16 4.14984H15.0513L15.3471 8.40626H14.1067Z" fill="white"/>
</g>
</svg>
