<svg width="101" height="87" viewBox="0 0 101 87" fill="none" xmlns="http://www.w3.org/2000/svg">
<path id="Vector" d="M52.0012 46.532C42.9908 48.3202 34.9343 47.71 24.2378 55.6216C13.5413 63.5333 7.25013 71.9826 7.25013 71.9826C7.25013 71.9826 2.44186 80.5217 0.454192 85.0233C0.16768 85.7112 0 86.1214 0 86.1214L1.57715 86.0412C1.57715 86.0412 6.41555 63.6406 26.8162 61.4034C47.2168 59.1662 59.2009 63.1745 73.6128 46.8086C88.0247 30.4429 96.3957 4.47132 101 0C101 0 85.6706 11.8504 76.1988 22.3386C66.727 32.8268 61.0118 44.7439 52.0012 46.532Z" fill="#327F6B"/>
</svg>
