<svg width="89" height="217" viewBox="0 0 89 217" fill="none" xmlns="http://www.w3.org/2000/svg">
<path id="Vector" d="M83.5938 0C83.5938 0 74.2765 20.1568 68.0066 28.6712C61.7366 37.1857 55.7647 45.328 50.7616 68.9598C45.7586 92.5915 46.6165 94.9669 45.2476 101.071C43.8786 107.175 34.9674 131.904 34.9162 136.439C34.8645 140.974 16.9077 166.789 12.3082 178.871C7.70868 190.954 -0.439396 208.213 0.0185086 217L2.06504 216.484C2.06504 216.484 3.73342 195.995 17.9285 175.289C32.1235 154.582 30.0933 150.672 46.2138 140.035C62.3341 129.398 72.7452 100.014 72.7452 100.014C72.7452 100.014 89.1432 68.0971 88.3803 51.5052C87.6178 34.9132 91.9708 19.9496 83.5938 0Z" fill="#256653"/>
</svg>
