<svg width="12" height="9" viewBox="0 0 12 9" fill="none" xmlns="http://www.w3.org/2000/svg">
<g id="Group">
<path id="Vector" d="M0.570344 8.37409L0 0.162883H4.66426L4.74285 1.29582H1.43722L1.57951 3.343H4.88499L4.96657 4.5153H1.66088L1.92897 8.37409H0.570344Z" fill="white"/>
<path id="Vector_2" d="M7.32731 3.90358C7.43604 3.55204 7.59385 3.29229 7.8012 3.12412C8.00833 2.95595 8.2736 2.87165 8.59721 2.87165C8.77226 2.87165 8.94579 2.89219 9.11804 2.93327C9.29028 2.97457 9.46106 3.03426 9.63008 3.11278L9.25671 4.14493C9.14474 4.07004 9.0259 4.01507 8.89973 3.97955C8.77377 3.94403 8.63447 3.92627 8.48225 3.92627C8.07122 3.92627 7.78741 4.08802 7.63109 4.41153C7.47456 4.73504 7.4229 5.27807 7.47586 6.04085L7.63798 8.3741H6.39931L6.02898 3.04582H7.26765L7.32731 3.90358Z" fill="white"/>
<path id="Vector_3" d="M10.0662 0.75721C10.0522 0.551593 10.1168 0.374007 10.2606 0.224448C10.404 0.0748889 10.5825 0 10.7956 0C11.0163 0 11.2049 0.0721121 11.3614 0.215894C11.5182 0.35989 11.6039 0.540258 11.6188 0.757001C11.6338 0.973958 11.5725 1.15625 11.4343 1.30388C11.2962 1.45151 11.1186 1.52555 10.9015 1.52555C10.6884 1.52555 10.4996 1.4498 10.3349 1.29832C10.1706 1.14726 10.0808 0.966678 10.0662 0.75721ZM10.761 8.37403L10.3915 3.05687H11.6306L12.0001 8.37403H10.761Z" fill="white"/>
</g>
</svg>
