<svg width="700" height="408" viewBox="0 0 700 408" fill="none" xmlns="http://www.w3.org/2000/svg">
<g filter="url(#filter0_d_8951_40491)">
<path d="M238.543 21.6406C331.277 16.4278 428.506 43.581 414.214 82.9424C399.922 122.304 490.621 68.9613 526.817 83.1528C552.586 93.2563 542.285 124.013 554.751 136.407C583.335 164.823 612.569 129.04 648.948 150.509C674.479 165.576 679.414 259.855 671.619 321.121C667.844 350.789 644.477 374.236 614.67 378.353L159.156 364.952L103.655 369.223C103.655 369.223 3.55754 332.277 83.7663 280.592C126.018 253.366 95.4388 231.514 90.9124 218.498C85.7153 203.553 73.5887 177.452 126.426 158.297C179.263 139.143 165.62 97.466 164.321 88.8361C163.022 80.206 145.808 26.8534 238.543 21.6406Z" fill="#EAFCFC"/>
<path d="M605.566 94.731C605.566 94.731 596.282 114.816 590.034 123.3C583.787 131.784 577.836 139.897 572.851 163.444C567.866 186.992 568.721 189.359 567.356 195.441C565.992 201.523 557.113 226.164 557.062 230.683C557.011 235.202 539.118 260.924 534.535 272.964C529.952 285.003 521.833 302.2 522.289 310.956L524.328 310.442C524.328 310.442 525.991 290.026 540.135 269.394C554.279 248.761 552.256 244.865 568.319 234.266C584.382 223.667 594.756 194.387 594.756 194.387C594.756 194.387 611.095 162.585 610.335 146.052C609.575 129.519 613.913 114.609 605.566 94.731Z" fill="#256653"/>
<path d="M583.825 63.8398C583.825 63.8398 583.284 77.0333 579.001 84.871C574.719 92.7084 571.03 97.4688 570.252 105.949C569.475 114.428 566.785 136.29 554.843 146.962C542.902 157.635 541.376 189.614 532.286 199.288C523.197 208.962 522.009 215.915 523.687 232.507C525.365 249.099 531.068 272.093 517.882 302.106L514.901 294.641C514.901 294.641 524.335 269.949 522.052 255.492C519.768 241.034 511.821 219.188 514.729 208.711C517.638 198.233 506.822 196.187 513.335 180.34C519.848 164.493 517.173 158.987 526.039 145.286C526.039 145.286 526.948 144.644 529.279 133.052C531.611 121.46 550.403 100.212 559.063 92.9617C567.723 85.7111 580.204 74.0911 583.825 63.8398Z" fill="#256653"/>
<path d="M548.55 129.164C548.55 129.164 538.18 146.808 538.032 158.164C537.884 169.521 539.123 178.758 533.876 194.31C528.629 209.862 539.043 219.693 536.042 228.279C533.04 236.865 532.808 247.031 532.899 254.74C532.99 262.449 521.02 287.962 519.198 300.88C517.376 313.799 519.704 313.841 519.704 313.841C519.704 313.841 521.689 296.786 524.443 291.146C527.198 285.507 535.572 266.064 537.529 258.541C539.485 251.018 544.789 246.19 549.363 233.45C553.938 220.71 560.441 209.98 559.945 191.902C559.448 173.824 566.769 154.744 548.55 129.164Z" fill="#3C8F7C"/>
<path d="M526.595 302.002C526.595 302.002 531.431 279.61 551.824 277.374C572.217 275.138 584.196 279.144 598.603 262.785C613.009 246.425 621.377 220.463 625.98 215.994C625.98 215.994 618.741 212.294 606.707 223.474C594.673 234.654 586.22 243.135 579.253 249.644C572.286 256.153 566.628 251.909 559.273 256.201C553.109 259.798 545.137 270.192 541.626 275.636C540.486 277.405 539.134 279.027 537.581 280.452C536.168 281.748 534.485 283.336 533.405 284.505C531.247 286.843 525.018 302.082 525.018 302.082L526.595 302.002Z" fill="#3C8F7C"/>
<path d="M519.407 298.052C519.407 298.052 526.594 270.667 521.78 257.266C516.966 243.865 501.896 233.948 502.501 225.53C503.107 217.112 512.782 194.359 504.893 177.419C504.893 177.419 501.896 192.53 498.94 195.891C495.983 199.252 475.688 212.807 479.286 230.708C482.884 248.609 502.612 252.794 507.471 258.064C512.33 263.334 518.89 263.328 518.931 266.832C518.972 270.336 520.252 283.078 518.074 295.649L519.407 298.052Z" fill="#3C8F7C"/>
<path d="M527.266 279.726L537.362 250.824C537.362 250.824 543.294 227.577 546.731 208.192C550.169 188.806 548.55 129.164 548.55 129.164C548.55 129.164 538.179 146.808 538.032 158.164C537.884 169.521 539.122 178.758 533.876 194.31C528.629 209.862 539.043 219.693 536.042 228.279C533.04 236.865 532.808 247.031 532.899 254.74C532.99 262.449 521.02 287.962 519.198 300.88C518.2 307.957 518.448 311.166 518.876 312.624C517.256 301.325 527.266 279.726 527.266 279.726Z" fill="#327F6B"/>
<path d="M576.999 262.508C567.992 264.296 559.939 263.686 549.246 271.594C538.554 279.503 532.265 287.949 532.265 287.949C532.265 287.949 527.459 296.485 525.472 300.985C525.185 301.673 525.018 302.083 525.018 302.083L526.594 302.002C526.594 302.002 531.431 279.61 551.824 277.374C572.217 275.138 584.196 279.144 598.603 262.785C613.009 246.425 621.377 220.463 625.979 215.994C625.979 215.994 610.656 227.84 601.188 238.324C591.719 248.808 586.006 260.721 576.999 262.508Z" fill="#327F6B"/>
<path d="M498.94 195.891C495.983 199.252 475.689 212.807 479.287 230.708C482.884 248.609 502.613 252.794 507.472 258.064C512.33 263.334 518.89 263.327 518.931 266.832C518.973 270.336 520.252 283.077 518.074 295.649L518.656 296.698C519.721 291.792 521.198 284.32 521.681 278.646C522.465 269.432 520.962 265.617 517.982 258.153C515.001 250.688 496.482 235.484 491.842 227.491C487.201 219.498 500.79 206.136 503.806 199.685C506.822 193.234 504.893 177.419 504.893 177.419C504.893 177.419 501.897 192.529 498.94 195.891Z" fill="#327F6B"/>
<path d="M534.193 286.064L536.915 279.53C539.026 274.723 544.429 272.428 548.982 274.403C560.456 279.38 565.444 293.234 560.123 305.346L556.233 314.202C554.529 318.081 555.123 322.349 557.421 325.358C559.508 328.091 559.849 331.891 558.402 335.185L556.351 339.854C554.131 344.908 549.811 348.651 544.687 350.195C541.69 351.098 539.044 353.333 537.645 356.519L534.741 363.129C531.53 370.437 523.316 373.927 516.393 370.924L512.443 369.211C505.52 366.207 502.511 357.849 505.721 350.541C510.912 341.803 510.498 335.281 508.659 330.857C505.954 324.353 505.985 316.87 508.912 310.208L509.322 309.274C512.41 302.244 518.374 296.995 525.476 294.747C528.611 293.755 531.88 291.332 534.193 286.064Z" fill="#50BFA5"/>
<path d="M485.198 378.353C490.767 371.179 521.3 332.744 541.209 326.339C563.185 319.27 542.473 347.349 542.473 347.349C542.473 347.349 581.458 304.987 595.765 308.806C608.879 312.307 595.765 338.565 595.765 338.565C595.765 338.565 610.535 324.024 628.447 324.024C645.879 324.024 616.268 375.593 614.67 378.353H485.198Z" fill="#96D9C9"/>
<path d="M602.687 295.21C586.759 319.931 575.134 347.393 568.486 376.567L567.395 376.276C574.013 347.713 585.561 320.299 601.463 295.605C605.158 289.866 609.149 283.058 616.069 280.819C616.202 280.776 616.253 280.977 616.125 281.025C609.805 283.392 606.144 289.844 602.687 295.21Z" fill="#3C8F7C"/>
<path d="M572.327 377.59C590.126 353.537 611.766 331.305 637.496 311.973C637.753 311.78 638.1 312.225 637.841 312.422C613.438 331.063 591.848 353.075 573.68 377.951L572.327 377.59Z" fill="#3C8F7C"/>
<path d="M604.142 279.879C604.552 280.478 606.122 282.041 606.583 284.095C607.202 286.043 606.713 288.481 606.661 288.396C606.543 288.444 608.477 286.819 609.082 284.234C609.864 281.754 609.316 278.315 608.343 277.175C606.662 274.599 603.725 274.338 603.155 275.588C602.55 276.828 603.318 278.516 604.142 279.879Z" fill="#3C8F7C"/>
<path d="M607.954 301.945C607.359 301.526 605.817 299.936 603.76 299.437C601.813 298.783 599.35 299.221 599.435 299.275C599.384 299.392 601.057 297.502 603.67 296.952C606.18 296.224 609.629 296.836 610.757 297.825C613.315 299.546 613.52 302.468 612.252 303.01C610.992 303.587 609.309 302.791 607.954 301.945Z" fill="#3C8F7C"/>
<path d="M602.203 311.617C601.608 311.198 600.066 309.607 598.009 309.109C596.062 308.455 593.599 308.892 593.684 308.946C593.633 309.063 595.306 307.173 597.919 306.624C600.429 305.895 603.878 306.507 605.006 307.496C607.564 309.217 607.769 312.14 606.501 312.682C605.241 313.259 603.558 312.463 602.203 311.617Z" fill="#3C8F7C"/>
<path d="M622.715 334.048C622.12 333.629 620.579 332.039 618.522 331.54C616.574 330.886 614.111 331.324 614.196 331.378C614.145 331.495 615.818 329.605 618.431 329.055C620.941 328.327 624.391 328.939 625.518 329.928C628.077 331.649 628.281 334.572 627.014 335.114C625.753 335.69 624.07 334.895 622.715 334.048Z" fill="#3C8F7C"/>
<path d="M633.194 324.874C632.599 324.455 631.058 322.865 629.001 322.366C627.053 321.712 624.59 322.15 624.675 322.204C624.624 322.32 626.298 320.431 628.91 319.881C631.42 319.152 634.87 319.764 635.997 320.754C638.556 322.474 638.76 325.397 637.493 325.939C636.232 326.516 634.549 325.72 633.194 324.874Z" fill="#3C8F7C"/>
<path d="M596.096 290.822C596.596 291.35 598.394 292.647 599.175 294.603C600.096 296.429 600 298.914 599.934 298.838C599.825 298.904 601.478 296.996 601.665 294.349C602.044 291.777 600.957 288.467 599.816 287.494C597.747 285.214 594.806 285.416 594.441 286.739C594.04 288.059 595.066 289.605 596.096 290.822Z" fill="#3C8F7C"/>
<path d="M587.64 301.79C588.352 302.165 590.838 302.845 592.088 304.694C593.504 306.339 593.683 309.153 593.589 309.096C593.456 309.217 595.362 306.382 595.279 303.347C595.455 300.316 593.644 297.085 592.047 296.487C589.09 294.825 585.308 296.307 584.997 297.94C584.64 299.584 586.157 300.872 587.64 301.79Z" fill="#3C8F7C"/>
<path d="M578.74 318.402C579.505 318.653 582.071 318.908 583.617 320.521C585.29 321.906 585.944 324.65 585.841 324.609C585.73 324.751 587.129 321.637 586.534 318.66C586.195 315.642 583.862 312.76 582.187 312.438C578.991 311.294 575.513 313.387 575.483 315.048C575.409 316.729 577.123 317.745 578.74 318.402Z" fill="#3C8F7C"/>
<path d="M605.076 329.973C605.634 330.319 607.617 331.013 608.528 332.587C609.585 334.006 609.57 336.305 609.497 336.253C609.382 336.344 611.094 334.145 611.201 331.672C611.518 329.216 610.23 326.485 608.965 325.909C606.655 324.39 603.493 325.381 603.147 326.691C602.762 328.009 603.923 329.142 605.076 329.973Z" fill="#3C8F7C"/>
<path d="M618.788 283.769C618.454 283.495 617.612 282.487 616.418 282.103C615.294 281.631 613.818 281.783 613.866 281.819C613.83 281.885 614.903 280.84 616.473 280.629C617.99 280.307 620.004 280.819 620.627 281.453C622.065 282.583 622.057 284.32 621.283 284.586C620.513 284.872 619.552 284.328 618.788 283.769Z" fill="#3C8F7C"/>
<path d="M615.594 276.709C615.609 277.139 615.898 278.417 615.475 279.592C615.165 280.764 614.143 281.833 614.144 281.774C614.069 281.761 615.557 281.554 616.684 280.448C617.866 279.45 618.688 277.553 618.563 276.675C618.541 274.854 617.151 273.799 616.467 274.246C615.768 274.678 615.615 275.766 615.594 276.709Z" fill="#3C8F7C"/>
<path d="M640.742 315.529C640.408 315.255 639.566 314.247 638.372 313.863C637.248 313.392 635.772 313.543 635.82 313.579C635.785 313.646 636.857 312.601 638.427 312.389C639.944 312.067 641.958 312.579 642.581 313.214C644.019 314.343 644.011 316.081 643.238 316.346C642.467 316.633 641.506 316.089 640.742 315.529Z" fill="#3C8F7C"/>
<path d="M636.889 308.409C636.939 308.836 637.332 310.086 637.008 311.292C636.795 312.485 635.864 313.633 635.86 313.574C635.785 313.568 637.251 313.24 638.283 312.046C639.379 310.956 640.042 308.998 639.845 308.133C639.672 306.32 638.2 305.382 637.555 305.883C636.894 306.37 636.832 307.467 636.889 308.409Z" fill="#3C8F7C"/>
<path d="M634.208 354.419C617.943 356.19 602.796 363.325 588.213 370.282C578.379 374.973 578.875 376.31 576.872 377.008C576.548 377.122 576.223 376.771 576.381 376.46C577.152 374.944 579.172 373.918 580.578 373.046C582.214 372.03 583.923 371.133 585.658 370.296C589.37 368.505 593.178 366.893 596.962 365.26C604.659 361.937 612.481 358.811 620.612 356.695C625.07 355.535 629.606 354.698 634.197 354.287C634.283 354.279 634.293 354.409 634.208 354.419Z" fill="#3C8F7C"/>
<path d="M619.549 349.407C619.655 350.07 620.35 351.996 619.921 353.898C619.667 355.773 618.289 357.625 618.278 357.533C618.16 357.527 620.427 356.923 621.96 354.994C623.6 353.222 624.506 350.125 624.143 348.788C623.757 345.97 621.399 344.6 620.425 345.424C619.425 346.226 619.399 347.942 619.549 349.407Z" fill="#3C8F7C"/>
<path d="M605.22 354.506C605.326 355.169 606.021 357.094 605.592 358.996C605.338 360.871 603.96 362.723 603.95 362.631C603.832 362.625 606.099 362.022 607.631 360.092C609.271 358.32 610.178 355.223 609.815 353.886C609.429 351.068 607.071 349.698 606.097 350.522C605.097 351.324 605.071 353.04 605.22 354.506Z" fill="#3C8F7C"/>
<path d="M590.661 360.955C590.767 361.618 591.462 363.543 591.033 365.445C590.779 367.321 589.401 369.172 589.391 369.08C589.273 369.075 591.539 368.471 593.072 366.541C594.712 364.77 595.619 361.672 595.256 360.335C594.869 357.518 592.512 356.147 591.538 356.971C590.538 357.773 590.511 359.489 590.661 360.955Z" fill="#3C8F7C"/>
<path d="M623.827 362.711C623.532 362.164 622.963 360.359 621.579 359.196C620.338 357.954 618.283 357.354 618.327 357.427C618.243 357.497 620.253 356.685 622.466 357.257C624.67 357.653 627.077 359.433 627.56 360.619C628.858 362.91 627.891 365.227 626.71 365.161C625.523 365.124 624.539 363.874 623.827 362.711Z" fill="#3C8F7C"/>
<path d="M608.922 367.953C608.628 367.406 608.059 365.602 606.675 364.438C605.434 363.197 603.378 362.596 603.423 362.67C603.339 362.739 605.348 361.927 607.562 362.499C609.765 362.895 612.173 364.675 612.656 365.861C613.954 368.152 612.986 370.469 611.806 370.403C610.618 370.366 609.635 369.116 608.922 367.953Z" fill="#3C8F7C"/>
<path d="M635.177 357.315C634.92 357.01 634.322 355.952 633.299 355.402C632.355 354.786 630.984 354.679 631.021 354.719C630.978 354.774 632.132 354 633.598 354.069C635.034 354.028 636.783 354.829 637.244 355.511C638.363 356.779 638.063 358.361 637.314 358.474C636.563 358.607 635.78 357.952 635.177 357.315Z" fill="#3C8F7C"/>
<path d="M633.457 350.352C633.398 350.745 633.446 351.958 632.863 352.958C632.383 353.974 631.272 354.778 631.282 354.724C631.216 354.7 632.607 354.76 633.82 353.939C635.066 353.227 636.134 351.635 636.168 350.814C636.454 349.152 635.366 347.959 634.667 348.252C633.958 348.53 633.635 349.496 633.457 350.352Z" fill="#3C8F7C"/>
<path d="M134.681 235.155C121.075 213.427 118.536 187.189 118.802 169.005C119.091 149.264 122.656 134.483 122.691 134.336L121.707 133.982C121.671 134.13 118.078 149.019 117.784 168.891C117.512 187.254 120.08 213.761 133.855 235.759L134.681 235.155Z" fill="#3C8F7C"/>
<path d="M126.042 130.725C125.708 135.193 123.773 138.939 120.987 141.239C118.606 138.128 117.27 133.868 117.605 129.401C117.939 124.934 119.874 121.187 122.66 118.888C125.041 121.998 126.377 126.258 126.042 130.725Z" fill="#3C8F7C"/>
<path d="M116.846 141.038C119.154 144.904 119.87 149.305 119.13 153.125C115.596 152.264 112.175 149.736 109.866 145.87C107.558 142.004 106.843 137.603 107.582 133.783C111.117 134.644 114.538 137.172 116.846 141.038Z" fill="#3C8F7C"/>
<path d="M111.636 153.172C115.22 155.557 117.65 159.235 118.584 163.115C115.178 164.106 111.183 163.51 107.599 161.126C104.015 158.741 101.585 155.062 100.651 151.183C104.057 150.192 108.052 150.787 111.636 153.172Z" fill="#3C8F7C"/>
<path d="M113.243 170.071C116.08 171.965 117.839 175.203 118.319 178.784C115.362 180.07 112.035 179.914 109.197 178.019C106.359 176.125 104.601 172.887 104.121 169.307C107.078 168.02 110.405 168.177 113.243 170.071Z" fill="#3C8F7C"/>
<path d="M124.969 150.048C128.159 148.305 131.729 148.208 134.786 149.466C133.978 152.836 131.831 155.864 128.641 157.607C125.452 159.35 121.881 159.447 118.825 158.189C119.632 154.819 121.779 151.792 124.969 150.048Z" fill="#3C8F7C"/>
<path d="M124.616 161.72C127.806 159.977 131.376 159.88 134.432 161.138C133.625 164.508 131.478 167.536 128.288 169.279C125.098 171.022 121.528 171.119 118.471 169.861C119.279 166.491 121.426 163.463 124.616 161.72Z" fill="#3C8F7C"/>
<path d="M125.527 341.449C95.3826 330.579 74.2979 304.653 61.9181 284.818C48.4785 263.285 42.1074 244.076 42.0446 243.885L40.7126 244.41C40.7759 244.603 47.191 263.954 60.7164 285.633C73.2146 305.666 94.5191 331.856 125.037 342.86L125.527 341.449Z" fill="#96D9C9"/>
<path d="M43.2218 236.908C45.9664 242.028 46.4441 247.848 44.9754 252.892C40.1825 251.735 35.7411 248.377 32.9963 243.256C30.2516 238.136 29.774 232.316 31.2428 227.272C36.0353 228.429 40.4769 231.787 43.2218 236.908Z" fill="#96D9C9"/>
<path d="M40.2696 256.49C45.5085 258.528 49.3647 262.61 51.2122 267.407C46.715 269.736 41.1815 270.165 35.9426 268.127C30.7038 266.09 26.8475 262.008 25 257.211C29.4974 254.882 35.0309 254.452 40.2696 256.49Z" fill="#96D9C9"/>
<path d="M42.9825 274.365C48.5961 273.631 53.8385 275.355 57.5722 278.673C54.5072 282.88 49.6882 285.919 44.0746 286.653C38.461 287.387 33.2186 285.662 29.4849 282.344C32.5499 278.137 37.3689 275.098 42.9825 274.365Z" fill="#96D9C9"/>
<path d="M53.61 291.488C59.2236 290.754 64.4659 292.479 68.1997 295.797C65.1349 300.004 60.3159 303.043 54.7023 303.777C49.0885 304.51 43.8461 302.786 40.1125 299.468C43.1775 295.261 47.9964 292.222 53.61 291.488Z" fill="#96D9C9"/>
<path d="M52.7605 264.818C53.0656 259.411 55.3428 254.53 58.6926 251.2C61.6728 254.418 63.4027 259.228 63.0976 264.635C62.7924 270.043 60.5152 274.924 57.1655 278.254C54.1853 275.035 52.4553 270.225 52.7605 264.818Z" fill="#96D9C9"/>
<path d="M63.858 282.542C64.083 277.132 66.2884 272.211 69.5898 268.82C72.6187 271.98 74.4208 276.755 74.1957 282.164C73.9707 287.574 71.7653 292.495 68.4637 295.886C65.435 292.726 63.6329 287.951 63.858 282.542Z" fill="#96D9C9"/>
<path d="M71.7342 309.196C73.8747 308.076 76.2291 308.041 78.2146 308.894C77.6074 311.102 76.1253 313.075 73.9848 314.194C71.8441 315.314 69.4897 315.349 67.5044 314.497C68.1116 312.289 69.5936 310.316 71.7342 309.196Z" fill="#96D9C9"/>
<path d="M190.671 315.091C190.671 315.091 214.106 266.113 206.272 255.185C195.445 240.082 181.983 286.426 181.326 282.353C175.125 243.885 176.423 195.367 147.423 188.014C130.937 183.835 148.513 224.249 146.465 234.663C144.418 245.076 116.995 207.899 100.105 188.23C83.2147 168.561 72.8729 179.413 82.6635 203.275C92.1307 226.349 126.427 253.385 118.75 255.7C111.072 258.014 68.0238 225.871 61.5357 237.717C53.5809 252.241 119.896 277.879 113.242 280.772C106.589 283.664 74.9979 270.066 74.9979 281.636C74.9979 293.206 118.651 296.098 117.516 301.1C115.677 309.201 88.2559 288.462 86.1142 299.701C83.9236 311.197 123.339 312.069 121.962 321.06C121.171 326.227 111.243 320.819 109.448 327.923C105.353 344.121 167.463 366.818 167.463 366.818L190.671 315.091Z" fill="#3C8F7C"/>
<path d="M240.176 323.985C249.606 328.36 247.062 339.224 247.062 339.224C247.062 339.224 272.629 319.453 282.186 330.993C291.743 342.532 286.721 365.151 275.511 368.828C264.3 372.505 166.798 369.928 166.798 369.928C166.798 369.928 231.694 320.05 240.176 323.985Z" fill="#96D9C9"/>
<path d="M190.672 283.644L191.837 282.968C173.827 251.208 170.228 214.748 170.381 189.755C170.546 162.631 175.042 142.778 175.088 142.581L173.739 142.087C173.693 142.286 169.164 162.271 168.994 189.556C168.836 214.762 172.469 251.546 190.672 283.644Z" fill="#50BFA5"/>
<path d="M179.392 138.131C179.004 144.231 176.518 149.122 172.906 151.907C169.765 147.306 167.975 141.265 168.364 135.166C168.752 129.067 171.238 124.176 174.85 121.39C177.992 125.992 179.781 132.032 179.392 138.131Z" fill="#50BFA5"/>
<path d="M167.498 151.069C170.553 156.699 171.534 162.85 170.61 168.005C165.987 166.341 161.493 162.4 158.439 156.77C155.385 151.139 154.403 144.988 155.327 139.833C159.951 141.498 164.444 145.438 167.498 151.069Z" fill="#50BFA5"/>
<path d="M160.827 167.053C165.532 170.819 168.743 176.209 170.004 181.671C165.568 182.573 160.347 181.212 155.642 177.446C150.938 173.68 147.727 168.291 146.466 162.828C150.902 161.926 156.123 163.287 160.827 167.053Z" fill="#50BFA5"/>
<path d="M165.251 196.086C167.318 197.516 168.812 199.683 169.497 201.946C167.679 202.478 165.468 202.08 163.402 200.65C161.335 199.22 159.841 197.053 159.156 194.79C160.974 194.258 163.185 194.655 165.251 196.086Z" fill="#50BFA5"/>
<path d="M166.253 206.797C168.32 208.228 169.814 210.394 170.499 212.658C168.681 213.189 166.471 212.792 164.404 211.361C162.337 209.931 160.843 207.764 160.158 205.501C161.976 204.97 164.187 205.367 166.253 206.797Z" fill="#50BFA5"/>
<path d="M178.199 164.565C182.344 162.6 187.004 162.95 191.008 165.096C189.99 169.622 187.22 173.495 183.074 175.46C178.929 177.425 174.268 177.075 170.265 174.929C171.283 170.403 174.053 166.53 178.199 164.565Z" fill="#50BFA5"/>
<path d="M177.863 180.57C182.008 178.605 186.668 178.955 190.671 181.101C189.654 185.627 186.884 189.5 182.738 191.465C178.592 193.431 173.932 193.08 169.929 190.934C170.947 186.408 173.717 182.536 177.863 180.57Z" fill="#50BFA5"/>
<path d="M175.452 203.343C178.151 202.063 181.184 202.292 183.789 203.688C183.127 206.634 181.324 209.155 178.625 210.434C175.927 211.713 172.894 211.485 170.289 210.089C170.951 207.143 172.754 204.622 175.452 203.343Z" fill="#50BFA5"/>
<path d="M166.798 369.832C166.798 369.832 209.408 361.142 218.702 352.68C227.996 344.218 223.883 340.919 223.883 340.919C223.883 340.919 240.258 328.1 240.002 319.73C239.747 311.359 229.079 315.606 229.079 315.606C229.079 315.606 247.159 292.55 242.871 288.165C234.883 279.997 213.978 303.963 213.978 303.963C213.978 303.963 220.181 292.563 213.637 290.753C203.766 288.023 196.507 316.14 196.507 316.14C196.507 316.14 198.348 305.036 191.545 306.51C179.339 309.154 166.798 369.832 166.798 369.832Z" fill="#50BFA5"/>
<path d="M186.798 367.188C186.798 367.188 158.873 332.326 146.354 326.492C133.015 320.276 144.582 341.817 144.582 341.817C144.582 341.817 116.06 314.068 109.361 320.997C102.662 327.926 109.815 334.409 109.815 334.409C109.815 334.409 85.9316 330.015 82.4495 338.875C77.0984 352.49 116.38 359.263 116.38 359.263C116.38 359.263 99.89 360.793 103.655 369.223C109.334 381.935 186.798 367.188 186.798 367.188Z" fill="#50BFA5"/>
<path d="M82.4495 338.875C85.9318 330.014 109.815 334.409 109.815 334.409C109.815 334.409 102.662 327.926 109.361 320.997C116.06 314.068 138.386 330.43 138.386 330.43C138.386 330.43 134.927 315.392 151.698 327.221C163.676 335.67 186.798 367.188 186.798 367.188L82.4495 338.875Z" fill="#96D9C9"/>
<path d="M193.896 158.779L168.087 370.365L171.771 374.327L193.877 286.583L193.896 158.779Z" fill="#B75742"/>
<path d="M197.035 137.519L171.771 374.327H227.539L213.686 132.643L197.035 137.519Z" fill="#355389"/>
<path d="M189.027 371.655H500.365C505.689 371.655 510.299 367.121 510.663 361.529L524.848 143.204C525.155 138.477 521.756 134.645 517.255 134.645H204.426C199.925 134.645 196.027 138.477 195.72 143.204L181.434 363.095C181.127 367.822 184.526 371.655 189.027 371.655Z" fill="#EDD7BE"/>
<path d="M213.73 133.409L213.686 132.643L195.595 134.243L171.771 374.327H174.431L199.696 137.519L213.73 133.409Z" fill="#184655"/>
<path d="M196.99 162.882L183.504 365.349C183.913 370.297 188.287 371.654 190.815 371.654H231.238L207.115 144.627L196.99 162.882Z" fill="#FEF8F8"/>
<path d="M229.247 213.434H208.237C205.223 213.434 203.007 210.907 203.287 207.789L205.236 186.056C205.516 182.938 208.186 180.411 211.2 180.411H232.209C235.223 180.411 237.44 182.938 237.16 186.056L235.21 207.789C234.931 210.907 232.26 213.434 229.247 213.434Z" fill="#9BC1F9"/>
<path d="M274.534 213.434H253.524C250.511 213.434 248.294 210.907 248.574 207.789L250.523 186.056C250.803 182.938 253.473 180.411 256.487 180.411H277.497C280.51 180.411 282.727 182.938 282.447 186.056L280.497 207.789C280.218 210.907 277.548 213.434 274.534 213.434Z" fill="#9BC1F9"/>
<path d="M319.821 213.434H298.812C295.798 213.434 293.582 210.907 293.861 207.789L295.811 186.056C296.09 182.938 298.761 180.411 301.774 180.411H322.784C325.798 180.411 328.014 182.938 327.734 186.056L325.785 207.789C325.505 210.907 322.835 213.434 319.821 213.434Z" fill="#9BC1F9"/>
<path d="M365.108 213.434H344.098C341.084 213.434 338.868 210.907 339.148 207.789L341.097 186.056C341.377 182.938 344.047 180.411 347.061 180.411H368.07C371.084 180.411 373.301 182.938 373.021 186.056L371.071 207.789C370.792 210.907 368.122 213.434 365.108 213.434Z" fill="#9BC1F9"/>
<path d="M410.395 213.434H389.386C386.372 213.434 384.155 210.907 384.435 207.789L386.385 186.056C386.664 182.938 389.334 180.411 392.348 180.411H413.358C416.372 180.411 418.588 182.938 418.308 186.056L416.359 207.789C416.079 210.907 413.409 213.434 410.395 213.434Z" fill="#9BC1F9"/>
<path d="M455.682 213.434H434.673C431.659 213.434 429.442 210.907 429.722 207.789L431.672 186.056C431.951 182.938 434.621 180.411 437.635 180.411H458.645C461.659 180.411 463.875 182.938 463.596 186.056L461.646 207.789C461.366 210.907 458.696 213.434 455.682 213.434Z" fill="#F47458"/>
<path d="M500.969 213.434H479.96C476.946 213.434 474.73 210.907 475.009 207.789L476.959 186.056C477.239 182.938 479.908 180.411 482.922 180.411H503.932C506.946 180.411 509.162 182.938 508.883 186.056L506.933 207.789C506.653 210.907 503.983 213.434 500.969 213.434Z" fill="#F47458"/>
<path d="M224.787 263.154H203.777C200.763 263.154 198.547 260.627 198.826 257.509L200.776 235.776C201.056 232.658 203.726 230.131 206.739 230.131H227.749C230.763 230.131 232.979 232.658 232.7 235.776L230.75 257.509C230.47 260.627 227.8 263.154 224.787 263.154Z" fill="#9BC1F9"/>
<path d="M270.074 263.154H249.064C246.051 263.154 243.834 260.627 244.114 257.509L246.063 235.776C246.343 232.658 249.013 230.131 252.027 230.131H273.036C276.05 230.131 278.267 232.658 277.987 235.776L276.037 257.509C275.758 260.627 273.088 263.154 270.074 263.154Z" fill="#9BC1F9"/>
<path d="M315.361 263.154H294.351C291.337 263.154 289.121 260.627 289.401 257.509L291.35 235.776C291.63 232.658 294.3 230.131 297.314 230.131H318.323C321.337 230.131 323.554 232.658 323.274 235.776L321.324 257.509C321.045 260.627 318.374 263.154 315.361 263.154Z" fill="#9BC1F9"/>
<path d="M360.648 263.154H339.638C336.624 263.154 334.408 260.627 334.687 257.509L336.637 235.776C336.917 232.658 339.587 230.131 342.6 230.131H363.61C366.624 230.131 368.84 232.658 368.561 235.776L366.611 257.509C366.332 260.627 363.661 263.154 360.648 263.154Z" fill="#9BC1F9"/>
<path d="M405.935 263.154H384.926C381.912 263.154 379.695 260.627 379.975 257.509L381.925 235.776C382.204 232.658 384.874 230.131 387.888 230.131H408.898C411.912 230.131 414.128 232.658 413.848 235.776L411.899 257.509C411.619 260.627 408.949 263.154 405.935 263.154Z" fill="#9BC1F9"/>
<path d="M451.222 263.154H430.213C427.199 263.154 424.982 260.627 425.262 257.509L427.212 235.776C427.491 232.658 430.161 230.131 433.175 230.131H454.185C457.199 230.131 459.415 232.658 459.136 235.776L457.186 257.509C456.906 260.627 454.236 263.154 451.222 263.154Z" fill="#F47458"/>
<path d="M496.509 263.154H475.5C472.486 263.154 470.269 260.627 470.549 257.509L472.499 235.776C472.778 232.658 475.448 230.131 478.462 230.131H499.472C502.486 230.131 504.702 232.658 504.422 235.776L502.473 257.509C502.193 260.627 499.523 263.154 496.509 263.154Z" fill="#F47458"/>
<path d="M220.326 312.874H199.316C196.303 312.874 194.086 310.347 194.366 307.229L196.316 285.496C196.595 282.379 199.265 279.851 202.279 279.851H223.289C226.302 279.851 228.519 282.379 228.239 285.496L226.289 307.229C226.01 310.347 223.34 312.874 220.326 312.874Z" fill="#9BC1F9"/>
<path d="M265.613 312.874H244.604C241.59 312.874 239.373 310.347 239.653 307.229L241.603 285.496C241.882 282.379 244.552 279.851 247.566 279.851H268.576C271.589 279.851 273.806 282.379 273.526 285.496L271.576 307.229C271.297 310.347 268.627 312.874 265.613 312.874Z" fill="#9BC1F9"/>
<path d="M310.9 312.874H289.891C286.877 312.874 284.66 310.347 284.94 307.229L286.89 285.496C287.169 282.379 289.839 279.851 292.853 279.851H313.863C316.876 279.851 319.093 282.379 318.813 285.496L316.864 307.229C316.584 310.347 313.914 312.874 310.9 312.874Z" fill="#9BC1F9"/>
<path d="M356.187 312.874H335.178C332.164 312.874 329.947 310.347 330.227 307.229L332.177 285.496C332.456 282.379 335.126 279.851 338.14 279.851H359.15C362.164 279.851 364.38 282.379 364.1 285.496L362.151 307.229C361.871 310.347 359.201 312.874 356.187 312.874Z" fill="#9BC1F9"/>
<path d="M401.475 312.874H380.465C377.451 312.874 375.235 310.347 375.514 307.229L377.464 285.496C377.744 282.379 380.414 279.851 383.428 279.851H404.437C407.451 279.851 409.667 282.379 409.388 285.496L407.438 307.229C407.159 310.347 404.488 312.874 401.475 312.874Z" fill="#9BC1F9"/>
<path d="M446.761 312.874H425.752C422.738 312.874 420.521 310.347 420.801 307.229L422.751 285.496C423.03 282.379 425.7 279.851 428.714 279.851H449.724C452.738 279.851 454.954 282.379 454.674 285.496L452.725 307.229C452.445 310.347 449.775 312.874 446.761 312.874Z" fill="#F47458"/>
<path d="M492.049 312.874H471.039C468.025 312.874 465.809 310.347 466.088 307.229L468.038 285.496C468.318 282.379 470.988 279.851 474.002 279.851H495.011C498.025 279.851 500.242 282.379 499.962 285.496L498.012 307.229C497.732 310.347 495.062 312.874 492.049 312.874Z" fill="#F47458"/>
<path d="M215.866 362.594H194.856C191.842 362.594 189.626 360.067 189.905 356.95L191.855 335.216C192.135 332.099 194.805 329.571 197.818 329.571H218.828C221.842 329.571 224.058 332.099 223.779 335.216L221.829 356.95C221.549 360.067 218.879 362.594 215.866 362.594Z" fill="#9BC1F9"/>
<path d="M261.153 362.594H240.143C237.129 362.594 234.913 360.067 235.192 356.95L237.142 335.216C237.422 332.099 240.092 329.571 243.106 329.571H264.115C267.129 329.571 269.345 332.099 269.066 335.216L267.116 356.95C266.837 360.067 264.167 362.594 261.153 362.594Z" fill="#9BC1F9"/>
<path d="M306.44 362.594H285.43C282.416 362.594 280.2 360.067 280.479 356.95L282.429 335.216C282.709 332.099 285.379 329.571 288.392 329.571H309.402C312.416 329.571 314.632 332.099 314.353 335.216L312.403 356.95C312.123 360.067 309.453 362.594 306.44 362.594Z" fill="#9BC1F9"/>
<path d="M351.727 362.594H330.717C327.703 362.594 325.487 360.067 325.766 356.95L327.716 335.216C327.996 332.099 330.666 329.571 333.68 329.571H354.689C357.703 329.571 359.919 332.099 359.64 335.216L357.69 356.95C357.411 360.067 354.741 362.594 351.727 362.594Z" fill="#9BC1F9"/>
<path d="M397.014 362.594H376.004C372.99 362.594 370.774 360.067 371.054 356.95L373.003 335.216C373.283 332.099 375.953 329.571 378.967 329.571H399.976C402.99 329.571 405.207 332.099 404.927 335.216L402.977 356.95C402.698 360.067 400.028 362.594 397.014 362.594Z" fill="#9BC1F9"/>
<path d="M522.707 378.353H211.368C206.044 378.353 201.628 373.989 201.503 368.606L196.643 158.458C196.538 153.908 200.101 150.219 204.602 150.219H517.431C521.932 150.219 525.666 153.908 525.771 158.458L530.665 370.114C530.77 374.664 527.207 378.353 522.707 378.353Z" fill="#E0C8A9"/>
<path d="M524.937 378.5H213.599C208.275 378.5 203.858 374.136 203.733 368.754L198.874 158.605C198.769 154.055 202.332 150.366 206.832 150.366H519.662C524.162 150.366 527.896 154.055 528.001 158.605L532.896 370.26C533.001 374.811 529.438 378.5 524.937 378.5Z" fill="#FEF8F8"/>
<path d="M125.257 67.2964C125.023 63.9579 127.558 61.0635 130.918 60.8317C134.277 60.5999 137.19 63.1186 137.423 66.4572C137.656 69.7957 135.122 72.6901 131.762 72.9219C128.402 73.1535 125.49 70.6348 125.257 67.2964Z" fill="#F7CC7F"/>
<path d="M135.597 84.4079C135.233 82.6499 135.013 80.7679 134.409 79.0738C133.89 77.6167 131.602 78.0618 131.718 79.6266C131.86 81.5427 132.463 83.4855 132.867 85.3625C133.03 86.1227 134.043 86.4756 134.712 86.2419C135.531 85.9563 135.755 85.1717 135.597 84.4079Z" fill="#F7CC7F"/>
<path d="M146.048 76.9006C144.027 75.7163 142.265 74.2491 140.4 72.8488C138.943 71.7549 137.373 73.6377 138.571 74.9378C140.292 76.8051 142.551 78.2639 144.732 79.5417C145.423 79.946 146.382 79.5509 146.719 78.8749C147.097 78.1168 146.74 77.3057 146.048 76.9006Z" fill="#F7CC7F"/>
<path d="M142.22 66.0529C141.763 66.4177 141.671 66.9417 141.954 67.4508C142.638 68.6829 144.372 68.6218 145.605 68.5802C146.89 68.5368 148.176 68.2772 149.392 67.8647C151.189 67.2552 150.215 64.4838 148.411 65.0954C144.884 66.2921 143.548 64.9933 142.22 66.0529Z" fill="#F7CC7F"/>
<path d="M140.278 54.2709C138.503 56.8512 137.053 57.7224 137.279 59.1428C137.411 59.9731 138.072 60.3696 138.878 60.1877C139.831 59.9729 140.35 58.9684 140.922 58.2634C141.47 57.5874 142.008 56.9097 142.497 56.1897C142.941 55.5364 143.004 54.6905 142.353 54.1279C141.808 53.6562 140.729 53.6155 140.278 54.2709Z" fill="#F7CC7F"/>
<path d="M133.364 53.8233C132.797 52.2593 132.672 51.6905 131.936 50.9638C131.296 50.3321 129.946 50.735 129.856 51.6658C129.752 52.7512 129.981 53.1543 130.577 54.7977C130.848 55.5431 131.704 55.959 132.461 55.6953C133.211 55.4336 133.635 54.5716 133.364 53.8233Z" fill="#F7CC7F"/>
<path d="M125.895 57.6079C123.337 55.6762 122.816 55.1322 121.811 55.2376C121.222 55.2993 120.561 55.8616 120.689 56.519C120.928 57.7403 121.643 58.072 123.996 59.7774C124.626 60.2347 125.493 60.2578 126.037 59.6366C126.524 59.0797 126.52 58.0797 125.895 57.6079Z" fill="#F7CC7F"/>
<path d="M115.618 66.4613C114.61 66.9929 115.015 68.7251 116.107 68.8669C117.154 69.0028 117.558 68.8358 122.637 67.9142C123.422 67.7718 124.068 67.2026 124.008 66.3488C123.957 65.6241 123.222 64.8449 122.433 64.9865C117.158 65.9322 116.63 65.9281 115.618 66.4613Z" fill="#F7CC7F"/>
<path d="M123.576 74.7187C120.792 77.3962 120.384 76.9231 119.285 78.5604C118.782 79.3091 119.611 80.5023 120.487 80.3427C121.61 80.1381 121.912 79.9497 123.376 78.7969C124.227 78.127 125.04 77.4089 125.822 76.6608C126.401 76.1063 126.245 75.0657 125.676 74.5738C125.026 74.0116 124.155 74.1614 123.576 74.7187Z" fill="#F7CC7F"/>
<path d="M188.696 69.5746L192.212 65.4673L198.415 65.0317L201.954 60.3131L208.21 61.2999L212.51 56.0282L218.631 56.3863L223.801 51.5805L221.665 50.6499L217.8 54.2432L211.341 53.8651L207.207 58.9328L200.847 57.9294L196.941 63.1364L190.884 63.562L187.625 67.3689L183.79 67.0559L182.724 69.0872L188.696 69.5746Z" fill="#50BFA5"/>
<path d="M436.998 58.1116L433.674 61.7947L434.843 66.6033C434.938 66.9919 434.543 67.3195 434.175 67.1576L429.623 65.1545L425.382 67.7455C425.04 67.9548 424.604 67.6826 424.645 67.2851L425.156 62.3639L421.366 59.1563C421.06 58.897 421.185 58.4017 421.579 58.3178L426.446 57.2794L428.345 52.706C428.498 52.3365 429.011 52.3024 429.213 52.6479L431.711 56.9273L436.675 57.3085C437.075 57.3398 437.267 57.8141 436.998 58.1116Z" fill="#FED333"/>
<path d="M279.079 62.939L274.374 55.7113L269.85 59.2667L268.136 57.1124L275.044 51.6836L279.721 58.8679L284.971 54.5966L289.361 61.0808L295.364 57.4285L296.807 59.7707L288.546 64.7972L284.373 58.6329L279.079 62.939Z" fill="#F47458"/>
<path d="M346.964 54.1854L349.698 49.7725L347.503 48.8878C347.022 48.6942 346.791 48.1501 346.985 47.6728C347.18 47.1954 347.728 46.9653 348.208 47.1588L350.74 48.1792L353.184 44.2162L350.839 43.2711C350.359 43.0775 350.127 42.5335 350.322 42.0559C350.517 41.5786 351.064 41.3484 351.545 41.5422L354.226 42.6227L357.065 38.0845C357.306 37.699 357.792 37.5419 358.215 37.7125L358.625 37.8775C359.162 38.0941 359.375 38.738 359.072 39.2293L356.432 43.5115L360.32 45.0784L363.159 40.5402C363.4 40.1545 363.885 39.9976 364.309 40.1682L364.756 40.3483C365.293 40.565 365.506 41.2089 365.203 41.7001L362.563 45.9823L364.759 46.8671C365.239 47.0606 365.471 47.6047 365.276 48.0822C365.081 48.5596 364.534 48.7897 364.053 48.5962L361.521 47.5758L359.114 51.5538L361.459 52.4989C361.94 52.6924 362.172 53.2365 361.977 53.714C361.782 54.1914 361.234 54.4215 360.754 54.2278L358.073 53.147L355.173 57.8272C354.933 58.2152 354.446 58.3737 354.021 58.2027L353.542 58.0097C353.004 57.7929 352.791 57.1475 353.095 56.6561L355.829 52.2431L351.941 50.6762L349.042 55.3564C348.802 55.7443 348.314 55.9029 347.89 55.7318L347.411 55.5389C346.873 55.3222 346.66 54.6769 346.964 54.1854ZM356.871 50.65L359.316 46.687L355.428 45.1201L352.984 49.0831L356.871 50.65Z" fill="#07345A"/>
<path d="M514.939 54.6884L508.977 53.7384L505.528 58.8059L498.922 57.271L496.923 63.7942L489.375 62.3859L486.788 68.1671L479.303 67.9917L479.37 65.1768L484.966 65.3075L487.696 59.2072L494.951 60.561L496.984 53.9285L504.274 55.6224L507.642 50.6738L513.167 51.5545L514.696 47.8447L517.318 48.9118L514.939 54.6884Z" fill="#256653"/>
<path d="M504.142 118.543H213.532C202.864 118.543 194.807 127.039 195.535 137.519L197.488 165.633H526.729L524.776 137.519C524.048 127.039 514.81 118.543 504.142 118.543Z" fill="#B75742"/>
<path d="M505.643 118.543H215.032C204.364 118.543 196.307 127.039 197.035 137.519L198.988 165.633H528.229L526.276 137.519C525.548 127.039 516.31 118.543 505.643 118.543Z" fill="#F47458"/>
<path d="M239.471 217.364H218.461C215.448 217.364 212.921 214.864 212.819 211.779L212.106 190.275C212.003 187.19 214.363 184.689 217.377 184.689H238.387C241.401 184.689 243.927 187.19 244.029 190.275L244.743 211.779C244.845 214.864 242.485 217.364 239.471 217.364Z" fill="#F47458"/>
<path d="M284.758 217.364H263.748C260.734 217.364 258.208 214.864 258.106 211.779L257.392 190.275C257.29 187.19 259.65 184.689 262.664 184.689H283.674C286.688 184.689 289.214 187.19 289.316 190.275L290.03 211.779C290.132 214.864 287.772 217.364 284.758 217.364Z" fill="#9BC1F9"/>
<path d="M330.045 217.364H309.036C306.022 217.364 303.495 214.864 303.393 211.779L302.68 190.275C302.577 187.19 304.938 184.689 307.952 184.689H328.961C331.975 184.689 334.501 187.19 334.604 190.275L335.317 211.779C335.419 214.864 333.059 217.364 330.045 217.364Z" fill="#9BC1F9"/>
<path d="M375.333 217.364H354.323C351.309 217.364 348.783 214.864 348.681 211.779L347.967 190.275C347.865 187.19 350.225 184.689 353.239 184.689H374.248C377.262 184.689 379.789 187.19 379.891 190.275L380.604 211.779C380.706 214.864 378.346 217.364 375.333 217.364Z" fill="#9BC1F9"/>
<path d="M420.619 217.364H399.609C396.595 217.364 394.069 214.864 393.967 211.779L393.253 190.275C393.151 187.19 395.512 184.689 398.525 184.689H419.535C422.549 184.689 425.075 187.19 425.177 190.275L425.891 211.779C425.993 214.864 423.633 217.364 420.619 217.364Z" fill="#9BC1F9"/>
<path d="M465.906 217.364H444.897C441.883 217.364 439.357 214.864 439.254 211.779L438.541 190.275C438.438 187.19 440.799 184.689 443.812 184.689H464.822C467.836 184.689 470.362 187.19 470.464 190.275L471.178 211.779C471.28 214.864 468.92 217.364 465.906 217.364Z" fill="#9BC1F9"/>
<path d="M511.193 217.364H490.184C487.17 217.364 484.644 214.864 484.541 211.779L483.828 190.275C483.725 187.19 486.086 184.689 489.1 184.689H510.109C513.123 184.689 515.649 187.19 515.752 190.275L516.465 211.779C516.568 214.864 514.207 217.364 511.193 217.364Z" fill="#F47458"/>
<path d="M241.103 266.56H220.093C217.08 266.56 214.553 264.059 214.451 260.974L213.738 239.47C213.635 236.385 215.995 233.884 219.009 233.884H240.019C243.033 233.884 245.559 236.385 245.661 239.47L246.375 260.974C246.477 264.059 244.117 266.56 241.103 266.56Z" fill="#F47458"/>
<path d="M286.39 266.56H265.381C262.367 266.56 259.841 264.059 259.739 260.974L259.025 239.47C258.923 236.385 261.283 233.884 264.297 233.884H285.306C288.32 233.884 290.846 236.385 290.949 239.47L291.662 260.974C291.765 264.059 289.404 266.56 286.39 266.56Z" fill="#9BC1F9"/>
<path d="M331.677 266.56H310.668C307.654 266.56 305.128 264.059 305.025 260.974L304.312 239.47C304.209 236.385 306.569 233.884 309.583 233.884H330.593C333.607 233.884 336.133 236.385 336.235 239.47L336.949 260.974C337.051 264.059 334.691 266.56 331.677 266.56Z" fill="#9BC1F9"/>
<path d="M376.965 266.56H355.955C352.941 266.56 350.415 264.059 350.313 260.974L349.599 239.47C349.497 236.385 351.857 233.884 354.871 233.884H375.88C378.894 233.884 381.42 236.385 381.523 239.47L382.236 260.974C382.339 264.059 379.978 266.56 376.965 266.56Z" fill="#9BC1F9"/>
<path d="M422.252 266.56H401.242C398.228 266.56 395.702 264.059 395.6 260.974L394.886 239.47C394.784 236.385 397.144 233.884 400.158 233.884H421.168C424.181 233.884 426.708 236.385 426.81 239.47L427.524 260.974C427.626 264.059 425.265 266.56 422.252 266.56Z" fill="#9BC1F9"/>
<path d="M467.539 266.56H446.529C443.516 266.56 440.99 264.059 440.887 260.974L440.174 239.47C440.071 236.385 442.431 233.884 445.445 233.884H466.455C469.469 233.884 471.995 236.385 472.097 239.47L472.811 260.974C472.913 264.059 470.553 266.56 467.539 266.56Z" fill="#9BC1F9"/>
<path d="M512.826 266.56H491.816C488.802 266.56 486.276 264.059 486.174 260.974L485.46 239.47C485.358 236.385 487.718 233.884 490.732 233.884H511.742C514.756 233.884 517.282 236.385 517.384 239.47L518.098 260.974C518.2 264.059 515.84 266.56 512.826 266.56Z" fill="#F47458"/>
<path d="M242.736 315.756H221.726C218.712 315.756 216.186 313.255 216.084 310.171L215.37 288.667C215.268 285.582 217.628 283.081 220.642 283.081H241.651C244.665 283.081 247.191 285.582 247.294 288.667L248.007 310.171C248.11 313.255 245.749 315.756 242.736 315.756Z" fill="#F47458"/>
<path d="M288.023 315.756H267.013C263.999 315.756 261.473 313.255 261.371 310.171L260.657 288.667C260.555 285.582 262.915 283.081 265.929 283.081H286.939C289.953 283.081 292.479 285.582 292.581 288.667L293.295 310.171C293.397 313.255 291.037 315.756 288.023 315.756Z" fill="#9BC1F9"/>
<path d="M333.31 315.756H312.3C309.286 315.756 306.76 313.255 306.658 310.171L305.944 288.667C305.842 285.582 308.202 283.081 311.216 283.081H332.226C335.239 283.081 337.766 285.582 337.868 288.667L338.581 310.171C338.684 313.255 336.324 315.756 333.31 315.756Z" fill="#9BC1F9"/>
<path d="M378.597 315.756H357.587C354.573 315.756 352.047 313.255 351.945 310.171L351.231 288.667C351.129 285.582 353.489 283.081 356.503 283.081H377.513C380.527 283.081 383.053 285.582 383.155 288.667L383.869 310.171C383.971 313.255 381.611 315.756 378.597 315.756Z" fill="#9BC1F9"/>
<path d="M423.884 315.756H402.874C399.86 315.756 397.334 313.255 397.232 310.171L396.518 288.667C396.416 285.582 398.776 283.081 401.79 283.081H422.8C425.814 283.081 428.34 285.582 428.442 288.667L429.156 310.171C429.258 313.255 426.898 315.756 423.884 315.756Z" fill="#9BC1F9"/>
<path d="M469.171 315.756H448.162C445.148 315.756 442.622 313.255 442.519 310.171L441.806 288.667C441.703 285.582 444.064 283.081 447.078 283.081H468.087C471.101 283.081 473.627 285.582 473.73 288.667L474.443 310.171C474.545 313.255 472.185 315.756 469.171 315.756Z" fill="#9BC1F9"/>
<path d="M514.459 315.756H493.449C490.435 315.756 487.909 313.255 487.807 310.171L487.093 288.667C486.991 285.582 489.351 283.081 492.365 283.081H513.374C516.388 283.081 518.915 285.582 519.017 288.667L519.73 310.171C519.833 313.255 517.472 315.756 514.459 315.756Z" fill="#F47458"/>
<path d="M244.368 364.952H223.359C220.345 364.952 217.819 362.451 217.716 359.367L217.003 337.862C216.9 334.778 219.261 332.277 222.275 332.277H243.284C246.298 332.277 248.824 334.778 248.927 337.862L249.64 359.367C249.742 362.451 247.382 364.952 244.368 364.952Z" fill="#F47458"/>
<path d="M289.655 364.952H268.646C265.632 364.952 263.106 362.451 263.003 359.367L262.29 337.862C262.187 334.778 264.548 332.277 267.562 332.277H288.571C291.585 332.277 294.111 334.778 294.213 337.862L294.927 359.367C295.029 362.451 292.669 364.952 289.655 364.952Z" fill="#9BC1F9"/>
<path d="M334.942 364.952H313.933C310.919 364.952 308.393 362.451 308.29 359.367L307.577 337.862C307.475 334.778 309.835 332.277 312.849 332.277H333.858C336.872 332.277 339.398 334.778 339.501 337.862L340.214 359.367C340.316 362.451 337.956 364.952 334.942 364.952Z" fill="#9BC1F9"/>
<path d="M380.229 364.952H359.22C356.206 364.952 353.68 362.451 353.577 359.367L352.864 337.862C352.761 334.778 355.122 332.277 358.136 332.277H379.145C382.159 332.277 384.685 334.778 384.788 337.862L385.501 359.367C385.603 362.451 383.243 364.952 380.229 364.952Z" fill="#9BC1F9"/>
<path d="M425.516 364.952H404.507C401.493 364.952 398.967 362.451 398.864 359.367L398.151 337.862C398.048 334.778 400.409 332.277 403.422 332.277H424.432C427.446 332.277 429.972 334.778 430.075 337.862L430.788 359.367C430.89 362.451 428.53 364.952 425.516 364.952Z" fill="#9BC1F9"/>
<path d="M216.099 151.926C216.553 152.19 217.206 152.41 217.877 152.41C218.872 152.41 219.417 151.894 219.365 151.147C219.317 150.455 218.887 150.059 217.843 149.675C216.583 149.246 215.78 148.62 215.707 147.577C215.627 146.423 216.54 145.566 218.005 145.566C218.777 145.566 219.348 145.742 219.696 145.929L219.482 146.709C219.227 146.577 218.708 146.357 218.026 146.357C216.998 146.357 216.648 146.961 216.684 147.467C216.732 148.159 217.214 148.499 218.281 148.895C219.589 149.378 220.28 149.982 220.355 151.07C220.435 152.212 219.643 153.2 217.864 153.2C217.138 153.2 216.329 152.992 215.909 152.728L216.099 151.926Z" fill="white"/>
<path d="M226.22 151.641C226.258 152.19 226.303 152.674 226.366 153.091H225.494L225.377 152.223H225.355C225.128 152.652 224.596 153.212 223.635 153.212C222.785 153.212 221.735 152.751 221.606 150.883L221.39 147.774H222.374L222.578 150.718C222.648 151.729 223.009 152.41 223.903 152.41C224.563 152.41 224.99 151.96 225.139 151.531C225.185 151.389 225.207 151.213 225.194 151.037L224.968 147.775H225.952L226.22 151.641Z" fill="white"/>
<path d="M227.684 149.213C227.646 148.664 227.603 148.213 227.539 147.774H228.411L228.528 148.653H228.55C228.784 148.147 229.375 147.653 230.27 147.653C231.019 147.653 232.213 148.092 232.339 149.916L232.56 153.09H231.576L231.363 150.026C231.303 149.169 230.93 148.455 230.001 148.455C229.353 148.455 228.881 148.905 228.751 149.443C228.715 149.564 228.703 149.729 228.715 149.894L228.937 153.09H227.953L227.684 149.213Z" fill="white"/>
<path d="M268.197 149.213C268.178 149.152 268.143 148.984 268.091 148.709C268.046 148.48 268.007 148.29 267.975 148.14C267.955 148.319 267.921 148.498 267.873 148.676C267.826 148.855 267.763 149.038 267.685 149.223L265.884 153.407L263.497 149.138C263.397 148.962 263.31 148.793 263.235 148.628C263.16 148.464 263.093 148.301 263.034 148.14C263.042 148.305 263.04 148.477 263.029 148.658C263.018 148.838 262.996 149.027 262.962 149.224L262.373 153.091H261.178L262.498 144.906L265.201 149.862C265.243 149.94 265.307 150.071 265.395 150.253C265.482 150.436 265.588 150.661 265.712 150.929C265.773 150.704 265.873 150.418 266.013 150.071C266.05 149.978 266.078 149.907 266.096 149.856L268.056 144.906L270.557 153.091H269.351L268.197 149.213Z" fill="white"/>
<path d="M270.938 150.554C270.912 150.182 270.959 149.831 271.08 149.5C271.201 149.169 271.387 148.875 271.638 148.617C271.886 148.364 272.178 148.169 272.515 148.033C272.851 147.897 273.209 147.829 273.587 147.829C273.977 147.829 274.348 147.897 274.702 148.033C275.055 148.169 275.377 148.369 275.669 148.634C275.96 148.895 276.188 149.19 276.353 149.519C276.518 149.848 276.612 150.193 276.638 150.554C276.664 150.929 276.618 151.281 276.501 151.61C276.384 151.939 276.199 152.231 275.947 152.485C275.682 152.753 275.381 152.956 275.045 153.093C274.709 153.231 274.35 153.3 273.967 153.3C273.593 153.3 273.228 153.231 272.872 153.093C272.517 152.956 272.195 152.756 271.908 152.495C271.617 152.231 271.388 151.934 271.224 151.605C271.059 151.276 270.964 150.926 270.938 150.554ZM275.388 150.564C275.355 150.092 275.173 149.693 274.841 149.366C274.508 149.039 274.119 148.875 273.671 148.875C273.227 148.875 272.861 149.039 272.572 149.366C272.284 149.693 272.156 150.092 272.189 150.564C272.222 151.037 272.405 151.436 272.739 151.763C273.073 152.09 273.462 152.254 273.906 152.254C274.35 152.254 274.716 152.09 275.004 151.763C275.293 151.436 275.421 151.037 275.388 150.564Z" fill="white"/>
<path d="M278.069 153.091L277.716 148.006H278.83L278.888 148.837C279.1 148.487 279.361 148.231 279.67 148.071C279.979 147.91 280.362 147.829 280.821 147.829C281.207 147.829 281.54 147.889 281.819 148.009C282.099 148.128 282.323 148.306 282.492 148.542C282.593 148.682 282.67 148.845 282.723 149.031C282.776 149.217 282.818 149.542 282.851 150.007L283.065 153.091H281.869L281.688 150.479C281.642 149.81 281.528 149.366 281.347 149.146C281.166 148.926 280.865 148.816 280.442 148.816C280.166 148.816 279.923 148.866 279.713 148.966C279.503 149.067 279.343 149.208 279.232 149.39C279.153 149.512 279.103 149.668 279.082 149.859C279.06 150.051 279.065 150.355 279.094 150.774L279.255 153.091H278.069Z" fill="white"/>
<path d="M309.626 146.322L310.097 153.091H308.797L308.327 146.322H306.203L306.128 145.239H311.663L311.739 146.322H309.626Z" fill="white"/>
<path d="M312.773 148.006L312.972 150.87C313.006 151.364 313.135 151.718 313.357 151.932C313.579 152.147 313.923 152.254 314.389 152.254C314.855 152.254 315.184 152.147 315.377 151.932C315.57 151.718 315.649 151.364 315.614 150.87L315.415 148.006H316.6L316.775 150.522C316.843 151.494 316.693 152.201 316.327 152.64C315.961 153.08 315.343 153.3 314.473 153.3C313.589 153.3 312.933 153.082 312.506 152.646C312.079 152.21 311.831 151.502 311.763 150.522L311.589 148.007H312.773V148.006Z" fill="white"/>
<path d="M323.373 150.72H319.235C319.297 151.196 319.466 151.567 319.743 151.833C320.02 152.1 320.373 152.233 320.803 152.233C321.185 152.233 321.498 152.154 321.742 151.997C321.986 151.839 322.19 151.585 322.355 151.235L323.392 151.782C323.137 152.293 322.803 152.674 322.391 152.924C321.979 153.175 321.483 153.3 320.905 153.3C320.075 153.3 319.397 153.051 318.871 152.554C318.345 152.057 318.053 151.394 317.996 150.564C317.94 149.767 318.149 149.112 318.621 148.599C319.093 148.086 319.727 147.829 320.525 147.829C321.358 147.829 322.024 148.063 322.522 148.532C323.021 149 323.299 149.656 323.358 150.5L323.373 150.72ZM322.09 149.937C322.018 149.572 321.857 149.294 321.606 149.103C321.357 148.912 321.026 148.816 320.615 148.816C320.225 148.816 319.919 148.909 319.695 149.095C319.471 149.281 319.325 149.561 319.257 149.937H322.09Z" fill="white"/>
<path d="M351.585 145.239H352.868L354.656 149.203C354.772 149.464 354.871 149.692 354.952 149.889C355.033 150.086 355.105 150.27 355.168 150.441C355.266 150.027 355.371 149.621 355.481 149.224C355.496 149.174 355.506 149.14 355.512 149.122L356.826 144.928L358.816 149.203C358.91 149.41 359 149.617 359.085 149.825C359.171 150.032 359.252 150.241 359.328 150.452C359.354 150.292 359.39 150.115 359.439 149.921C359.487 149.728 359.551 149.499 359.631 149.235L360.855 145.239H362.149L359.62 153.397L357.486 148.918C357.392 148.718 357.306 148.526 357.227 148.342C357.149 148.158 357.079 147.984 357.016 147.819C356.969 148.03 356.921 148.227 356.872 148.411C356.823 148.596 356.771 148.772 356.718 148.94L355.237 153.397L351.585 145.239Z" fill="white"/>
<path d="M367.689 150.72H363.551C363.613 151.196 363.782 151.567 364.059 151.833C364.336 152.1 364.69 152.233 365.119 152.233C365.501 152.233 365.814 152.154 366.058 151.997C366.302 151.839 366.507 151.585 366.672 151.235L367.709 151.782C367.453 152.293 367.119 152.674 366.707 152.924C366.295 153.175 365.8 153.3 365.221 153.3C364.391 153.3 363.713 153.051 363.187 152.554C362.661 152.057 362.37 151.394 362.312 150.564C362.257 149.767 362.465 149.112 362.937 148.599C363.409 148.086 364.044 147.829 364.841 147.829C365.674 147.829 366.34 148.063 366.838 148.532C367.337 149 367.615 149.656 367.674 150.5L367.689 150.72ZM366.406 149.937C366.334 149.572 366.172 149.294 365.922 149.103C365.673 148.912 365.342 148.816 364.931 148.816C364.541 148.816 364.235 148.909 364.011 149.095C363.787 149.281 363.641 149.561 363.573 149.937H366.406Z" fill="white"/>
<path d="M372.195 144.777H373.379L373.957 153.091H372.772L372.727 152.431C372.536 152.724 372.304 152.942 372.032 153.085C371.76 153.228 371.442 153.3 371.078 153.3C370.346 153.3 369.753 153.054 369.299 152.562C368.844 152.071 368.587 151.398 368.528 150.543C368.472 149.731 368.641 149.076 369.036 148.577C369.431 148.078 369.974 147.829 370.665 147.829C371.087 147.829 371.455 147.916 371.767 148.089C372.079 148.263 372.316 148.512 372.477 148.837L372.195 144.777ZM372.627 150.532C372.591 150.007 372.438 149.597 372.168 149.304C371.898 149.011 371.54 148.864 371.092 148.864C370.645 148.864 370.303 149.015 370.067 149.317C369.832 149.62 369.732 150.039 369.77 150.575C369.807 151.115 369.96 151.532 370.228 151.825C370.496 152.118 370.855 152.265 371.307 152.265C371.736 152.265 372.073 152.106 372.316 151.79C372.56 151.474 372.664 151.054 372.627 150.532Z" fill="white"/>
<path d="M400.759 146.322L401.229 153.091H399.929L399.459 146.322H397.335L397.26 145.239H402.796L402.871 146.322H400.759Z" fill="white"/>
<path d="M404.237 153.091L403.659 144.777H404.773L405.055 148.838C405.267 148.487 405.528 148.232 405.837 148.071C406.146 147.91 406.53 147.829 406.989 147.829C407.374 147.829 407.707 147.889 407.987 148.009C408.266 148.129 408.491 148.307 408.66 148.543C408.761 148.682 408.837 148.845 408.89 149.031C408.943 149.217 408.986 149.542 409.018 150.007L409.232 153.091H408.037L407.855 150.479C407.809 149.81 407.695 149.366 407.514 149.146C407.333 148.926 407.032 148.816 406.61 148.816C406.333 148.816 406.09 148.866 405.88 148.966C405.67 149.067 405.51 149.208 405.399 149.39C405.32 149.512 405.27 149.668 405.249 149.859C405.228 150.051 405.232 150.356 405.261 150.774L405.422 153.091H404.237V153.091Z" fill="white"/>
<path d="M411.603 148.006L411.802 150.87C411.836 151.364 411.965 151.718 412.187 151.932C412.409 152.147 412.754 152.254 413.22 152.254C413.685 152.254 414.014 152.147 414.207 151.932C414.4 151.718 414.479 151.364 414.444 150.87L414.245 148.006H415.43L415.605 150.522C415.673 151.494 415.523 152.201 415.157 152.64C414.791 153.08 414.173 153.3 413.303 153.3C412.419 153.3 411.763 153.082 411.336 152.646C410.909 152.21 410.661 151.502 410.593 150.522L410.418 148.007H411.603V148.006Z" fill="white"/>
<path d="M444.213 153.091L443.667 145.239H448.128L448.203 146.323H445.042L445.178 148.28H448.339L448.417 149.401H445.256L445.512 153.091H444.213Z" fill="white"/>
<path d="M450.674 148.816C450.778 148.48 450.929 148.232 451.128 148.071C451.326 147.91 451.579 147.83 451.889 147.83C452.056 147.83 452.222 147.849 452.387 147.889C452.552 147.928 452.715 147.985 452.877 148.06L452.519 149.047C452.412 148.976 452.299 148.923 452.178 148.889C452.058 148.855 451.924 148.838 451.779 148.838C451.386 148.838 451.114 148.993 450.965 149.302C450.815 149.612 450.766 150.131 450.816 150.86L450.972 153.091H449.787L449.433 147.996H450.617L450.674 148.816Z" fill="white"/>
<path d="M453.294 145.808C453.28 145.611 453.342 145.441 453.479 145.298C453.617 145.155 453.787 145.083 453.991 145.083C454.202 145.083 454.383 145.152 454.532 145.29C454.682 145.428 454.764 145.6 454.778 145.807C454.793 146.015 454.734 146.189 454.602 146.33C454.47 146.472 454.3 146.542 454.092 146.542C453.889 146.542 453.708 146.47 453.551 146.325C453.393 146.181 453.308 146.008 453.294 145.808ZM453.958 153.091L453.605 148.007H454.79L455.143 153.091H453.958Z" fill="white"/>
<path d="M489.212 151.519L490.216 151.047C490.339 151.398 490.537 151.665 490.812 151.849C491.087 152.033 491.428 152.125 491.836 152.125C492.222 152.125 492.521 152.02 492.734 151.809C492.947 151.598 493.041 151.316 493.016 150.962C492.984 150.5 492.566 150.089 491.762 149.728C491.649 149.674 491.563 149.635 491.503 149.61C490.593 149.188 489.979 148.806 489.663 148.465C489.346 148.123 489.17 147.706 489.136 147.212C489.091 146.572 489.277 146.054 489.691 145.657C490.106 145.26 490.671 145.062 491.389 145.062C491.978 145.062 492.479 145.173 492.891 145.397C493.304 145.62 493.601 145.941 493.783 146.36L492.803 146.875C492.626 146.628 492.437 146.447 492.238 146.333C492.039 146.218 491.816 146.161 491.569 146.161C491.219 146.161 490.948 146.251 490.755 146.43C490.561 146.608 490.475 146.848 490.496 147.148C490.529 147.62 491.011 148.06 491.942 148.468C492.014 148.5 492.07 148.525 492.111 148.543C492.926 148.9 493.492 149.25 493.811 149.591C494.129 149.933 494.306 150.359 494.342 150.871C494.393 151.614 494.196 152.205 493.75 152.643C493.303 153.081 492.674 153.3 491.863 153.3C491.182 153.3 490.614 153.147 490.157 152.839C489.701 152.531 489.386 152.092 489.212 151.519Z" fill="white"/>
<path d="M500.687 153.091H499.502L499.457 152.431C499.266 152.724 499.034 152.942 498.762 153.085C498.49 153.228 498.172 153.3 497.808 153.3C497.076 153.3 496.483 153.054 496.029 152.562C495.574 152.071 495.317 151.398 495.258 150.543C495.202 149.731 495.371 149.076 495.766 148.577C496.161 148.079 496.704 147.829 497.395 147.829C497.817 147.829 498.185 147.916 498.497 148.089C498.809 148.263 499.046 148.512 499.207 148.837L499.149 148.006H500.334L500.687 153.091ZM499.357 150.532C499.321 150.007 499.168 149.597 498.898 149.304C498.628 149.011 498.27 148.864 497.822 148.864C497.375 148.864 497.033 149.015 496.797 149.317C496.561 149.62 496.462 150.039 496.5 150.575C496.537 151.115 496.69 151.532 496.958 151.825C497.226 152.118 497.585 152.265 498.037 152.265C498.462 152.265 498.798 152.106 499.044 151.787C499.289 151.469 499.394 151.051 499.357 150.532Z" fill="white"/>
<path d="M502.604 153.091L502.321 149.025H501.415L501.344 148.006H502.25L502.117 146.081H503.301L503.435 148.006H504.341L504.412 149.025H503.506L503.788 153.091H502.604Z" fill="white"/>
<path d="M384.677 207.581C383.89 211.383 382.117 215.421 378.357 218.117C373.588 221.535 366.501 221.58 361.121 218.226L361.059 218.189C358.847 216.885 351.918 211.869 355.593 202.083L357.596 202.826C354.586 210.843 359.778 214.962 362.15 216.361C362.198 216.39 362.234 216.411 362.257 216.426C366.919 219.332 373.025 219.318 377.105 216.393C383.336 211.926 383.31 202.927 383.009 199.265C382.883 197.721 382.649 195.942 381.875 194.462C380.221 191.297 376.191 188.3 372.074 187.173C367.97 186.05 364.256 185.635 361.035 185.942C357.364 186.292 353.874 188.343 352.141 191.168C352.002 191.394 351.863 191.619 351.725 191.843C349.795 194.959 348.128 197.651 348.633 202.443L346.506 202.664C345.925 197.153 347.947 193.887 349.903 190.729C350.04 190.508 350.177 190.286 350.315 190.063C352.385 186.686 356.513 184.238 360.831 183.827C364.312 183.495 368.287 183.932 372.642 185.124C376.57 186.2 381.535 189.201 383.774 193.483C384.722 195.297 384.997 197.337 385.141 199.093C385.297 200.988 385.379 204.191 384.677 207.581Z" fill="#F47458"/>
<path d="M486.776 135.458C489.671 135.458 492.018 132.674 492.018 129.24C492.018 125.806 489.671 123.022 486.776 123.022C483.88 123.022 481.533 125.806 481.533 129.24C481.533 132.674 483.88 135.458 486.776 135.458Z" fill="#B75742"/>
<path d="M486.775 123.022C486.238 123.022 485.72 123.118 485.232 123.296C487.374 124.078 488.931 126.443 488.931 129.24C488.931 132.037 487.374 134.402 485.232 135.184C485.72 135.362 486.238 135.458 486.775 135.458C489.671 135.458 492.018 132.674 492.018 129.24C492.018 125.806 489.671 123.022 486.775 123.022Z" fill="#A54737"/>
<path d="M464.576 81.6641C449.315 81.6641 436.899 95.1767 436.899 111.786C436.899 114.109 437.146 116.37 437.606 118.543H441.854C441.328 116.387 441.043 114.123 441.043 111.786C441.043 97.4474 451.6 85.782 464.577 85.782C477.553 85.782 488.11 97.4474 488.11 111.786C488.11 119.107 485.358 125.731 480.936 130.462C480.149 131.305 480.232 132.628 481.107 133.381C481.118 133.39 481.129 133.399 481.139 133.409C481.97 134.12 483.223 134.056 483.97 133.258C489.08 127.789 492.254 120.184 492.254 111.786C492.254 95.1769 479.837 81.6641 464.576 81.6641Z" fill="#184655"/>
<path d="M481.533 129.422C481.533 129.422 481.786 132.989 484.314 134.73C486.843 136.472 480.806 137.387 480.499 137.082C480.192 136.777 477.395 134.98 477.327 133.184C477.259 131.388 477.839 129.93 477.941 129.693C478.043 129.456 478.828 128.066 479.032 128.066C479.237 128.066 481.533 129.422 481.533 129.422Z" fill="#F47458"/>
<path d="M415.66 135.458C418.555 135.458 420.902 132.674 420.902 129.24C420.902 125.806 418.555 123.022 415.66 123.022C412.764 123.022 410.417 125.806 410.417 129.24C410.417 132.674 412.764 135.458 415.66 135.458Z" fill="#B75742"/>
<path d="M415.66 123.022C415.123 123.022 414.604 123.118 414.116 123.296C416.258 124.078 417.816 126.443 417.816 129.24C417.816 132.037 416.259 134.402 414.116 135.184C414.604 135.362 415.123 135.458 415.66 135.458C418.555 135.458 420.902 132.674 420.902 129.24C420.902 125.806 418.555 123.022 415.66 123.022Z" fill="#A54737"/>
<path d="M393.461 81.6641C378.199 81.6641 365.783 95.1767 365.783 111.786C365.783 114.109 366.031 116.37 366.491 118.543H370.739C370.212 116.387 369.928 114.123 369.928 111.786C369.928 97.4474 380.485 85.782 393.461 85.782C406.438 85.782 416.995 97.4474 416.995 111.786C416.995 119.107 414.242 125.731 409.821 130.462C409.033 131.305 409.117 132.628 409.992 133.381C410.003 133.39 410.013 133.399 410.023 133.409C410.854 134.12 412.108 134.056 412.854 133.258C417.965 127.789 421.138 120.184 421.138 111.786C421.138 95.1769 408.722 81.6641 393.461 81.6641Z" fill="#184655"/>
<path d="M410.417 129.422C410.417 129.422 410.67 132.989 413.198 134.73C415.727 136.472 409.69 137.387 409.383 137.082C409.076 136.777 406.279 134.98 406.211 133.184C406.143 131.388 406.723 129.93 406.825 129.693C406.927 129.456 407.712 128.066 407.917 128.066C408.121 128.066 410.417 129.422 410.417 129.422Z" fill="#F47458"/>
<path d="M349.787 129.24C349.787 132.674 347.439 135.458 344.544 135.458C341.649 135.458 339.302 132.674 339.302 129.24C339.302 125.806 341.649 123.022 344.544 123.022C347.439 123.022 349.787 125.806 349.787 129.24Z" fill="#B75742"/>
<path d="M344.545 123.022C344.007 123.022 343.489 123.118 343.001 123.296C345.143 124.078 346.7 126.443 346.7 129.24C346.7 132.037 345.143 134.402 343.001 135.184C343.489 135.362 344.007 135.458 344.545 135.458C347.44 135.458 349.787 132.674 349.787 129.24C349.787 125.806 347.44 123.022 344.545 123.022Z" fill="#A54737"/>
<path d="M322.345 81.6641C307.084 81.6641 294.668 95.1767 294.668 111.786C294.668 114.109 294.915 116.37 295.375 118.543H299.623C299.097 116.387 298.812 114.123 298.812 111.786C298.812 97.4474 309.369 85.782 322.345 85.782C335.322 85.782 345.879 97.4474 345.879 111.786C345.879 119.107 343.126 125.731 338.705 130.462C337.917 131.305 338.001 132.628 338.876 133.381C338.887 133.39 338.897 133.399 338.908 133.409C339.739 134.12 340.992 134.056 341.738 133.258C346.849 127.789 350.023 120.184 350.023 111.786C350.023 95.1769 337.607 81.6641 322.345 81.6641Z" fill="#184655"/>
<path d="M339.301 129.422C339.301 129.422 339.554 132.989 342.082 134.73C344.611 136.472 338.574 137.387 338.267 137.082C337.96 136.777 335.164 134.98 335.095 133.184C335.027 131.388 335.607 129.93 335.709 129.693C335.812 129.456 336.596 128.066 336.801 128.066C337.005 128.066 339.301 129.422 339.301 129.422Z" fill="#F47458"/>
<path d="M273.428 135.458C276.324 135.458 278.671 132.674 278.671 129.24C278.671 125.806 276.324 123.022 273.428 123.022C270.533 123.022 268.186 125.806 268.186 129.24C268.186 132.674 270.533 135.458 273.428 135.458Z" fill="#B75742"/>
<path d="M273.429 123.022C272.891 123.022 272.373 123.118 271.885 123.296C274.027 124.078 275.584 126.443 275.584 129.24C275.584 132.037 274.027 134.402 271.885 135.184C272.373 135.362 272.891 135.458 273.429 135.458C276.324 135.458 278.671 132.674 278.671 129.24C278.671 125.806 276.324 123.022 273.429 123.022Z" fill="#A54737"/>
<path d="M251.23 81.6641C235.968 81.6641 223.552 95.1767 223.552 111.786C223.552 114.109 223.799 116.37 224.259 118.543H228.507C227.981 116.387 227.696 114.123 227.696 111.786C227.696 97.4474 238.253 85.782 251.23 85.782C264.206 85.782 274.763 97.4474 274.763 111.786C274.763 119.107 272.011 125.731 267.589 130.462C266.802 131.305 266.885 132.628 267.761 133.381C267.771 133.39 267.782 133.399 267.792 133.409C268.623 134.12 269.877 134.056 270.623 133.258C275.733 127.789 278.907 120.184 278.907 111.786C278.907 95.1769 266.491 81.6641 251.23 81.6641Z" fill="#184655"/>
<path d="M268.186 129.422C268.186 129.422 268.438 132.989 270.967 134.73C273.496 136.472 267.459 137.387 267.152 137.082C266.845 136.777 264.048 134.98 263.98 133.184C263.912 131.388 264.491 129.93 264.594 129.693C264.696 129.456 265.481 128.066 265.685 128.066C265.89 128.066 268.186 129.422 268.186 129.422Z" fill="#F47458"/>
<path d="M532.589 370.261L532.257 355.917L516.486 358.978C516.486 358.978 469.521 364.4 469.316 364.4C469.112 364.4 423.972 377.551 423.972 377.551L418.332 378.5H524.63C529.131 378.5 532.694 374.811 532.589 370.261Z" fill="#F7CC7F"/>
<path d="M418.332 378.5C418.332 378.5 455.835 370.362 485.457 319.323C485.457 319.323 499.986 358.672 532.257 355.918C532.257 355.918 489.006 375.913 418.332 378.5Z" fill="#FAE0B2"/>
<path d="M331.174 222.027L351.472 191.363L316.613 203.495L311.97 216.846L331.174 222.027Z" fill="#F2E9DA"/>
<path d="M311.97 216.846L316.91 218.179L351.472 191.363L316.613 203.495L311.97 216.846Z" fill="#E0D5C3"/>
<path d="M316.613 203.495L325.636 200.355L320.718 208.72L209.979 294.641L209.223 286.818L316.613 203.495Z" fill="#E8BA70"/>
<path d="M320.718 208.72L331.032 207.222L327.068 216.802L216.329 302.723L209.979 294.641L320.718 208.72Z" fill="#F7CC7F"/>
<path d="M327.068 216.802L336.428 214.09L331.174 222.027L223.784 305.349L216.33 302.723L327.068 216.802Z" fill="#FAE0B2"/>
<path d="M218.128 288.318L209.974 294.645L216.324 302.726L224.478 296.399L218.128 288.318Z" fill="#50BFA5"/>
<path d="M224.484 296.396L216.33 302.723L223.784 305.349L228.59 301.621L224.484 296.396Z" fill="#96D9C9"/>
<path d="M214.029 283.088L209.223 286.817L209.979 294.641L218.134 288.314L214.029 283.088Z" fill="#3C8F7C"/>
<path d="M224.487 296.401L228.592 301.626L238.202 294.17L234.097 288.945L224.487 296.401Z" fill="#FEF8F8"/>
<path d="M214.031 283.094L218.136 288.319L227.747 280.862L223.641 275.637L214.031 283.094Z" fill="#EDDFCA"/>
<path d="M218.135 288.318L224.485 296.4L234.096 288.944L227.746 280.862L218.135 288.318Z" fill="#F2E9DA"/>
<path d="M344.583 201.77C344.652 201.665 351.472 191.363 351.472 191.363L339.641 195.48L343.846 197.279L344.583 201.77Z" fill="#E86752"/>
<path d="M343.846 197.28L351.472 191.363L339.641 195.48L343.846 197.28Z" fill="#D85648"/>
</g>
<defs>
<filter id="filter0_d_8951_40491" x="0" y="0" width="700" height="407.5" filterUnits="userSpaceOnUse" color-interpolation-filters="sRGB">
<feFlood flood-opacity="0" result="BackgroundImageFix"/>
<feColorMatrix in="SourceAlpha" type="matrix" values="0 0 0 0 0 0 0 0 0 0 0 0 0 0 0 0 0 0 127 0" result="hardAlpha"/>
<feOffset dy="4"/>
<feGaussianBlur stdDeviation="12.5"/>
<feComposite in2="hardAlpha" operator="out"/>
<feColorMatrix type="matrix" values="0 0 0 0 0 0 0 0 0 0 0 0 0 0 0 0 0 0 0.15 0"/>
<feBlend mode="normal" in2="BackgroundImageFix" result="effect1_dropShadow_8951_40491"/>
<feBlend mode="normal" in="SourceGraphic" in2="effect1_dropShadow_8951_40491" result="shape"/>
</filter>
</defs>
</svg>
