<svg width="56" height="53" viewBox="0 0 56 53" fill="none" xmlns="http://www.w3.org/2000/svg">
<path id="Vector" d="M28.0002 0C12.5608 0 0 13.6702 0 30.4733C0 32.8235 0.250174 35.1105 0.715722 37.3092H5.01272C4.48052 35.1281 4.19222 32.8375 4.19222 30.4733C4.19222 15.9674 14.8723 4.16594 28.0002 4.16594C41.1278 4.16594 51.8079 15.9674 51.8079 30.4733C51.8079 37.8797 49.0236 44.5811 44.5508 49.3665C43.7538 50.2193 43.8386 51.5586 44.7236 52.3205C44.7343 52.3296 44.7451 52.3387 44.7557 52.3481C45.5962 53.0671 46.8646 53.0028 47.6194 52.1951C52.7894 46.663 56.0001 38.9687 56.0001 30.4733C56.0003 13.6704 43.4395 0 28.0002 0Z" fill="#184655"/>
</svg>
