<svg width="17" height="8" viewBox="0 0 17 8" fill="none" xmlns="http://www.w3.org/2000/svg">
<g id="Group">
<path id="Vector" d="M0.400068 6.41379C0.858328 6.67976 1.51631 6.90136 2.19301 6.90136C3.19653 6.90136 3.74659 6.38077 3.69426 5.62743C3.64588 4.9296 3.21211 4.53075 2.15917 4.14304C0.888627 3.71097 0.0782112 3.07957 0.00491454 2.02725C-0.0758571 0.863924 0.84503 0 2.32218 0C3.10041 0 3.6764 0.177243 4.02772 0.365423L3.81177 1.15198C3.5545 1.0191 3.03168 0.797492 2.34397 0.797492C1.30661 0.797492 0.95425 1.4066 0.989756 1.91625C1.03814 2.61409 1.52441 2.95743 2.60061 3.35628C3.91995 3.84365 4.61639 4.45297 4.69259 5.54965C4.77253 6.70163 3.97374 7.69865 2.18056 7.69865C1.44781 7.69865 0.632609 7.48797 0.208194 7.22221L0.400068 6.41379Z" fill="white"/>
<path id="Vector_2" d="M10.607 6.12605C10.6455 6.68006 10.6907 7.16743 10.7538 7.58835H9.87427L9.75717 6.71329H9.73474C9.5053 7.14515 8.96939 7.7103 7.99971 7.7103C7.14279 7.7103 6.08425 7.24502 5.95343 5.36178L5.7356 2.22668H6.72792L6.93412 5.19567C7.00492 6.21497 7.36848 6.90166 8.27047 6.90166C8.93595 6.90166 9.3666 6.44752 9.51714 6.01545C9.56344 5.87143 9.58482 5.69418 9.57257 5.51693L9.34397 2.22688H10.3363L10.607 6.12605Z" fill="white"/>
<path id="Vector_3" d="M12.083 3.67739C12.0446 3.12338 12.0016 2.66923 11.937 2.22602H12.8166L12.9345 3.11223H12.957C13.1922 2.60258 13.7889 2.10407 14.6911 2.10407C15.4467 2.10407 16.65 2.54728 16.7777 4.38616L17.0001 7.58769H16.008L15.7933 4.49696C15.7333 3.63282 15.3562 2.91271 14.4202 2.91271C13.7663 2.91271 13.2904 3.36685 13.159 3.90973C13.1224 4.03167 13.1112 4.19798 13.1228 4.36409L13.3469 7.58769H12.3548L12.083 3.67739Z" fill="white"/>
</g>
</svg>
