<svg width="44" height="120" viewBox="0 0 44 120" fill="none" xmlns="http://www.w3.org/2000/svg">
<path id="Vector" d="M20.2007 18.5828C17.2259 21.9642 -3.19112 35.6011 0.428496 53.6106C4.04811 71.6199 23.8959 75.8302 28.7841 81.1322C33.6722 86.4341 40.2714 86.4273 40.313 89.9528C40.3547 93.478 41.642 106.297 39.4505 118.944L40.0363 120C41.107 115.064 42.5933 107.547 43.079 101.839C43.868 92.5684 42.3561 88.7313 39.3577 81.2213C36.3591 73.7113 17.7282 58.416 13.0597 50.3745C8.39107 42.3328 22.0617 28.8902 25.0959 22.4001C28.1301 15.9101 26.1902 0 26.1902 0C26.1902 0 23.1753 15.2012 20.2007 18.5828Z" fill="#327F6B"/>
</svg>
