<svg width="19" height="9" viewBox="0 0 19 9" fill="none" xmlns="http://www.w3.org/2000/svg">
<g id="Group">
<path id="Vector" d="M3.62019 1.5986L4.10661 8.60303H2.76176L2.27532 1.5986H0.0777668L0 0.477488H5.72847L5.80645 1.5986H3.62019Z" fill="white"/>
<path id="Vector_2" d="M7.2198 8.60277L6.62193 0H7.77418L8.06608 4.20156C8.28554 3.83908 8.55551 3.57442 8.87553 3.408C9.19534 3.24158 9.59226 3.15816 10.0672 3.15816C10.4663 3.15816 10.8104 3.22019 11.0997 3.34406C11.3888 3.46792 11.6213 3.65212 11.7964 3.89624C11.9006 4.04064 11.9799 4.20897 12.0351 4.40144C12.0898 4.5939 12.1339 4.93076 12.1674 5.4116L12.389 8.60299H11.1517L10.964 5.90005C10.9158 5.20811 10.7982 4.74824 10.6112 4.52084C10.4239 4.29324 10.1117 4.17954 9.67473 4.17954C9.38859 4.17954 9.13717 4.23141 8.92026 4.33495C8.70294 4.4387 8.53717 4.58479 8.42232 4.77344C8.34072 4.8992 8.28873 5.06118 8.267 5.25894C8.24484 5.45691 8.24889 5.77238 8.27914 6.20516L8.44555 8.60299H7.2198V8.60277Z" fill="white"/>
<path id="Vector_3" d="M14.8422 3.34141L15.048 6.30521C15.0836 6.8159 15.2164 7.18219 15.4465 7.40408C15.6766 7.62597 16.0326 7.73713 16.515 7.73713C16.997 7.73713 17.3374 7.62619 17.5369 7.40408C17.7363 7.18198 17.8179 6.8159 17.7823 6.30521L17.5765 3.34141H18.8027L18.9836 5.94441C19.0535 6.95097 18.8988 7.68165 18.52 8.13666C18.1409 8.59188 17.5015 8.81949 16.6013 8.81949C15.686 8.81949 15.0076 8.59379 14.5655 8.14238C14.1238 7.69098 13.8677 6.95839 13.7974 5.94463L13.6163 3.34163H14.8422V3.34141Z" fill="white"/>
</g>
</svg>
