<svg width="623" height="358" viewBox="0 0 623 358" fill="none" xmlns="http://www.w3.org/2000/svg">
<path id="Vector" d="M186.099 0.64126C278.928 -4.5768 376.255 22.604 361.949 62.0054C347.642 101.407 438.434 48.01 474.666 62.216C500.461 72.3297 490.15 103.118 502.629 115.524C531.242 143.969 560.505 108.149 596.922 129.641C622.478 144.723 627.418 239.098 619.615 300.426C615.837 330.125 592.446 353.595 562.609 357.716L106.631 344.302L51.0747 348.577C51.0747 348.577 -49.1249 311.593 31.1654 259.855C73.4598 232.602 42.8498 210.728 38.3187 197.698C33.1164 182.738 20.9775 156.611 73.8681 137.437C126.759 118.263 113.102 76.5438 111.802 67.9051C110.501 59.2662 93.2702 5.85933 186.099 0.64126Z" fill="#EAFCFC"/>
</svg>
