<svg width="30" height="30" viewBox="0 0 30 30" fill="none" xmlns="http://www.w3.org/2000/svg">
<g id="instagram">
<path id="instagram_2" d="M26.1749 10.3627C26.0874 8.56268 25.6749 6.96269 24.3624 5.65019C23.0499 4.33769 21.4499 3.9252 19.6499 3.8377C17.7874 3.7377 12.2249 3.7377 10.3749 3.8377C8.5749 3.9252 6.98742 4.33769 5.66242 5.65019C4.33742 6.96269 3.9374 8.56268 3.8499 10.3627C3.7499 12.2252 3.7499 17.7877 3.8499 19.6502C3.9374 21.4502 4.34992 23.0502 5.66242 24.3627C6.98742 25.6752 8.5749 26.0877 10.3749 26.1752C12.2374 26.2752 17.7999 26.2752 19.6499 26.1752C21.4499 26.0877 23.0499 25.6752 24.3624 24.3627C25.6749 23.0502 26.0874 21.4502 26.1749 19.6502C26.2749 17.7877 26.2749 12.2252 26.1749 10.3752V10.3627ZM14.9999 20.9377C11.7249 20.9377 9.06242 18.2752 9.06242 15.0002C9.06242 11.7252 11.7249 9.06269 14.9999 9.06269C18.2749 9.06269 20.9374 11.7252 20.9374 15.0002C20.9374 18.2752 18.2749 20.9377 14.9999 20.9377ZM21.8999 9.37519C21.2124 9.37519 20.6499 8.81269 20.6499 8.12519C20.6499 7.43769 21.1999 6.87519 21.8999 6.87519C22.5874 6.87519 23.1499 7.43769 23.1499 8.12519C23.1499 8.81269 22.5874 9.37519 21.8999 9.37519ZM19.0624 15.0002C19.0624 17.2377 17.2374 19.0627 14.9999 19.0627C12.7624 19.0627 10.9374 17.2377 10.9374 15.0002C10.9374 12.7627 12.7624 10.9377 14.9999 10.9377C17.2374 10.9377 19.0624 12.7627 19.0624 15.0002Z" fill="white"/>
</g>
</svg>
