<svg width="30" height="30" viewBox="0 0 30 30" fill="none" xmlns="http://www.w3.org/2000/svg">
<g id="star">
<path id="star_2" d="M16.2025 5.74507L18.63 10.6413C18.8125 11.0101 19.1651 11.2651 19.5738 11.3238L25.1774 12.1338C26.2049 12.2825 26.615 13.5425 25.8713 14.265L21.82 18.1963C21.5238 18.4838 21.3887 18.8975 21.4587 19.3038L22.3849 24.6838C22.5724 25.7751 21.4262 26.6076 20.4437 26.0938L15.5838 23.5501C15.2188 23.3588 14.7837 23.3588 14.42 23.5501L9.56373 26.0913C8.57998 26.6063 7.42994 25.7725 7.61869 24.6788L8.54505 19.3038C8.61505 18.8975 8.47997 18.4838 8.18372 18.1963L4.13252 14.265C3.38752 13.5425 3.79743 12.2825 4.82618 12.1338L10.43 11.3238C10.8375 11.2651 11.19 11.0101 11.3737 10.6413L13.8012 5.74507C14.29 4.75132 15.71 4.75132 16.2025 5.74507Z" fill="white"/>
</g>
</svg>
