<svg width="30" height="30" viewBox="0 0 30 30" fill="none" xmlns="http://www.w3.org/2000/svg">
<g id="moon">
<path id="moon_2" d="M15.1662 3.75C15.17 3.75 15.175 3.75 15.1787 3.75C15.5775 3.75 15.75 4.24126 15.45 4.50001C13.3487 6.30876 12.1937 9.15248 12.7825 12.2175C13.4362 15.6187 16.235 18.2075 19.7162 18.6725C21.915 18.9662 23.9512 18.41 25.57 17.2987C25.8987 17.0725 26.335 17.3713 26.2362 17.7538C24.8562 23.1488 19.5325 26.9938 13.4587 26.1275C8.41373 25.4075 4.42999 21.3588 3.83249 16.3688C3.51999 13.7663 4.11121 11.3138 5.33746 9.27502C7.32496 5.96752 10.9825 3.75 15.1662 3.75Z" fill="white"/>
</g>
</svg>
