<svg width="30" height="30" viewBox="0 0 30 30" fill="none" xmlns="http://www.w3.org/2000/svg">
<g id="game-controller">
<path id="game-controller_2" d="M20 8.75H15.9375V7.5C15.9375 6.9875 16.3625 6.5625 16.875 6.5625H18.125C19.675 6.5625 20.9375 5.3 20.9375 3.75C20.9375 3.2375 20.5125 2.8125 20 2.8125C19.4875 2.8125 19.0625 3.2375 19.0625 3.75C19.0625 4.2625 18.6375 4.6875 18.125 4.6875H16.875C15.325 4.6875 14.0625 5.95 14.0625 7.5V8.75H10C6.25 8.75 3.75 11.25 3.75 16.25V21.25C3.75 23.75 5 26.25 7.5 26.25H7.81616C9.17991 26.25 10.4539 25.5662 11.2064 24.4287C11.2064 24.4287 12.465 22.5 15 22.5C17.535 22.5 18.7924 24.44 18.7924 24.44C19.5462 25.5713 20.8162 26.25 22.175 26.25H22.5C25 26.25 26.25 23.75 26.25 21.25V16.25C26.25 11.25 23.75 8.75 20 8.75ZM12.5 17.1875H10.9375V18.75C10.9375 19.2675 10.5175 19.6875 10 19.6875C9.4825 19.6875 9.0625 19.2675 9.0625 18.75V17.1875H7.5C6.9825 17.1875 6.5625 16.7675 6.5625 16.25C6.5625 15.7325 6.9825 15.3125 7.5 15.3125H9.0625V13.75C9.0625 13.2325 9.4825 12.8125 10 12.8125C10.5175 12.8125 10.9375 13.2325 10.9375 13.75V15.3125H12.5C13.0175 15.3125 13.4375 15.7325 13.4375 16.25C13.4375 16.7675 13.0175 17.1875 12.5 17.1875ZM18.4375 19.0625C17.7475 19.0625 17.1875 18.5025 17.1875 17.8125C17.1875 17.1225 17.7475 16.5625 18.4375 16.5625C19.1275 16.5625 19.6875 17.1225 19.6875 17.8125C19.6875 18.5025 19.1275 19.0625 18.4375 19.0625ZM21.5625 15.9387C20.8725 15.9387 20.3125 15.3787 20.3125 14.6887C20.3125 13.9987 20.8725 13.4387 21.5625 13.4387C22.2525 13.4387 22.8125 13.9987 22.8125 14.6887C22.8125 15.3787 22.2525 15.9387 21.5625 15.9387Z" fill="white"/>
</g>
</svg>
