<svg width="20" height="20" viewBox="0 0 20 20" fill="none" xmlns="http://www.w3.org/2000/svg">
<g id="globe">
<path id="globe_2" d="M5.69164 10.6251C5.81664 13.1917 6.68331 15.8084 8.19164 18.1334C4.65831 17.3501 1.96665 14.3251 1.69165 10.6251H5.69164ZM8.19164 1.86674C4.65831 2.65007 1.96665 5.67508 1.69165 9.37508H5.69164C5.81664 6.80841 6.68331 4.19174 8.19164 1.86674ZM10.1667 1.66675H9.83331L9.58332 2.02508C7.99998 4.27508 7.07497 6.85842 6.94164 9.37508H13.0583C12.925 6.85842 12 4.27508 10.4167 2.02508L10.1667 1.66675ZM6.94164 10.6251C7.07497 13.1417 7.99998 15.7251 9.58332 17.9751L9.83331 18.3334H10.1667L10.4167 17.9751C12 15.7251 12.925 13.1417 13.0583 10.6251H6.94164ZM14.3083 10.6251C14.1833 13.1917 13.3167 15.8084 11.8083 18.1334C15.3417 17.3501 18.0333 14.3251 18.3083 10.6251H14.3083ZM18.3083 9.37508C18.0333 5.67508 15.3417 2.65007 11.8083 1.86674C13.3167 4.19174 14.1833 6.80841 14.3083 9.37508H18.3083Z" fill="white"/>
</g>
</svg>
