<svg width="20" height="20" viewBox="0 0 20 20" fill="none" xmlns="http://www.w3.org/2000/svg">
<g id="code">
<path id="code_2" d="M5.83332 14.1667C5.61999 14.1667 5.40665 14.085 5.24415 13.9225L1.91082 10.5892C1.58498 10.2642 1.58498 9.73583 1.91082 9.41083L5.24415 6.07749C5.56998 5.75166 6.09665 5.75166 6.42249 6.07749C6.74832 6.40249 6.74832 6.93083 6.42249 7.25583L3.67832 9.99999L6.42249 12.7442C6.74832 13.0692 6.74832 13.5975 6.42249 13.9225C6.25999 14.085 6.04665 14.1667 5.83332 14.1667ZM14.7558 13.9225L18.0892 10.5892C18.415 10.2642 18.415 9.73583 18.0892 9.41083L14.7558 6.07749C14.43 5.75166 13.9033 5.75166 13.5775 6.07749C13.2517 6.40249 13.2517 6.93083 13.5775 7.25583L16.3216 9.99999L13.5775 12.7442C13.2517 13.0692 13.2517 13.5975 13.5775 13.9225C13.74 14.085 13.9533 14.1667 14.1667 14.1667C14.38 14.1667 14.5933 14.085 14.7558 13.9225ZM8.28082 16.9592L13.2808 3.62584C13.4425 3.195 13.2242 2.71416 12.7933 2.55332C12.3617 2.39166 11.8825 2.60998 11.72 3.04082L6.71998 16.3742C6.55831 16.805 6.77665 17.2858 7.20749 17.4467C7.30415 17.4833 7.40248 17.5 7.49999 17.5C7.83748 17.5 8.15498 17.2933 8.28082 16.9592Z" fill="white"/>
</g>
</svg>
