<svg width="20" height="20" viewBox="0 0 20 20" fill="none" xmlns="http://www.w3.org/2000/svg">
<g id="pen-tool">
<path id="pen-tool_2" d="M17.2583 14.2666L14.2667 17.2583C13.9425 17.5825 13.4158 17.5825 13.0917 17.2583L11.4517 15.6183C11.3542 15.5208 11.3542 15.3625 11.4517 15.265L15.265 11.4516C15.3625 11.3541 15.5208 11.3541 15.6183 11.4516L17.2583 13.0916C17.5825 13.4158 17.5825 13.9425 17.2583 14.2666ZM14.7908 9.98745L13.7333 5.7583C13.4917 4.79163 12.7 4.0583 11.7167 3.89164L3.45833 2.5083C3.44667 2.5308 3.44751 2.52995 3.43584 2.55245L8.01667 7.13329C8.43333 7.00829 8.89167 7.11663 9.21667 7.44996C9.70834 7.93329 9.70834 8.72496 9.21667 9.21662C8.73334 9.70829 7.93334 9.70829 7.45001 9.21662C7.11667 8.89162 7.00834 8.42495 7.13334 8.01662L2.50001 3.38329C2.49667 3.38496 2.5 3.3833 2.49583 3.38497L3.89167 11.7166C4.05834 12.7 4.79167 13.4916 5.75834 13.7333L9.98751 14.7908C10.0725 14.8125 10.1625 14.7875 10.225 14.725L14.725 10.2249C14.7867 10.1633 14.8117 10.0724 14.7908 9.98745Z" fill="white"/>
</g>
</svg>
