<svg width="30" height="30" viewBox="0 0 30 30" fill="none" xmlns="http://www.w3.org/2000/svg">
<g id="instagram">
<path id="instagram_2" d="M26.1749 10.3624C26.0874 8.56243 25.6749 6.96245 24.3624 5.64995C23.0499 4.33745 21.4499 3.92495 19.6499 3.83745C17.7874 3.73745 12.2249 3.73745 10.3749 3.83745C8.5749 3.92495 6.98742 4.33745 5.66242 5.64995C4.33742 6.96245 3.9374 8.56243 3.8499 10.3624C3.7499 12.2249 3.7499 17.7874 3.8499 19.6499C3.9374 21.4499 4.34992 23.0499 5.66242 24.3624C6.98742 25.6749 8.5749 26.0874 10.3749 26.1749C12.2374 26.2749 17.7999 26.2749 19.6499 26.1749C21.4499 26.0874 23.0499 25.6749 24.3624 24.3624C25.6749 23.0499 26.0874 21.4499 26.1749 19.6499C26.2749 17.7874 26.2749 12.2249 26.1749 10.3749V10.3624ZM14.9999 20.9374C11.7249 20.9374 9.06242 18.2749 9.06242 14.9999C9.06242 11.7249 11.7249 9.06244 14.9999 9.06244C18.2749 9.06244 20.9374 11.7249 20.9374 14.9999C20.9374 18.2749 18.2749 20.9374 14.9999 20.9374ZM21.8999 9.37494C21.2124 9.37494 20.6499 8.81244 20.6499 8.12494C20.6499 7.43744 21.1999 6.87494 21.8999 6.87494C22.5874 6.87494 23.1499 7.43744 23.1499 8.12494C23.1499 8.81244 22.5874 9.37494 21.8999 9.37494ZM19.0624 14.9999C19.0624 17.2374 17.2374 19.0624 14.9999 19.0624C12.7624 19.0624 10.9374 17.2374 10.9374 14.9999C10.9374 12.7624 12.7624 10.9374 14.9999 10.9374C17.2374 10.9374 19.0624 12.7624 19.0624 14.9999Z" fill="white"/>
</g>
</svg>
